<svg id="Guías" xmlns="http://www.w3.org/2000/svg" viewBox="0 0 850.39 850.39"><defs><style>.cls-1{fill:#fff;}</style></defs><path class="cls-1" d="M361.4,614.32c-3.27.77-6-2.22-7.69-5.33-.57-1-.49-2,.59-2.3,3.28-.74,6.54-1.93,9.85-2.47a54,54,0,0,0-2.54-11.84l22.78-7.94c9.38,26.89,2.58,52.28-7.18,71.59,58.53-3.49,110.1-24.43,140.77-57.71,26.91-29.2,38.34-67.61,34-114.16-6.74-40.46-8.39-83.3-7.72-122.13-2-.84-3.73-2.31-3.06-5.62.57-2.81,1.8-3.09,3.22-2.89a1047.11,1047.11,0,0,1,9.62-116.37c-61.08-45.78-118.75-73-167.13-78.66-67.76-8-118.64,25.55-151.19,99.59q-1.24,2.85-2.55,5.72l-4,8.67-9.35-1.87a68.36,68.36,0,0,0-13.44-1.33,69.15,69.15,0,0,0-45.48,121.19c9.2,8.09,3.19,19-8.79,40.62-1.15,2.07-2,3.68-2.41,4.44-6.48,13.73-11.13,29-14.46,40.81a337.59,337.59,0,0,0-12.67,86.39l0,1.35c-.36,21.84-1,62.5,15,78.74,4.86,4.94,10.89,7.24,19,7.24,11.83,0,23.08-9,29.39-23.4l.92-2.12-34.89-60a13.08,13.08,0,0,1,12.94-19.55l86.57,10.89a13.08,13.08,0,0,1,7.7,22.15L212.51,625.4l1.47.66,1,6.44a72.07,72.07,0,0,0,122.22,39.32c6.59-7.27,25.67-30.94,27-58.14C363.3,613.89,362.33,614.1,361.4,614.32Zm184.41-99.38c-.11,2.44-1.46,3.47-5.1,1.66-2-2.24-8.36-2-8.41-8.11,0-2.13,2.76-3.81,4.11-2.5C539.51,509,546.1,508.55,545.81,514.94ZM529.48,375.81c3.93-7.26,8.36-1.25,14.08-1.77-4.66,3.35-2.61,12.83-11.19,8.24C530.27,381.16,527.23,380,529.48,375.81ZM532,445.16c3.37.3,6,5,5.42,5.21-4.48,1.85-3.29,10.07-10.15,8.82-3.61-.65-4.31-3.32-5.18-6.71C526,450.94,526.23,444.65,532,445.16ZM154.16,340.4l-1.88-2.57a9,9,0,0,1,2.42-1.41c1.8-.37,1.9,1,1.69,2.23A1.83,1.83,0,0,1,154.16,340.4ZM170,473.28c-1.54,2.68-4.61,1.83-6.27,1.7-3.57-.27-6.89-2.57-10.85-1.89-1.3.23-1.93-.95-1.79-2.46a9.1,9.1,0,0,1,10.5-7.69,7.41,7.41,0,0,1,6.29,3.58C168.91,468.45,171.76,470.25,170,473.28Zm.71-128.06L184,315.69a17.75,17.75,0,0,1,23.45-8.95L236.93,320a17.75,17.75,0,0,1,8.95,23.45l-13.22,29.53a17.75,17.75,0,0,1-23.45,8.95l-29.54-13.22A17.75,17.75,0,0,1,170.73,345.22Zm36,170c-2,0-3.8-1.13-3.55-2.75.35-2.27,3.11-2.09,4.77-2.15s3,2,2.72,3.44C210.35,515.5,208.45,515.82,206.77,515.19Zm-1-42.18c-1.11.37-3.74.38-3.75-2.19,0-2.29.61-4.89,3.29-4.89,5.33,0,9.48,2.57,12.47,6.81C213.38,473.77,209.75,471.68,205.77,473Zm18.2,48.5c-1.07-1.47-.17-3.24.45-4.8,2.17,3.3,7.07,1.58,10.49,6.95C230.29,521.73,226.69,525.26,224,521.51Zm24.72-23.31c-3.35-1-4-3-3.3-5.7.48-1.92.66-3.75,3.52-3.35,3.81.54,3.23,3.61,3.36,5.88S250.27,497.9,248.69,498.2Zm26.56-38.41c1.91-1,1.88.34,1.73,1.51-.25,2-1.81,2.51-3.51,2.84a3.11,3.11,0,0,1-2.23-3.21C271.69,458.18,274,460.43,275.25,459.79Zm5,41.24c-4.32-1.14-9.7,2.81-13.29-2.85,4-2.7,8.24.14,12.12-1.39a1.81,1.81,0,0,1,2.35,2C281.41,499.68,281.25,501.28,280.28,501Zm96.65,22.46a3.58,3.58,0,0,1-3.83-3.55c-.09-2.22,1.32-3.58,3.52-3.9,4.95-.72,9.89-1.33,10.2,6A27.44,27.44,0,0,1,376.93,523.49Zm6.35-13.82c-4.95.16-7.07-1.5-5.55-6.86.92-3.2,1.83-5,5.23-3.46,3.63,1.64,8.31,3.47,8.51,7.45C391.58,508.94,387.17,511.9,383.28,509.67Zm-5.44-53.39c4-3,5.33,2.67,9.29,1.93-3.8,3.38-6.37,2.46-8.84-.06C377.71,457.55,376.49,457.28,377.84,456.28Zm37.28,80.58c-6.16-.27-9.57-4.39-13.66-8.16-2.74-2.54-5-6.18-9.62-7-3-.54-2-8.23,1.75-10.87,3.34-2.38,7.73-2.79,11.16-5.4.71-.54,5.67-1.07,4.79,3.06C407.34,518.74,413.63,527.08,415.12,536.86Zm80.34,32c-3.26,1.08-3.86-2.38-5.9-3.69,2.44-.46,5.47-2.2,5.82,2C495.43,567.8,495.6,568.84,495.46,568.89ZM510,430.56c-1.15,2-2.34,4.87-5.59,4.67-2.05-.23-2.25-1.42-2-3.1.48-2.85,1.87-4.43,4.91-3.78C508.62,428.62,511.06,428.68,510,430.56Zm-16.43-18.65c1.57-.14,1.4-2.34,1.65-3.71.37-2.1,1.45-3.05,3.52-2.47,2.78.77,5.94.34,8.26,2.37.38.35-.22,2.67-.4,2.67-5.06.12-5.54,9.66-13.78,5.14-.06,0-2.92,1.31-3.17-1.49C489.4,411.46,491.57,412.07,493.58,411.91Zm-8.21-58.7a4.92,4.92,0,0,1,.3,1.72l-5.16-.76C482.72,352,484.05,351,485.37,353.21Zm2,99.75c2.09.48,5.25,2.31,4.74,4.43-.62,2.53-4.2,2.87-6.57,2.32-2.17-.51-4-2.33-6.13-3.64C481.85,453,484.75,452.35,487.41,453Zm-21-203.09c2.39.35,4.35,1.36,4,4-.41,3.12-3.43,2.54-5.28,3.25-2.46-.53-3.65-1.9-3.36-4.12C462.13,250.39,463.84,249.49,466.41,249.87ZM452.84,398.1c4.45,0,8.9-.39,13.34-.29,3.7.09,4.21,3.76,3.92,5.82-.36,2.57-3,4.08-7.28,2-2.08-2.07-6.28-2.16-10.22-3.08-1.19-.28-2.36-.63-2.06-2.3C450.78,398.93,451.24,398.11,452.84,398.1Zm9.64,180.14c-3.81,1.9,1.27,11.29-7.78,8.56-5.73-1.73-2.15-6.54-1.59-7.9C455.14,573.91,459.08,578.09,462.48,578.24ZM450.63,404.42l-2.25,1.71c-.3-2-3.52-1.35-2.67-3.74.15-.42,1.27-1,1.51-.8A41.59,41.59,0,0,1,450.63,404.42Zm-5.56-112.31c.92.43,1.48,1.64,2.21,2.51a14.54,14.54,0,0,0-2.65.7c-1.85.84-1.72-.89-2.49-1.48C443,292.71,443.86,291.55,445.07,292.11ZM442.7,608.44c5.67,2.45,11.59,3.33,17.42,4.86,2.34.61,5.81,1.55,5.36,4.52-.54,3.49-3.6,4.73-7.26,4-2-.39-4.25-1.81-6.16.57,0,2.81,4.76.41,4.37,3.76-8.8,1.43-11.1.46-12.57-7.52-.71-3.83-3.38-1-4.37-2.46-2-3-6.15-1-8.68-4C434,608.3,438.24,606.51,442.7,608.44ZM429.19,487.58c1.38.47,3.7-.31,3.57,2.24-.36,1.41-1.1,3-2.27,2.15s-3.4-1.14-3.38-3.22C427.12,487.52,428.19,487.24,429.19,487.58Zm-3.49,65.93c-2.35,2.44-6.35,3.23-7.23,7.19-4.22-1-10.22-.71-12.28-3.4-4.33-5.66-10.7-7.55-17.16-11.77,5.39-1.72,10.75-.84,13.33-5.85.27-.52,2.86-.33,4.06.21,5.89,2.67,11.77,5.41,17.45,8.5C425.47,549.26,428,551.09,425.7,553.51ZM329.49,369.35c.13,1.54-.74,3.35-2.43,2.24-3.12-2-3.18,3-5.58,2-1.23-.4-3.14,0-2.7-2.35.23-1.18.46-2.23,2.14-2.21s3.73-.67,5.47-.33C327.4,368.89,329.25,366.54,329.49,369.35Zm-8-107.5c2.34.24,4.68,1.41,4.28,4.26A3.67,3.67,0,0,1,321,269c-3.23-1.09-4.9-3.29-4.48-6.29C317.09,258.3,319.58,263.33,321.45,261.85Zm-28.94,236c-1.56-1.09-2.94-1.88-2.49-3.59s1.92-1,3-.74c1.28.31,3.28.5,2.21,2.59C294.76,496.92,293.35,497.29,292.51,497.8Zm10.89-23.36c-2.11-.54-6.4.85-5.73-3.28s3.81-.57,5.86-1c1.78,1.06,5.59-.74,5.35,2.92C308.6,477.36,305.15,474.89,303.4,474.44Zm14.78,42.08c-1.64-.85-4.06.06-3.74-2.8.37-3.29,2.75-1.59,4.37-2,2.95-.67,2.38,2.31,2.47,3C321.72,518.17,319,515.78,318.18,516.52Zm12.55-85.81A25.5,25.5,0,0,1,317.87,397l16.92-37.79a25.5,25.5,0,0,1,33.7-12.85l37.78,16.91A25.51,25.51,0,0,1,419.13,397l-16.92,37.79a25.51,25.51,0,0,1-33.7,12.85ZM338,519.43c3.84-2.76,7.49-5.27,11-7.95,1.72-1.32,3.13-1.74,4.84,0s3.67,3.21,3.17,6a4,4,0,0,1-1,1.5C349.79,515,344.47,525.43,338,519.43Zm19.19,5.65c-1.61-.22-4.57.58-3.91-3Zm-5.42,22.23c4.6,1.78,9.13,3.62,13.73,5.26,1.21.44,2.39.78,2.58,2.1.24,1.76-1.65,1.42-2.48,1.81-3.74,1.73-8,4.78-11.76,2.08C350.3,556.05,348.57,551.7,351.76,547.31ZM357.64,624a21.56,21.56,0,0,1-2.67-2.54c1.1-1.29,2.28-2.17,3.36-1.38a4.27,4.27,0,0,1,1.43,3.05C359.79,624.22,358.56,624.62,357.64,624Z"/><path class="cls-1" d="M720.42,358,576.26,253.39c-1.25,10.05-2.75,23.55-4.11,39.4.93,1.18,1.88,2.65,1.73,3.86a3.44,3.44,0,0,1-2.21,2.51c-1.22,15.18-2.25,32.06-2.83,50.27,1.7.4,2.39,1.41,1.62,3.18a1.65,1.65,0,0,1-1.71,1.17c-.37,13.78-.43,28.07-.1,42.69.2.44.41.88,1.05.8,8.73-1.13,7.93,7.26,11.33,11.37a3.78,3.78,0,0,1-.89,5.21c-1.36,1-3.36.11-4.61-1.07-2.3-2.16-4.49-4.44-6.74-6.66a607.06,607.06,0,0,0,5.31,63.16c3.32-.52,6.41-1.47,9.66-2.15,0-.5.23-1.08.25-1.63.16-3.38,2-3.94,4.85-3.16,1.66.45,3.15.67,2.69,3.06,61.05-15.12,107.55-55.27,131.38-80.22A18.16,18.16,0,0,0,720.42,358ZM593.69,290.59c2.61-5,14.58-8.59,18.69-5.75.9.61,1.54,1.2,1,2.41-.34.62-.62,1.72-1,1.77-5.44.74-6.47,4.69-7.35,9.18-.32,1.64-2.81,3.94-4.15,1.52C598.93,296.19,589.65,298.4,593.69,290.59ZM610.13,371c-.65,2.08-2.35.81-3.62.73-3.37-.19-1.11-3.74-3-4.4.61-2.23,2.07-2.07,2.95-1.49C608.24,367.07,611.14,367.84,610.13,371ZM585.2,301.19c.75.07,1.42,1.26,2,1.86a9.72,9.72,0,0,1-7.85,3.34c-1.2,0-2.36-2.13-1.6-3.39C579.5,300.15,582.57,301,585.2,301.19ZM572.54,341.6a2.66,2.66,0,0,1-.63-2.49c1-1.63,2.85-.86,3.76-.24,3.35,2.27,6.44,4.91,11,8.45C579.34,348.37,576.75,343.29,572.54,341.6ZM591.77,454c-3.68-1.23-4.85.64-4.54,4.5-3.51-4.43-9-7.34-5.11-13.2-3.21-1-6.09,2.93-9-.28-1.65-1.82-.62-3.67-.33-5.52a5.1,5.1,0,0,1,.74-1.85c5.29,1.4,11.13-1.83,15.73.47s5.54,8.29,6.43,13.27C596.11,453.8,594.11,454.76,591.77,454Zm-7.56-39.66c3.4-1.95,5.34-1.83,6.72.16.33.47-.42,1.7-.68,2.59Zm14.16-26.08c-1,1.41-1.67,2.2-3.82,2.2-7.84,0-10.28-6.49-14-11.26-.81-1-1.14-3-2-4.41a6.54,6.54,0,0,1,.3-8.08c1.89-2.3,4.69-3.44,7.44-1.76,5.82,0,6.71,3.43,5.66,7.65-1.39,5.6-1.94,10.44,5.21,12.43C598.16,385.31,599.64,386.4,598.37,388.25ZM601,322.68c-2.45.19-6.53-.53-7.21-2-1.36-3,2.63-4.85,3.89-7.5h-.13l.06-.15c-1.29-.68-3.67,2.29-4-1.1-.15-1.55.12-3.81,2.66-3.29,2.92.6,1.93,2.61,1.32,4.39,0,0,.11,0,.15,0a1.48,1.48,0,0,0-.08.13,20.37,20.37,0,0,1,4-.55c2.38.1,5.43,2.8,4.73,3.41C604.09,318,604.42,322.43,601,322.68Zm24.64,66c-4.71-4.21-10.31-5.11-16.09-5.87-3.59-.47-6.28-2.28-6.25-5.9,0-4.49,3.7-1.11,5.49-1.94,3.75-1.73,7.15.43,10.65,1,3,.45,5.3,1,5.41-3.17,0-1.56.75-3.11,2.55-1.41,3.82,3.59,3.14,9.63,7.39,11.28C633.46,389.86,629.39,392,625.65,388.67Zm.43-58.2c-4.54-.88-8-5.43-6.88-9.74.77-2.92,5.6-2.49,7.49-1,4.78,1.55,9.67,1.13,8.6,7.07C634.3,332.32,629,331,626.08,330.47Zm4.47-25.65c-2.57-.79-6.72-.29-5.83-4.31.21-1,5.82-1.13,8.9-.94,2.21.13,5.35,1.89,4.53,4.09C636.81,307.24,633.24,305.07,630.55,304.82Z"/></svg>