<svg id="Guías" xmlns="http://www.w3.org/2000/svg" viewBox="0 0 850.39 850.39"><defs><style>.cls-1{fill:#fff;}</style></defs><path class="cls-1" d="M640.66,264.43c-30-26.18-66.15-53.76-104.6-74.75a8.63,8.63,0,0,1-1.64,4.84c-2.86,3.83-6.72,2.55-9.93,3.69-2,.71-3.72-3.16-4.87-5.43-.76-1.49-1.79-4.42.82-4.53,2.86-.12,5.06-1.42,7.2-3C481.5,161.5,432.48,147.8,386.88,158s-81.3,43.09-106,97.74a81.55,81.55,0,0,1,8.67,1.26,70.13,70.13,0,0,1,7,1.69l37.64,10.85c.07,0,.05-.07.14-.11,3.49-1.4,3.82-7,8.56-6.29a61.68,61.68,0,0,1,7.27,1.9c3.28.91,8.43.55,8,5.2a5.14,5.14,0,0,1-4.13,5l7.12,2.06c.2-2.81,3.18-2,4.55-2.05,4.45-.28,8.79,1.8,13.52-.49,1.93-.94,3.26,2.11,2.7,4.68a10.1,10.1,0,0,1-1.65,3.37l149.35,43.06a83.93,83.93,0,0,1,57.39,103.89,83.87,83.87,0,0,1-103.9,57.41l-25.91-7.47c7.81,25.29,11.15,59.57-10.23,90.61-16.72,24.27-46.05,42.14-87.43,53.37,1.21.82,1.87,2.46,2.7,3.33,1.75,1.84-.26,4.46-1.2,6.85-2.78-.23-4.27-2.38-5.28-4.21-.78-1.41-2-3.34-.83-4.88a362.59,362.59,0,0,1-40,7.83l-1.88.27-2.59-.55q-1.06-.21-2.1-.45l-.24-.06c64.23,19.72,132.55,20.76,193.62,3.09A104.2,104.2,0,1,0,664.7,512.75c12.43-16.86,31.38-47.5,38.9-85.7C711.87,385.12,707.66,322.86,640.66,264.43Zm-319.57-36a20.88,20.88,0,0,0-7.83,6.43c-.95,1.36-3.31,2.43-4.92.76a9,9,0,0,1-2.3-4.87c-.26-2.26,10.61-10.67,13-10.43a3.87,3.87,0,0,1,3.31,2.41C324.07,225.38,323.45,227.17,321.09,228.44Zm42.63-54.94c1.35-2.7,4.64-1.75,6.8-1.73,3.1,0,6.79,12.55,4.3,14.43-2.76,2.07-5.44,1.1-6.46-2.28-.4-1.3.34-2.95.57-4.51a14.86,14.86,0,0,0-1.93-.68C364.21,178,362.24,176.47,363.72,173.5Zm17.62,54.28c-.6,1.41-3,3.17-4.33,2.95-3.79-.62-8,1.22-11.39-1.83l-.24.3h0a1.18,1.18,0,0,0-.13-.18c-4.75,5.17-9.59,6.74-15,0,5.29-2.68,10.19-8.19,15,0,.08-.09.16-.13.24-.22s.1,0,.14.09c3.2-4,6.14-8.81,12.38-4.65C379.3,225.12,382.4,225.27,381.34,227.78Zm10,41.37c-2,.82-4,.67-4.77-.95-.38-.77.84-3.09,1.89-3.64,2-1,3.23,1.33,4.36,2.36S391.71,268.34,391.37,269.15Zm26.13-72.09c-6.57,4-5.31-5.65-10.1-5.33,4.5-.81,8.92-5.57,12.53-.85C421.52,193,420.07,195.49,417.5,197.06ZM410.05,173c-1.07-.4-1.72-2.47-.47-4.12,1.51-2,17-6.49,18.86-5,1.3,1,3.47,2,2.75,4.37-1,3.14-.37,7.26-5,8.51C420,179.65,415.27,174.91,410.05,173Zm23.79,43c-1.11,3.61-3.53,5.61-6.73,5.21-4.67-.59-3.46-4.16-2.52-7.29a19.47,19.47,0,0,0,.39-3.61c-3.39-.34-1.32-2.35-.86-3.47a1.53,1.53,0,0,1,2.76-.43c.84,1,.51,2.2-.5,3.09C430.14,210.09,436.36,207.71,433.84,215.91Zm11,81.43c-5.61,1.81-6.45-2.91-8.76-7.35,4.27.27,8.68-5.85,11.33,1.32C448.36,294,447.55,296.46,444.81,297.34Zm26.07-10.55c-1.5.86-2.95,1.09-4.21-.37-.86-1-1.44-2.33-.32-3.3,1.76-1.53,3.5-.29,5.14.52C472.25,284.91,472.27,286,470.88,286.79ZM465.43,260c-6.54,1.55-12.36,3.63-17.59,7.14a4,4,0,0,1-6.22-2c-.84-2.2-2.95-5.33.13-7.49,3.37-2.35,6.42-5.34,11.08-5.44,3-.06,6.19-2,9-1.42,4.33.86,9.3-6.5,12.09.27C474.53,252.64,468.34,257,465.43,260Zm26.91,20.78c-1.29,1.35-2.8.23-4.75-.1.4-1.09.48-2.51,1.19-3a2.62,2.62,0,0,1,3.79.79A2.44,2.44,0,0,1,492.34,280.78Zm48.14,40.4c-1.26.85-2.87,1.78-3.67-1,.36-1.24-.53-3.61,2.56-3.27,1.36.15,3.13-1.67,4,.5C544.54,320.07,541.82,320.27,540.48,321.18Zm21.15-1.86c-2.1.29-4.34.36-5.84-1.9.14-1.25,0-3.58,1.69-3.52,2.09.06,5.12-2.13,6.31,1.17C564.3,316.5,564.09,319,561.63,319.32Zm18.91-18.93C574,304.27,569.43,298.7,565,296c-1.57-1-1.29-7.71,2.88-10.17,3-1.79,15.87,1.87,17.23,4.61C586.55,293.41,584.33,298.28,580.54,300.39Zm-148.18,331c-1.66.89-2.53-1-3.25-2.43-1.15-2.26-.8-4.79.94-5.91,1.17-.76,3.35.77,4.13,3A4,4,0,0,1,432.36,631.43Zm70.19-15.86c-.67,0-2-.74-1.95-1.09.07-1.08.31-2.53,1.06-3.14,2-1.63.93,1.66,2.15,1.2C503.89,614.05,504.38,615.51,502.55,615.57ZM644.31,329.31c1.13.85.34,1.72-.28,2.3-1.87,1.77-3.82,2.07-5.8-.44C640.36,329.27,641.89,327.47,644.31,329.31Zm-25.39,99.2c.88.87,2,1.37.64,2.66-3,2.78-5.93,2.49-9.73-.63C613.21,429.06,615.06,424.71,618.92,428.51ZM570,517.4c.65,0,1.29.85,1.69,1.14.39,2.12-.82,2.32-2,2.36a10.75,10.75,0,0,1-2.13-.39C567.87,519.11,568,517.37,570,517.4Zm-19.48,37.69c2.59-1.29,3.29,1,3.6,2.78.64,3.64,1.19,8.74-2.11,10-4.58,1.72-1.36-3.16-1.88-4.33C547.3,560.1,546.29,557.18,550.48,555.09ZM525.21,656c-2.15.76-2.54-1.2-2.87-2.58a2.67,2.67,0,0,1,2-3.47,1.83,1.83,0,0,1,2.31,2C526.13,653.33,527.06,655.35,525.21,656Zm15.91-.67c-1.76,1.07-2.58-.45-3.13-3-.12-.71-.11-2.32,2.07-2.14,1.1.09,2.13,1,3.19,1.5C542.56,653,542.17,654.7,541.12,655.33Zm16.38,9c-3.14,1-6.13.48-6.46-2.94-.43-4.41.88-9.12,5.63-10.54,2.39-.71,7-.93,6.38,4.4C565.56,661,562,662.94,557.5,664.37Zm38.94-2.43c-1.51,1.14-4.44.44-3.87-1.89,1.2-4.93-4-10.78,1.13-14.48,2.51-1.82,4.49,1.95,5.9,7.37A8.7,8.7,0,0,1,596.44,661.94Zm-3-32.07-11.84-35.93-35.93,11.84-6.8-20.62,33.34-11a5.43,5.43,0,0,1-2.12-3.23c-.69-2.79-.55-5.21,1.84-6.37l-9-27.19,20.62-6.79,11.84,35.93,35.93-11.85,6.8,20.62-35.93,11.85L614,623.08Zm53.06-16.45c.26,2.08-3.89,2.94-6.36,3.57-1.62.41-4.71.77-4.24-1.79,1.21-6.65-4.32-11.18-5.12-18.37,4.62,3.89,10.29,1.44,14.29,6.09C648.16,606.56,646.06,610,646.47,613.42Zm2.83-324.23c-1.11.56-2.39,1-3.26-.11-1.45-1.89.36-2.56,1.58-3.28s2.31-.95,3,.57S650.39,288.55,649.3,289.19Z"/><path class="cls-1" d="M523.64,346.74,290.5,279.52c-1.78-.52-3.42-.92-5.07-1.23a62.22,62.22,0,0,0-53.14,107.84l.77.7.87.73c23.34,5.3,56.72,15.09,86.12,32.09l-10.87,18.79c-16.83-9.72-35.29-16.85-52.17-22.11a5.2,5.2,0,0,1-5,4.86c-1.48-2.9-5.35-4.72-5.52-8-15.51-4.31-28.91-7-36.86-8.35-19.86,0-55.13,4.76-64.17,36.85C132.93,486.31,189.76,510,192.18,511l2,.83,1.7,1.7c27.28,9.65,99.4,31.24,181,23.47L379,558.62c-13,1.24-25.76,1.79-38.12,1.79-59.62,0-110.31-12.72-139.28-22,6.77,20.54,30.36,55.1,111.51,72.23l.39.09.37.09c2.76-.4,5.26-.92,7.93-1.35-4.9-8-2.4-12.78,8.29-13.2-4.8,3.58-5.41,6.52-.74,10a7.67,7.67,0,0,1,1.54,1.64c48.62-9.21,81.72-25.93,98.26-49.93,22.06-32,9.63-70.25.26-90.18l-10.21-21.69,70,20.19a62.17,62.17,0,0,0,77-42.57h0A62.28,62.28,0,0,0,523.64,346.74Zm-213.92-5.11-7.85,17.54a16,16,0,0,1-21.11,8.05l-17.54-7.85a16,16,0,0,1-8.05-21.1L263,320.72a16,16,0,0,1,21.11-8.05l17.54,7.86A16,16,0,0,1,309.72,341.63Zm53.63,8.82c-1.08.94-2.21.29-3-.84-1-1.39-1.37-2.93.47-3.67a3.64,3.64,0,0,1,3.25.71C365.33,347.92,364.45,349.51,363.35,350.45Zm82-10.71c.95-1.38,4-.39,4.18,1.34.2,2.07,2.11,5.11-.8,6.46-1.95.91-4.2-.14-5.49-2.67C441.3,342.45,444.39,341.11,445.32,339.74Zm-18.51,99c-5.57.23-11.27,6.48-16.8.58-3.75-4,1.29-8.08,2.54-8.21,4.36-.48,9.94-6,13.49,1.91C426.38,434.87,430,438.62,426.81,438.76Zm38.38-48.91-10.94,24.43a22.15,22.15,0,0,1-2,2.86,4,4,0,0,1,3,2.71c.18.5-1.94,2.29-3.26,2.79a3.44,3.44,0,0,1-3.12.08,5.67,5.67,0,0,1-1.1,2.91c-.47.53-1.14.47-1.76.58.57,2.92-2.29,3.29-3.89,4.29-2.6,1.62-5.45,1.84-7.19-1.37a3.26,3.26,0,0,1-.4-1.57,22.37,22.37,0,0,1-10.53-1.71L399.5,414.91a23,23,0,0,1-11.57-30.33l10.94-24.42a22.94,22.94,0,0,1,30.32-11.57l24.43,10.93A23,23,0,0,1,465.19,389.85Zm22.22-6.34c-1.28-2.26-.73-5.09,1.35-5.36,8.14-1,6.79,7.24,10.52,10.8C491.83,393.73,489.94,388,487.41,383.51Zm39.69,11c-.89-1.87,1.49-5,4-6.38s5.39-2.43,7.47.64c2.88,4.27-2,4.08-3.35,5.68C532.32,396.2,528.93,398.25,527.1,394.47Zm14,22.93c-2.09.89-4,3.64-6.53,1.27-1.7-1.58-1-3.19.7-4.61,2.44-2,5.22-.94,7.87-1.23C543.19,414.74,543.09,416.54,541.08,417.4Z"/></svg>