<svg id="Guías" xmlns="http://www.w3.org/2000/svg" viewBox="0 0 850.39 850.39"><defs><style>.cls-1,.cls-2{fill:#fff;}.cls-1{fill-rule:evenodd;}</style></defs><path class="cls-1" d="M373.85,617.28c-1-5.21-2.23-10.07-3.34-15.11l0,0c-3.28-4.4-6.29-.85-9.39-.5,0,.15,0,.3,0,.45H361c7.43,9.75,7.48,10.45-4.54,13.58-6,1.57-10.59,4.79-16.43,10.18,1.22-11.17-1.26-20.44,4.38-29.08,1.34-2.06,2.11-2.93,4.24-2.95s4.42.29,4.18,3.13c-.62,7.28,4.65,4.74,8.17,5.14-.11-.15-.14-.21-.26-.37.12,0,.24-.08.36-.09-.24-4.47,1.67-9.25-2.05-13.21s-2-8.29-1.19-12.54c.11-.57,1.11-2.52,3-1.53,4.25,2.16,4.32,6.36,4.65,12.47a19.73,19.73,0,0,0,.92-2.87c-14.16-55.14-35.24-99.63-60.32-135.49-5.06-7.25-10.31-14.16-15.67-20.72s-10.62-12.5-16.11-18.28c-43.32-45.7-93.43-72.45-139-88h0c-10.41-3.57-20.27-1.42-26,1.79-2.7,1.49-10.84,6.91-3.1,13.92,74.46,67.35,103.36,166.75,113.86,247.66a669.58,669.58,0,0,1,4.43,123.08c3.35,0,7.11,0,11.28,0l34.85.15,21.92.08c2.92-4.62,7.3-6.48,13.22-4.86,3.35.92,8.84-1,9.23,4.23,0,.27-.14.46-.16.71l5.37,0,38.73-.13c-1.47-1.23-2.85-2.79-1.74-4.21,5.91-7.61-1.25-11-4.86-15.09a6.06,6.06,0,0,1-1.41-5.42c1.12-9.49,2.5-18.95,3.84-28.42.18-1.25.15-3.38,1.78-3.14,6.47.93,12.75,1.71,18.84-1.85,1-.6,2,1.49,2.34,3.57-1.06,1.48-3.7,3.48-3.53,5.21.52,5.25-2.74,9.66-1.19,15.51,3.26,12.24-6.14,22.09-9,33.28-.05.22-.35.34-.48.54l4.34,0a27.81,27.81,0,0,0,10.13-3.2c4-2.32,6.13-5.34,5.91-8.55a660.81,660.81,0,0,0-9-73A17.43,17.43,0,0,1,373.85,617.28ZM243.07,513.49c3.48-7.61,9.32-8.54,15.39-10.41,2.35-.73,4.49,1.35,3.35,3.52-2.75,5.25.37,13.59-10,15.56,7.65,3,11.34,8,14,13.23,1.44,2.84,5.9,7.8-2.31,10.27-6.71,2-4.2,8.85-2.28,12.64,2.06,4.08.86,6.74-1.79,7.91-5.09,2.25-3.18-2.59-3.49-4.67s-1.31-2.59-3.28-2.88c-8.07-1.2-11-6.71-9-13.8C246.73,534.27,238,524.58,243.07,513.49Zm23.15,125.73c-.22,4.81-2.88,4.12-5.2,4,.58-5.71-6.16-8.79-5.23-14.73.36-2.37,1-3.79,3.62-3.68,2.28.1,2.92,1.52,2.62,3.37C261.25,633,265.2,636.16,266.22,639.22Zm-24.83-18c.2-6.44,5.54-11.74,9.33-12.81,5.42-1.52,1.75,5.48,2.62,7.13,1.72,7.74-1.22,10.73-7.46,11.43C240.93,627.5,241.29,624.39,241.39,621.19Zm29.11,61c3.3,3.33,3,8.14,3.64,12.1,1.15,7-5.2,4.07-8.14,4.81-7.19.3-13.69-1.31-14.29-8.75-.81-10,5.88-17.36,14.11-17,1.65.07,2.27.33,2.37-1.28.23-3.82,2.23-5.42,5.12-2.75s.53,5.49-2.06,6.45C266.12,677.74,268,679.73,270.5,682.24Zm15.89-142.32c-7.43,3-16-2.73-16.09-11.59-1.72-4.29,2.41-7.3,4.17-11.15,1.17-2.55,4.78-2,4.84-1.47.81,7.75,7,6.69,12,8.44C295.06,525.46,291.09,538,286.39,539.92ZM295,563.23c.38-2-.18-4.19,2.79-4.5,2.63-.28,3.71.81,3.59,3.43-.13,2.81,1.54,4.34,4,5.16,6.42,2,12.44,2.62,16.31-4.53-4.44-3.21-7.18-8.26-10.42-12.27s-5.33-13.4,3.94-16.12c5.09-1.5,4.67-11.11,9.67-7.89,4.05,2.6-4.09,10.32-2.35,12.16,5.95,6.32-4.71,17.52,6.94,21.27.1,0,1.1,2.43-.63,2.17-.89-.13-1.56-2.05-3.2-1.38,1.66,5.11-.56,9.14-4.54,12.76,3.76,3,11.46.38,10.4,6.62s-1.44,13.7-10.4,16.16c-5.64,1.55-9.77,2.67-14.35-2.12-7.38-7.73-7.49-16-3.44-25.09C301.71,565.52,293.36,571.64,295,563.23Zm28.1,50.56a3.29,3.29,0,0,1-3.6,2.64c-1.82-.25-1.64-1.74-1.68-3,0-1.74.24-3.33,3.35-2.83C321.7,611.42,323.31,612.79,323.1,613.79Zm-11.71,64.72c-3.29-.41-4.09,1.19-3.92,4.12.19,3.46-.11,7.73-4.18,7.86-2.66.08-3.08-4.36-4.4-6.88-1-1.87-1.91-3.55-1.72-5.69-.48-5.66,3.59-8.62,7.34-11.38,2.45-1.82,5.81-1.3,8.44.2,3.09,1.75,2.75,5,2.87,8.11C316,678.34,314,678.85,311.39,678.51Zm6.11-39.71c-.78-3.07.15-5.65,3.43-7.14,1.25,2.24,3.65,4.64.24,7.15C320.34,639.43,317.58,639.13,317.5,638.8Zm9.48,16c-2.39-1.42-4.86-2.6-5.05-5.74-.18-2.86,0-5.39,3.91-5.49,2.69-.07,4.34.34,4.5,3.65S328.73,652.49,327,654.76Zm8.19-7.21c-5.46-1.1-2.6-6.54-4.64-9.58-1.07-1.58,1-3.39,2.87-4.25,3.19,2.74,5.63,5.68,5.19,10.29C338.37,646.39,337.87,648.09,335.17,647.55Z"/><path class="cls-2" d="M366.46,584v0c-14.15-55.13-35.24-99.62-60.32-135.47C331.22,484.34,352.3,528.83,366.46,584Z"/><path class="cls-2" d="M374.92,623.39a660.81,660.81,0,0,1,9,73,657.84,657.84,0,0,0-8.95-72.92A.43.43,0,0,0,374.92,623.39Z"/><path class="cls-2" d="M363.24,708.42a43,43,0,0,0,4.6-.31l-4.34,0A3.4,3.4,0,0,1,363.24,708.42Z"/><path class="cls-2" d="M359,708.15l-38.73.13,39,.15C359.13,708.34,359.06,708.23,359,708.15Z"/><path class="cls-2" d="M292.56,708.18l-21.92-.08a40,40,0,0,0,5.07.34h.13l16.57-.06C292.46,708.3,292.52,708.25,292.56,708.18Z"/><path class="cls-2" d="M314.84,708.3l5.38,0-5.37,0S314.84,708.28,314.84,708.3Z"/><path class="cls-2" d="M370.52,602.18h0c1.11,5,2.34,9.9,3.34,15.11v0C372.85,612.05,371.63,607.21,370.52,602.18Z"/><path class="cls-1" d="M741.08,323.25a31.47,31.47,0,0,0-15-3.63,34,34,0,0,0-11.06,1.84c-45.57,15.57-95.63,42.29-138.92,87.93a338.64,338.64,0,0,0-36.58,46,387.68,387.68,0,0,0-37.46,72.27C483.8,573.9,471,629.5,466.52,696.36c-.22,3.21,1.88,6.23,5.89,8.55a26.53,26.53,0,0,0,7.5,2.77,37,37,0,0,0,7.59.76l32.22-.13,23.79-.07,58.11-.22a6.64,6.64,0,0,1,5.12-2.49c1.81-.15,4.78,0,3.53,2.45l15.62-.07c-3.38-55-6.46-257.88,118.29-370.74C751.92,330.16,743.75,324.74,741.08,323.25ZM496.79,632.63c-9.2-2.86.7-10-2.72-14.54-.57-.75,2.28-3.5,6-2.35,4.15,1.26,15.61-14.67,13.65-18.42-1.44-2.76-4.38-2.59-5.7-.13-2.55,4.76-8.62,3.5-9.18,2.14-1.33-3.26-4.85-6.57-2.44-11a42.25,42.25,0,0,0,5.52-21.2c-.07-5,3.65-9,9.19-10.1,2.29-.43,5.22-1.38,6.63.89.89,1.45.91,4.85-.13,5.86-5.42,5.19-2.12,10.87-.35,15.45,4.31,11.13,4.91,21.71-1.41,32-1.81,2.94-3.25,6.79-1.24,8.41,11.4,9.23,1.4,17.17-1.5,25-1.25,3.35-4.2,6.21-3.09,10.13,1,3.58-2.13,4-3.69,4.77-2.35,1.17-4.71.45-4.81-3.08,0-.94-.45-2.49-1.05-2.69C485.93,648.94,492.94,640.52,496.79,632.63Zm20.62,74.29c-3.46,1.37-3.85-2.74-5.68-4.44-3.89-3.61-3.71-12.19-12.88-10-2,.48-1.82-4.43.55-6.41,4.08-3.42,8.32-6.65,13.52-10.76,2.72,8.83,5.19,16.12,7.16,23.54C520.86,701.79,520.77,705.6,517.41,706.92Zm6-26.46c-5.2.59-8.15-3.74-7.44-9.63.6-4.85.63-10.42,7-10.7,5.84-.26,5.42,4.84,5.55,9.73C527.07,673.11,529.15,679.82,523.43,680.46Zm96.83-99a9.15,9.15,0,0,1-8,10.41c-6,.75-17.28-8.91-17.34-14.33,0-3.69,5.32-7.79,11.54-8.09C610.91,573,618.83,574.49,620.26,581.42Zm-29.11-56.91a6.37,6.37,0,0,1,5.62-3.56c3.43-.22,2,3.35,2.84,4.92,2.11,4.16,7.19,7.82,3.49,14.26-3.69-3.17-6.89-5.78-9.93-8.57C591.13,529.7,589.47,527.73,591.15,524.51Zm-16.46,64c1.6-4.63,1.14-12.54,7.65-12.51,3.95,0,4.19,6.57,3.9,11.19.27,3.58.84,7.35-5.3,6.73C577.12,593.59,573.31,592.55,574.69,588.56Zm-21.3-104.44c-2.81-1.14-3.66-3.85-4.12-6.08s-1.49-5.66,3-6.09c4.15-.4,3.71,3.59,4.63,5.45C558.08,479.88,555.14,482,553.39,484.12ZM579.91,656.6c-3.38,3.93-7.53,4.65-10.18.69s-2.85-9.92,2.32-12.25c6.2-2.8,8.7-7.64,9.83-13.33.77-3.87,1.62-5.85,5.68-4.05,3.71,1.63,7.06,4.18,4,8.43-3.29,4.51-3.6,7.38.06,12.34,3.26,4.41-.33,7.09-4.66,6.5C583,652.56,581.24,655,579.91,656.6Zm26.88,35.53c1.5,8.42-4.35,10.52-10,11-7.44.59-6.33-6.92-6.92-10.87-.47-3.21.66-10.16,6.1-9.12C600.26,683.93,609.66,682.13,606.79,692.13Zm14.6-42.85a24.17,24.17,0,0,1-.72,6c-.4,1.31-3.76,2.86-3.78,2.47-.53-8.06-7.92-5-10.93-7.46-3.24-2.65-1.88-10.32-.3-15.55.84-2.76,4.59-2.28,6.34-1.35,4,2.13,10.33,2.54,9.41,9.67C621.24,644.4,621.39,645.79,621.39,649.28Zm-7.63-31c-2.35,1.21-4.59-1.74-4.55-4.15.1-5.63,6-7.9,8.39-12.41.29-.55,6.29,1.75,5.86,6.35C623.8,614.83,618,616.17,613.76,618.32Z"/><path class="cls-2" d="M695.57,146.87c-1.75-1.33-7.33-4.92-16.35-4.92a38.22,38.22,0,0,0-7.86.86c-78.66,16.66-147.61,47.55-205.94,91.89,0,.48.42.63.15,1.4-1.12.89-2,3.19-4.17,1.85a467.69,467.69,0,0,0-47.08,41.67q-53.61,54.7-89.57,127.22c32.3,36.7,60.14,83.84,79.6,143.56a11.64,11.64,0,0,1,5.81.3c5.06,1.45,1.94,4.4.86,7.15-.51,1.28.3,4.5.7,4.54,16.23,1.38,1,17.42,10.3,22.4.73.39-3.27,2.75-6.88,3.71.81,3.35,1.74,6.51,2.5,9.92,3.34.74,6.09,3.25,8.31,6.5,2.93,4.28,1.95,9.92-4.31,9.3-.32,0-.6,0-.92,0,1.56,8,3.21,16,4.48,24.37,9.75-64.38,28.2-117,51.73-160.62-6.37-1.95-14.18-5.26-14.69-7-.56-2-2-4.53.37-6.35,3.24-2.46,5.58-7,11.17-4.94.36.06.54.29.88.38a6.39,6.39,0,0,1,.23-3.1c.75-2.44-2.19-6.71,2.36-7.46,5.21-.86,2.56,4.22,4,6.21a34.22,34.22,0,0,1,3.84,7.55c2.06-3.46,4.35-6.47,6.47-9.81a5.74,5.74,0,0,1-1.29-3.59c-.11-3.12,3-4.54,6.55-4.4,10.27-15.41,21-30,32.51-42.69,28.34-90.46,78.46-180.88,165.93-242.15C704.11,154.4,697.73,148.53,695.57,146.87ZM443.76,486.69c-.62-3.64,1.11-4.82,4.64-4.4,4,.48,3.22,2.52,1.89,4.9.83,3.06.69,5.5-3.43,5.47C442.09,492.62,444.15,489,443.76,486.69ZM365.65,421.2c-.49-1,.27-3.78,1-4,4.24-1.31,5.79,2.4,11.06,5.75C371.13,423.6,367.59,425.11,365.65,421.2Zm25.79-44.77c-.32,2-1.38,5.72-4.07,4-7-4.57-14.8-.46-23.36-3,6.66-3.39,6.58-11,13.8-13.32,5.63-1.8,8.58,2.26,12.63,3.41C392.93,368.19,391.91,373.32,391.44,376.43Zm16.73,121c-1.74,1-4.36-1.36-4.76-3-1.19-4.66,1.19-8,7.28-11.47C409.56,489,413.74,494.13,408.17,497.41Zm-6.54-54.47c-.87-3.73,4.37-4.17,11.21-3.17a10.75,10.75,0,0,1,8.71,7.93c.58,2.26-1.63,5.25-4,3.49C412.51,447.46,403.39,450.5,401.63,442.94Zm21.59,30.6c4.87,3.88,8.48,7.47,4.85,12.6-1.72,2.43-6.89,3.2-8.21,1.61C415.61,482.61,421.64,479.15,423.22,473.54Zm9,91.16c-5.08.94-1.54-4.86-3.88-7.18-2.57,2.11,1.6,8-4.71,7.43-4-.32-2.24-3.5-2.73-5.46-1.47-5.82,3.51-4.65,6.3-5.3,3-.7,6.39,1.51,9.76-1.28C434.46,557,438.39,563.55,432.21,564.7Zm20.18-58.42c-1.27,2.2-2.78,4.5-2.51,7.54.31,3.44,1.44,7.76-4.08,8.62-5.1.8-4.05-4.66-6.56-6.46-2.08-1.5-1.55-3.6-1.66-5.59-.48-4.94,2.11-8.8,5.65-11.26,2.26-1.57,5.64-4.54,9.12-1.05C455.14,500.88,454.11,503.29,452.39,506.28ZM507.86,317c2.12.21,3.74,1,4,3.4.14,1.62-.22,3.37-2.05,3.54-2.86.27-3.72-2.23-4.79-4.21C505.13,317.86,505.88,316.76,507.86,317ZM482,307.59c2.26-.43,3,1.78,4.69,3.51-1.18.81-2.28,2.18-3.34,2.15a3.22,3.22,0,0,1-3.23-3.51A3,3,0,0,1,482,307.59Zm20,115.87a24.64,24.64,0,0,0-3,3.35c3.16,2.78-.36,3.31-1.63,4.11a1.88,1.88,0,0,1-3.07-1.55c-.1-1.66,1.06-2.57,2.72-2.75-3.29-3.38-11.25-5.46-2.84-11.89,3.7-2.83,7.58-3.09,10.5-.39C509,418.27,505.2,421,502,423.46Zm14.19-56.34c-5.07-.05-10.28.76-15-2.48-3.07-2.1-7.63-2.46-10-5-3.73-4-14-.13-12-8.94.48-2.05,9.85-2,14.91-2.91,7.68,3.13,15,5.21,22.79,5.45,4,.12,5.58,3.54,4.82,6.47S520.86,367.17,516.21,367.12Zm28.93-28.39c-4.1-3.34-12.92-.36-10.43-9.46.93-3.39,3.52-5.3,6.91-4.22C548.55,327.26,546,332.6,545.14,338.73Zm15.51-130.81c-.34,3.19-2.93,5.64-5.21,4.42-8.92-4.79-1.62-12.15-2.82-18.41C563.54,194.48,561.32,201.61,560.65,207.92Zm10.87,74.17c-1.94.71-4.3-2.48-3.23-4.34,1.28-2.22,1.55-6.65,5.44-5.92,2.61.49,4.12,3.15,3.6,6.62C577.51,282.25,573.44,281.38,571.52,282.09ZM605.75,246c-1.57-.59-2.68-2.41-3.77-3.47.33-2.1.79-4,2.75-3.16a7.6,7.6,0,0,1,3.77,3.91C609,244.53,607.47,246.64,605.75,246Z"/></svg>