<svg id="Guías" xmlns="http://www.w3.org/2000/svg" viewBox="0 0 850.39 850.39"><defs><style>.cls-1{fill:#fff;}</style></defs><path class="cls-1" d="M357,611.43c-3.06,7.81-8.15,11.59-13.52,14.3-2.9,1.47-8,6-10.49-2.35-2.07-6.86-9.05-4.29-12.92-2.34-4.18,2.11-6.89.89-8.09-1.82-2.3-5.2,2.65-3.25,4.78-3.57s2.64-1.34,2.94-3.36c1.22-8.24,6.85-11.29,14.11-9.18,10.81,3.16,20.73-5.77,32-.59a15.12,15.12,0,0,1,6,4.81,714.92,714.92,0,0,1,45.06-136.42L423.53,456H302.25c.18,1,.38,2,.52,3,.76,5.56-1.3,7.84-7.31,6.83-6.94.31-7.46-6.21-7-9.86H158.88l-2.82,6.18A735.55,735.55,0,0,0,108.5,603l-21,92.21H229.67c1.89-3.08,6.25-1.44,9-3.25,1.61-1.08,3.46,1.07,4.34,2.94-.11.13-.24.19-.35.31H356.18L363.82,648c1.5-9.2,3.53-18.3,5.38-27.43C364.24,619.67,358.58,619.86,357,611.43ZM290.66,567c4.21-.44,3.88,3.29,4.78,5.4,1.44,3.37-1.86,2.59-1.92,2.61-5.93,1.68-5.93-2.14-6.46-4.31C286.59,568.72,288.22,567.22,290.66,567Zm-75-78.12.36-.36c0,.14.11.2.15.34,8.33-1.16,14.72,1.25,17.88,10.59-8.43.06-15.65-.95-17.88-10.59C216,488.85,215.89,488.82,215.71,488.85ZM229.2,691.72c-3.35.15-5.42-1.65-7.74-3.44,1.45-2.43,2.65-5,5.86-5.16,2.92-.18,5.51,0,5.62,4C233,689.87,232.59,691.56,229.2,691.72Zm8.55-9.37c-.62-.85-.32-3.67,0-3.75,3.14-.8,5.77.15,7.3,3.51C242.78,683.38,240.33,685.83,237.75,682.35Zm10.83-60.45c-4.92-.79-8.11,3.25-11.24,4.29-4.91-.23-4.22-3-4.13-5.32,5.84.6,9-6.3,15.06-5.35,2.42.38,3.87,1,3.75,3.71C251.92,621.56,250.47,622.21,248.58,621.9Zm14.75,62.42a3.36,3.36,0,0,1-2.7-3.68c.26-1.86,1.78-1.68,3-1.71,1.78,0,3.4.24,2.9,3.42C265.76,682.89,264.35,684.54,263.33,684.32ZM261.57,613c-7.91,1.76-11-1.25-11.68-7.62-.57-5.07,2.61-4.7,5.87-4.6,6.59.21,12,5.67,13.1,9.54C270.41,615.89,263.25,612.14,261.57,613Zm91,73.17c-2.66,4.13-10.55-4.18-12.43-2.41-6.46,6.08-17.91-4.82-21.74,7.09,0,.11-2.48,1.12-2.22-.64.14-.91,2.1-1.59,1.42-3.27-5.23,1.69-9.35-.58-13.05-4.64-3.09,3.84-.39,11.71-6.77,10.63s-14-1.47-16.51-10.64c-1.58-5.76-2.73-10,2.16-14.66,7.9-7.55,16.38-7.65,25.65-3.51,3.62-1.68-2.64-10.22,6-8.54,2,.39,4.28-.18,4.6,2.85.29,2.69-.83,3.79-3.51,3.67-2.87-.13-4.44,1.58-5.27,4.13-2.08,6.56-2.68,12.71,4.62,16.67,3.29-4.53,8.45-7.33,12.55-10.65s13.69-5.45,16.48,4C346,681.5,355.83,681.08,352.54,686.19Zm11-46.63c-7.91.84-6.83,7.13-8.62,12.27-1.34,3.83-14.17-.22-16.12-5-3.09-7.59,2.79-16.33,11.85-16.44,4.38-1.76,7.45,2.46,11.39,4.26C364.68,635.81,364.09,639.51,363.57,639.56Z"/><path class="cls-1" d="M454.4,339.87c-.67,2.58-2.67,1.82-3.36,1.59-3.08-.31-5.65.1-6.45-1.59H210.81l-3.08,5.07c-10.34,17-20.15,34.7-29.12,52.61l-7.68,15.3H366.72c.52-1.38,1.3-2.69,1-3.08-6.28-8.82,4.7-14.67,3.57-23.12-.69-5.1,7.79-7.64,13.44-9.2,4.86-1.33,3.17,3.83,4.84,5.7,5.6,6.24-3.22,3.16-4.22,6.19,7.43,2,10.9,6.22,10.23,13.46-.29,3.07-1.33,5.85-4.77,5.68-4-.21-6.41,1.88-8.57,4.37H436l2.9-5.89c8.75-17.69,18.1-34.89,27.83-51.09l9.59-16ZM244.74,384.25c-4,1.2-8.36,1.15-12.59,1.56-6.83-.87-13.64-1.52-20.36-2.71-2.19-.39-5.45-2.5-3.2-4.86,1.66-1.75-1-5.58,4.56-5.92C224,371.66,234.42,368,245,374.6a7.8,7.8,0,0,1,3.91,4.5C251.17,384.24,245.78,383.94,244.74,384.25Zm15.83,11.88c-3.17.22-6.92-1.24-6.76-3.77.22-3.54,3.76-5.15,7.74-4.77,3,.3,5.23.74,5.36,4.57C267.11,397.54,263.25,395.75,260.57,396.13Zm153.68,10.55c-1.75.12-3.43,0-3.92-1.93.75-2.6,2.28-3.94,4.51-4.2,2.52-.29,4,1,4,3.58C418.77,407.47,416.15,406.55,414.25,406.68Z"/><path class="cls-1" d="M365.33,170.77c9.18.35,14.5,8.77,23.07,10.74,3.9.9,3.52,5.85,2.79,9.19-1.17,5.42-6,1.08-8.36,3.12-8.59-1.09-16.6-3.79-25-2.59-1.18.17-3.28-.45-3.65-1.29-2.63-5.92-.25-12.22.06-18.16a144.84,144.84,0,0,0-17.64,11c.58,1.14,1.09,2.32,1.56,3.38,2.19,5-3.48,10.22.06,15.56.58.87-1.38,2.13-2.75,2-2.23,0-7.86-5-12.24-10-2,1.84-4,3.69-5.84,5.65a21.52,21.52,0,0,1,.15,2.38c0,3.06-1.06,4.37-4.23,4.44-.71,0-1.38,0-2,0-.92,1.08-1.93,2-2.82,3.14l-33.88,42.29a35.36,35.36,0,0,1,11.15,3.77c5.46,3,15.91,1.19,16.9,11.5.32,3.31-.71,5.86-3.74,6.62a184.7,184.7,0,0,1-21.05,4.28c-8.71,1.12-6.62-9.26-13.28-12.78,1.89,5.5-1,8.46-3.82,11.71-3.38,4-5.74,4.83-8.6,3.25-4.26,5.58-8.54,11.32-12.9,17.4l-12.06,16.73H493.82l3.17-4.45c13.42-18.91,27.83-37.25,42.81-54.52l86.68-99.89H421.09a143.89,143.89,0,0,0-64,15C359.48,170.09,362.9,170.68,365.33,170.77ZM380,283.47c-3.71,6-4,18-17.09,12.15-1.68-.75-4.94,3.66-5.61,7.69-.54,3.18-2.05,8.2-7.31,5.94-3.61-1.55-9.15-2.22-5.6-9.4,2.26-4.58-8.84-13.78-14.64-12.52-2.94.64-6.23,3.06-7.79-1.28-1.66-4.6,3.32-4.77,5.5-5.76,7.8-3.55,13.56-10.33,24-10.05,9.54.26,12.93,3.12,12.78,13.25,4.8-3.09,5-7.8,9.94-7.91C380.83,275.41,383,278.57,380,283.47ZM524.55,164.05c2-.51,4.15-.12,6.09-.12,4.21-2,6.79-.89,9,3.18,1.64,3.08,4.4,5.15,8.52,2.94,2.12-1.14,2.94.72,2,2.28-1.2,2.08,1.52,6.2-3.28,6.38-3.46.13-7.35.63-9.71-2.18-3.59-4.28-6.2-9.54-13.35-7-.62.22-2-1.66-3-2.57C522,166,523.14,164.42,524.55,164.05ZM506,217.82c-.29-.13-.24-2.18.17-2.41,2.51-1.44,5.08-1.3,8.53,1C511.45,219.79,508.68,219.1,506,217.82Zm2.5-61.73c1.19-1.37,5.29.94,5,3.3a7.73,7.73,0,0,1-6.75,6.55,4.51,4.51,0,0,1-5.38-3.47C500.3,155.24,506.33,158.55,508.47,156.09ZM412,277.86c-3.62-.48-6.12-2.36-7-5.2,1.06-3.65,2-5.86,5.79-5.46,4.5.48,5.87,2.75,5.9,6.87C416.69,277.55,414.81,278.24,412,277.86Zm11.12-45.44c0-3,2.07-3.11,4.21-3.13s4.37-.25,4.18,3c-.31,2.54-1.82,3.51-4.28,3.4C425.07,235.56,423.11,235.44,423.14,232.42Zm4,43.41c4.44-4.72,9.78-4.63,15.25-4.06,0-.08-.1-.15-.12-.23h0c.07,0,.12,0,.19,0-.31-1.44-3.14-3.11.37-4.11,1-.27,3.19.55,3.26,1.08.37,2.67-1.59,3-3.63,3,0,.09.11.19.11.28h-.17c.88,3.36,7.08,6.67,2.95,9.25C438.83,285.07,432.47,281.12,427.11,275.83Zm15-55.46c-.34-2.57,1.11-3.35,3.58-3.81,4.52-.82,4.77,2.59,6,5.22,1.61,3.43-1,3.13-2.94,3.38C445.2,225.38,442.6,224.2,442.1,220.37Zm13.1,88.95c-4.54.62-7.66-1.24-9.67-7.68,4.37,2.68,9-.83,11.15,4.38C457.25,307.38,456.69,309.12,455.2,309.32Zm37.15-19.62c1.14,1.15-.58,3.44-2,4.11-4.54,2.09-5.48-1.94-7.76-4.72C486.32,288.43,489.77,287.09,492.35,289.7Zm-14.44-73c0,1.19,0,1.54,0,1.88-.38,3.24-3.06,1.77-4.76,2.42-5.53,2.11-10.63,12.38-16.69.63-.46-.9-1.66-1.77-1.56-2.54.39-3.27,3.36-5.78,5.61-4.27C466.13,218.57,474,205.93,477.91,216.68Zm-34.83-52c4.63,1.61,9,3.26,13-1.88a4.26,4.26,0,0,1,6.49.05,5.37,5.37,0,0,1-.52,6.8c-7.78,7.86-23.09,5.83-31-4.83C435.64,163.54,439.36,163.43,443.08,164.73ZM408.6,172c10.84-9.33,16.15-3.49,20.48,6.49.37-2,.74-4.94,3.4-3.27,2.26,1.41,1.72,4.17-.82,5.83-2.59,8.24-6.33,11.62-13,3.19-2.14-2.68-5.29-1.41-7.76-1.14-5.07.55-5.53-3.54-6.6-6.28C402.83,173.12,406.81,173.51,408.6,172Z"/><path class="cls-1" d="M493,393.23,482.86,393l-.6,10.13a117.09,117.09,0,0,0,114.3,124.31l10.17.23.6-10.16A117.07,117.07,0,0,0,493,393.23Zm58.64,71.43c-5.2,1.12-10.16-3.53-15.62-1.26-.37-1.25-1.3-2.64-1-3.71,2-7.78,10-5.76,15.1-8.29s5.29,4.63,7.81,7C557.51,462.47,554.48,464.05,551.67,464.66Zm14.16,44c3.67-4.73,7.54-1.88,10.87-1.6C573.49,510.84,570.15,510.69,565.83,508.62Zm12.84-43.17c.77,3.26-3.67,1.63-5.55,2.7.13,5.12-4.7,5.06-6.17,3.53-3-3.12-4.82-7.52-6.54-11.64-.81-1.94,1.18-2.36,3.05-2.85,6.27-1.66,5.47,3.89,7.32,6.74C573.56,464.13,577.76,461.63,578.67,465.45Z"/><path class="cls-1" d="M754.72,305.38a179.14,179.14,0,0,0-254.57,43.78l-5.69,8.41,8.19,6a177.49,177.49,0,0,0,105.77,35,182.22,182.22,0,0,0,30.84-2.65,177.76,177.76,0,0,0,118-76.1l5.69-8.42Zm-158.57,78c-7.34.27-7.42-4.32-8.46-8.2-1.26-4.75,3.45-5.71,5.38-5.94,6.75-.83,5.07,6.2,6.9,9.59C601.36,381.44,597.72,383.24,596.15,383.4Z"/></svg>