<svg id="Guías" xmlns="http://www.w3.org/2000/svg" viewBox="0 0 850.39 850.39"><defs><style>.cls-1{fill:#fff;}</style></defs><path class="cls-1" d="M660.5,214.32,653,206.45l-69.55,66.1a199.49,199.49,0,0,0-53.24-164.07l-7.48-7.87L392,224.89c-67.28-6-119.79,28.67-152.21,100.42-2.54-.24-5.1-.36-7.64-.36A84,84,0,0,0,172,467.34c-2.25,4.74-6.08,11.66-7.61,14.44S162,486,161.52,487c-6.5,13.8-11.05,28.69-14.27,40.11A325.28,325.28,0,0,0,135,610.43l0,1.21c-.4,24.44-1.07,65.34,19.69,86.44,8.49,8.63,19.44,13,32.55,13,13.46,0,26.12-6.27,35.68-17.13A86.56,86.56,0,0,0,329.05,746c16.47-21,53.55-77.73,42.8-108.55l20.5-7.15c9.13,26.2-3.58,59.87-18.2,86.57C434,716,488,696.32,522.26,663.49a1.54,1.54,0,0,1-.5-1.94c.87-1.76,2.27-2.79,4.42-2,.06,0,.07.06.12.09.71-.74,1.56-1.39,2.25-2.13,26.69-29,39.09-66,36.93-110.12a192.79,192.79,0,0,0,22.77-7.49c-2.2,0-4.46.91-5.94-1.71-1.15-2,.21-3.53.88-5.17a4.94,4.94,0,0,1,1.08-1.53c4.6,2.45,10.7.8,14.49,3.9,19.78-9.15,43.16-23.8,63.33-47.37a199.86,199.86,0,0,0-1.59-273.72ZM273.33,513.23c-.38,2.18-2.49,2.2-4,2.12-2.9-1.67-3.05-3.6-1.84-6,.86-1.67,1.42-3.31,4-2.3C274.89,508.41,273.69,511.11,273.33,513.23Zm-16.44-167.3c.07.42-.67,1-1,1.46l-6.67-5.5C254.18,342,256.38,342.86,256.89,345.93Zm-40.16-.32c1.75.05,1.54,1.35,1.09,2.42a1.74,1.74,0,0,1-2.45,1.11c-.35-.79-.77-1.78-1.19-2.77A8.34,8.34,0,0,1,216.73,345.61Zm-17.32,69.61,12.14-27.13a16,16,0,0,1,21.11-8l27.13,12.14a16,16,0,0,1,8.06,21.11L255.7,440.43a16,16,0,0,1-21.11,8.05l-27.13-12.15A16,16,0,0,1,199.41,415.22ZM242.77,527c1.31,3.52,6.23,3,8.26,8.73-3.88-2.8-8-.36-9.71-4.4C240.64,529.75,241.86,528.33,242.77,527Zm-7.94-44.36c-1.11.1-3.55-.48-3-2.85.47-2.11,1.61-4.36,4.1-3.77,5,1.17,8.27,4.47,10.13,9C241.74,485,238.81,482.32,234.83,482.66Zm-4.16,38.58c-.71,1.55-2.55,1.43-4,.48-1.83-.47-3.29-1.88-2.71-3.32.82-2,3.35-1.24,4.9-.92A3,3,0,0,1,230.67,521.24Zm-46.14-52.87c1.44-4.26,6.91-6.72,11.42-4.76A7.13,7.13,0,0,1,201,468.3c.53,2,2.79,4.29.52,6.69-2,2.13-4.68.67-6.19.18-3.27-1-5.86-3.89-9.68-4.14C184.41,471,184.08,469.73,184.53,468.37Zm95.08,156.14-45.38,46.17a11.79,11.79,0,0,1-18.58-2.34l-32.53-56a11.78,11.78,0,0,1,11.65-17.6l77.92,9.81A11.77,11.77,0,0,1,279.61,624.51ZM298.07,525c-3.77-2-9.62.45-11.75-5.56,4.33-1.59,7.64,2,11.58,1.4a1.72,1.72,0,0,1,1.75,2.33C299.41,524,298.91,525.4,298.07,525Zm5.47-37.31c-.66,1.77-2.22,1.91-3.87,1.84a2.93,2.93,0,0,1-1.38-3.44c1-2.44,2.65.14,4-.17C304.24,485.4,303.93,486.6,303.54,487.64Zm135.84,57.89c1.18.74,3.5.54,2.84,2.85-.64,1.22-1.67,2.54-2.58,1.48s-2.92-1.8-2.45-3.71C437.47,545,438.52,545,439.38,545.53ZM383,313.54c1.52-3.91,2.76,1.27,4.81.32,2.12.74,4,2.34,3.06,4.88a3.49,3.49,0,0,1-5.06,1.57C383,318.6,381.92,316.2,383,313.54ZM313,523.68c-.59.69-2,.72-2.87,1-1.21-1.35-2.32-2.38-1.54-3.86s2-.49,2.91,0C312.63,521.38,314.45,522,313,523.68Zm7.66-22.38c1.45-3.52,3.66.32,5.66.37,1.42,1.36,5.35.55,4.34,3.87-1.19,3.89-3.86.85-5.39,0C323.43,504.63,319.14,505,320.66,501.3Zm12.56,45.41c-.32,3.2-2.3.41-3.25.9-1.35-1.15-3.79-.85-2.88-3.42,1.05-2.94,2.9-.85,4.49-.82C334.45,543.41,333.29,546,333.22,546.71Zm10.32,108.56a20.73,20.73,0,0,1-1.93-2.92c1.3-1,2.58-1.5,3.42-.53a4,4,0,0,1,.67,3.12C345.49,656,344.26,656.06,343.54,655.27Zm16.21,40.19c-1.51-.35-1.91,3.76-4,1-.82-1.08-3.91-1.14-2.24-3.21,1.07-1.33,3.27-2.87,5.35-1.32C359.77,692.58,360.91,694,359.75,695.46Zm2-51.62c-3.12,4.13-8.28,3.38-12.67,3.37-3.2,0-5.09-3.37-6-6.6-.3-1.08,0-2,1-2,5.73.08,11.68-1.44,16.94,2.18C362.66,641.88,362.57,642,361.78,643.84Zm-14-89.17c4.17-1.69,8.1-3.2,11.95-4.89,1.88-.82,3.28-.9,4.5,1.05s2.73,3.77,1.66,6.22a4,4,0,0,1-1.26,1.17C359.67,553.21,352.49,561.62,347.75,554.67Zm16.63,9.45c-1.45-.56-4.38-.48-3-3.62Zm1.06,30.77c-3.85.76-8.44,2.63-11.37-.69-2.74-3.09-3.42-7.48.49-10.82,3.89,2.66,7.7,5.36,11.63,7.89,1,.67,2.06,1.24,1.95,2.5C368,595.45,366.3,594.72,365.44,594.89ZM343.55,492.18A23,23,0,0,1,332,461.85l15.56-34.76a22.61,22.61,0,0,1,14.33-12.34c0-.27-.29-.36-.11-.76.47-1.05.9-2,2.47-1.57s3.61.21,5.15.91c.82.37,2.68-.94,2.69.88a21.93,21.93,0,0,1,5.8,1.31l34.77,15.56a23,23,0,0,1,11.57,30.33l-7.74,17.28a12.14,12.14,0,0,0,2.69,1.39c1.93.58,4.5,1.19,3.93,4.11-2,1.47-3.7,4.53-5.82,2.16a24.73,24.73,0,0,0-3-2.63l-5.58,12.46a22.34,22.34,0,0,1-7.8,9c2.1.71,2.83,3.89,5.76,4-4.26,2.27-6.45.86-8.21-2a2.56,2.56,0,0,0-.26-.34,22.54,22.54,0,0,1-19.82.92Zm72.15,95.61c-5.67-1.61-7.95-6.16-10.94-10.54-2-2.94-3.31-6.79-7.43-8.58-2.64-1.15-.06-8,4-9.62,3.61-1.45,7.79-.86,11.53-2.5.78-.34,5.5.27,3.8,3.87C412.37,569.39,416.42,578.46,415.7,587.79ZM392,555.71c-4.63-1-6.25-3-3.68-7.54,1.54-2.75,2.78-4.2,5.6-2,3,2.31,7,5,6.31,8.74C399.82,556.87,395.09,558.62,392,555.71Zm-11.67,7.2c.39-2.06,2-3,4.11-2.81,4.76.44,9.48,1,8.2,7.74a26.22,26.22,0,0,1-9.51-.81A3.42,3.42,0,0,1,380.28,562.91ZM403,604.63c-2.81-6.16-8.33-9.32-13.42-14.64,5.37-.38,10.18,1.61,13.65-2.43.36-.41,2.72.33,3.72,1.1,4.91,3.76,9.78,7.58,14.39,11.68,1.31,1.15,3.29,3.41.61,5.12s-6.6,1.57-8.27,5C410,608.59,404.35,607.56,403,604.63Zm42.1,68.85c-1.26,3.09-4.36,3.55-7.62,2.09-1.79-.81-3.56-2.61-5.84-.84-.59,2.59,4.33,1.43,3.26,4.43-8.5-.63-10.43-2-10.08-9.71.17-3.68-2.92-1.67-3.53-3.23-1.24-3.17-5.5-2.27-7.22-5.55,3.8-2.93,8.14-3.64,11.87-.87,4.74,3.51,10.06,5.63,15.15,8.32C443.14,669.21,446.17,670.85,445.11,673.48Zm-3.35-31c-5-2.86-.6-6.5.21-7.63,3-4.14,5.73.58,8.86,1.48C446.87,637.28,449.58,647.05,441.76,642.53Zm33-167.73c.16-1.9-3-2-1.67-4,.23-.35,1.39-.6,1.57-.4a40.3,40.3,0,0,1,2.57,3.36Zm8.78,160.26c-3.27.28-3.08-3-4.7-4.7,2.37.12,5.57-.81,5,3.15C483.7,634.05,483.64,635.05,483.5,635.06Zm4.76-157.56c-1.49-2.36-5.37-3.37-8.83-5.09-1.06-.52-2.06-1.1-1.42-2.57.5-1.14,1.1-1.8,2.59-1.45,4.14,1,8.36,1.61,12.46,2.69,3.42.89,3.11,4.39,2.39,6.22C494.56,479.59,491.81,480.4,488.26,477.5ZM493.07,370c1.05-.84,2.09-1.72,3.09-.94.77.6,1,1.84,1.52,2.8a15.1,15.1,0,0,0-2.61.05C493.16,372.31,493.66,370.75,493.07,370Zm2.07,301.46c-.1-.77,0-1.21.85-1.13,1.94.19,2.61,1.48,2.81,3.67C496.84,673.85,495.4,673.52,495.14,671.49Zm9.25-139.82c-1.12,2.2-4.52,1.72-6.6.69-1.91-1-3.25-3-4.92-4.71a7.21,7.21,0,0,1,8.06-1.1C502.78,527.45,505.32,529.84,504.39,531.67Zm22.37-20.74c-1.5,1.62-3.22,4-6.2,3.07-1.86-.67-1.79-1.81-1.16-3.3,1.06-2.51,2.68-3.66,5.37-2.39C525.88,508.84,528.14,509.43,526.76,510.93Zm1.1-19c-4.73-1-7.24,7.66-13.91,1.68-.05-.05-3,.56-2.63-2.08s2.28-1.73,4.18-1.44c1.49.23,1.81-1.84,2.33-3.05.79-1.85,2-2.48,3.81-1.49,2.41,1.32,5.44,1.62,7.16,4C529.09,490,528,492,527.86,492Zm-7.37-57.7a4.46,4.46,0,0,1-.1,1.65l-4.63-1.84C518.29,432.55,519.74,431.94,520.49,434.26Zm-.39-97.47c.89-2.33,2.68-2.79,5-1.87,2.14.85,3.74,2.22,2.85,4.58-1,2.79-3.73,1.58-5.6,1.83C520.17,340.29,519.35,338.77,520.1,336.79Zm16.7,260.15c-1.39-2.51-7.34-3.7-6.07-9.33.44-2,3.38-2.89,4.35-1.39,2.23,3.47,8.46,4.5,6.82,10.32C541.27,598.77,539.8,599.41,536.8,596.94Zm11.14-61.71c-4.57.71-5.23,8.53-11.34,5.87-3.21-1.4-3.29-4-3.37-7.33,4-.55,5.57-6.28,10.79-4.54C547.08,530.25,548.48,535.14,547.94,535.23Zm-6.91-244a541.57,541.57,0,0,0-49.23-32.7,58.91,58.91,0,0,1,57.07-21.28,2.09,2.09,0,0,1,0,.25v1.34A177.67,177.67,0,0,1,541,291.23Zm63.22,225-5-3.86c3.59-1,5.36-.51,6.22,1.63C605.64,514.56,604.68,515.52,604.25,516.28Zm61.27-73.13a4.08,4.08,0,0,1-3.3,2.68A176.33,176.33,0,0,1,643,470.65l-.32.35c-3.25,3.82-6.63,7.3-10,10.62,2.8.32,5.07,2.21,7.61,3.23s4.71,2.08,5.71-1.72c.37-1.42,1.36-2.7,2.67-.73,2.78,4.14.85,9.56,4.44,12-2.8,6.37-7,7.44-9.8,3.54-3.48-4.91-8.49-7-13.7-9a8.36,8.36,0,0,1-2.91-2,167.36,167.36,0,0,1-29.17,20.55,3.41,3.41,0,0,1-1.94,3.54c-1,.41-2.11-.2-3-1a176.22,176.22,0,0,1-32.8,12.85,120.36,120.36,0,0,1-2.54-52.12c-1.58-1.38-3.14-3.07-.55-5.95a5.88,5.88,0,0,1,1.85-1.22,124,124,0,0,1,39-65.82,8.2,8.2,0,0,1-2-3c-.38-1.06.83-2.49,2.37-2.94a5,5,0,0,1,4.92,1.41,123.26,123.26,0,0,1,76.73-26.78c3.44,0,6.91.15,10.39.45a178.4,178.4,0,0,1-24,72.79A4.77,4.77,0,0,1,665.52,443.15Z"/></svg>