<svg id="Guías" xmlns="http://www.w3.org/2000/svg" viewBox="0 0 850.39 850.39"><defs><style>.cls-1{fill:#fff;}</style></defs><path class="cls-1" d="M435.17,573.58c-7-31.81-32.62-58.78-63.74-67.11C350.81,501,336.77,482.39,324.38,466c-5.71-7.55-11.11-14.68-16.39-19.57-6.62-6.13-17.11-13.83-29.53-15.64-12-1.75-24,1.8-36.66,5.56-20.11,5.95-44.8,13.25-68.13-6.83A275.19,275.19,0,0,0,110,425.17c-35,1.93-63.95,22.54-77.57,55.12a89.57,89.57,0,0,0,5.64,81.21c6.77-14.16,18.52-31.21,37.66-38.56a54.73,54.73,0,0,1,19.8-3.64c11.75,0,24.29,3.6,37.53,10.65l.43-.56c.13.1,2.12,1.6,5.59,4,3.27,2,6.56,4.07,9.9,6.46l1,.74c31.22,19.63,101.74,56.94,169.2,43.36L324,607.6A177.74,177.74,0,0,1,288.86,611c-50.6,0-98.15-19.88-130.08-37.24,7.14,19.91,22.39,36.83,46.73,52.05,58.18,36.36,133.89,54.93,208.55,49.46C434.54,635.49,441.47,602.18,435.17,573.58Z"/><path class="cls-1" d="M728.65,475.49a121.12,121.12,0,0,0,96.43-47.62L683.86,319.73c-2.05,4.78-3.24,10-5.48,15.58-3.24-5.87-3.46-12.32-9.89-14.17-.66-.19-1-3.25-.68-4.78.58-2.49,1.34-4.93,2-7.42l-43-32.95c-54.28-46-110-81.53-162.38-99.06a5.33,5.33,0,0,1-3,.21c-1.51-.26-2-.92-2.17-1.68-20.44-6.4-40.27-9.82-59.32-10.16a15.26,15.26,0,0,0-1.2,3.37c-.11.63-2,1.57-2.75,1.31-2.11-.74-1.66-3.11-1.15-4.32.07-.16.17-.33.24-.49-58,.67-107.86,32-141.13,107.62-.81,1.87-1.62,3.71-2.47,5.55a78.53,78.53,0,0,0-46.84,4.9,14.27,14.27,0,0,1-2.13,6.08A23.92,23.92,0,0,1,199,285.6a81.07,81.07,0,0,0-20.84,129.68c20,12.84,36.84,3.72,56.83-2,5.09-1.47,10.5-2.94,16.06-4.21,1.43-4,2.76-6.67,6.67-5.27a6.66,6.66,0,0,1,3.86,3.4,73.21,73.21,0,0,1,20.41-.22c14.67,2.14,29.35,9.68,42.44,21.81,6.84,6.34,12.86,14.29,19.23,22.71,6.69,8.85,13.58,17.57,20.91,23.85a3.71,3.71,0,0,1,3.13-1.87c1.3-.07,4.93,1.11,4.44,4.91-.1.75-.54,1.14-.75,1.77a28.43,28.43,0,0,0,6.32,3.05c40.21,10.76,72,44.21,81.06,85.22,7.5,34,0,72.3-22.66,116.84,74.64-9.69,147.53-43.55,200.79-110.32,1.45.06,2.9.09,4.34.09a121.14,121.14,0,0,0,96.44-47.62L690.35,491.2a207.32,207.32,0,0,0,7.06-19.81A121.11,121.11,0,0,0,728.65,475.49ZM180.92,373.4c-3.4.57-3.56-2.84-4.57-4.93s1-3.17,2.33-3.18c2.56,0,3.47,2.54,4.93,4.18C182.71,370.86,182,373.22,180.92,373.4Zm5.71-25.31c-1.54.7-2.47,1.66-4.4.47-3.6-2.21-1.76-5-1.47-7.72h-.19l0-.23a12.81,12.81,0,0,0-1.52.13c-9.28,1.72-9.25,1.73-7.17-7.44.61-2.68,1-6.43,4.07-6.19,3.28.26,7.32,1.86,9.28,4.29,1.51,1.87-1.38,4.73-3.87,6.32-.63.4-.59,1.83-.79,2.89h.21l-.24.24.24-.24c0,.07,0,.15-.05.23,2.67-.29,5.51.47,8.15-1.64C189,342.56,191.23,346,186.63,348.09Zm44.67-47.3a1.86,1.86,0,0,1,1.41,2.88c-1.3,2.43-.34,6.25-3.83,7.23-1,.29-3-1.76-2.34-2.63C228.23,305.9,226.59,301.58,231.3,300.79Zm38.79,53.45-8.73,19.49a17.75,17.75,0,0,1-23.45,8.94L218.42,374a17.75,17.75,0,0,1-8.95-23.45L218.2,331a17.75,17.75,0,0,1,23.45-8.95l19.49,8.73A17.75,17.75,0,0,1,270.09,354.24Zm162.16-86.75a6,6,0,0,1,1.94-.74c.09,1.89.18,3.79.3,6.18C431.45,270.86,430,269.53,432.25,267.49Zm-10.5-77.63c2.5.9,8.13,1.4,7.44,6.42-.39,2.8-1.73,5.48-6.09,5.45-5.58,0-3.86-3.58-4.18-6.47C419.45,193.13,418.07,188.52,421.75,189.86Zm-16.08-15.5c.52-1,2.93-.62,2.78-2.59-.21-2.64,1-3.76,3.48-3.21,2.93.65,1.44,3.14,1.93,5.36-.48,1.15-1.56,2.66-1.69,4.23-.21,2.73-.51,5.23-3.62,5.9-1.62.35-2.65-.16-3.8-2.08C402.84,178.77,404.52,176.68,405.67,174.36Zm-32.85,151a17.93,17.93,0,0,0,1.42,2.92c1.41,2-.63,2.21-1.15,3.24-1.51-.75-3.06-1.48-2.68-3C370.69,327.32,372,326.39,372.82,325.35Zm-66.21,65.48c-3.7-3.31-6.72-6.7-.06-10.63C308.41,384.11,307.27,387.49,306.61,390.83ZM321,318.06c-3.13.2-4.58-1.59-4.73-4.67-.14-2.86.59-5.37,3.75-5.58,3.73-.25,3.74,3.4,5,5.39C325,316.18,323.68,317.89,321,318.06Zm27.14-115c-1,1-3.27.34-4.59-1.16a6.53,6.53,0,0,1-.72-7.32c1.84-3.49,5.7-6.33-1.53-8.19-1.32-.34-1.21-3.83.07-5.47,1.18-1.48,3-3.3,4.59-3.42,2.33-.18,4.22,2.32,4.75,4.24.74,2.67.18,5.7.18,8.58h.2c0,2-.07,4,0,6A8.84,8.84,0,0,1,348.17,203Zm94.66,204.14-12.16,27.15A25.5,25.5,0,0,1,397,447.18L369.84,435A25.5,25.5,0,0,1,357,401.33l12.15-27.14a25.49,25.49,0,0,1,33.69-12.85L430,373.49A25.5,25.5,0,0,1,442.83,407.18Zm12.43-201.12c-.82,2.72-1.49,6.52-6.87,4.86-9.35-2.9-3.38-9.44-5.3-16C448.06,199.59,458.62,195,455.26,206.06ZM467.82,621.6c-2.49-5.71-2.63-8.64.6-10.8.45-.3,1.46.26,2.21.42C469.86,614.05,469.1,616.89,467.82,621.6Zm23.33,37.24a10.45,10.45,0,0,1-2.2-2.49c-.84-2,.75-2.44,2.2-2.48a2.18,2.18,0,0,1,2.55,2.2Zm.51-201.55c-1.43,0-2.71,0-3.07-2-.39-2.14-1.64-4.2-1.65-6.29,0-1.22-3.17-2.84.05-3.76,1.76-.51,4.07.09,3.16,2.31-1.65,4.1,4.23,3,3.62,6C493.59,455.13,494.45,457.27,491.66,457.29ZM495,297.2c-1.56,0-2.62-.32-3-2.19-1-5.17-2.51-10.27-3.42-15.47-.75-4.31,3.41-5.77,5.87-5.9,3.08-.17,5.45,2.53,4,8-1.92,2.9-1.06,7.82-1.22,12.61C497.17,295.73,497,297.17,495,297.2Zm3.64,5.12c-.52-.07-1.41-1.26-1.28-1.57a50.61,50.61,0,0,1,2.51-4.63l2.51,2.24C500.15,299.16,501.63,302.76,498.66,302.32Zm3.86-53.94c-3.38,1-3.16-1.68-3.82-4-.52-1.8-3-1.1-4.7-1.06-2.53,0-3.88-1-3.69-3.54.25-3.41-1-7,.87-10.16.3-.53,3.15-.36,3.19-.16,1.3,5.87,12.53,4.24,9.16,14.86C503.5,244.42,505.73,247.44,502.52,248.38Zm12.15-23.82c0-1.52-.47-4.38,2-3.59,2.63.86,6.21,1.59,6.73,5.43.21,2.44-1.14,2.95-3.17,3C516.77,229.5,514.61,228.26,514.67,224.56ZM526,407.09c-1.81.94-3.59,2.47-5.41,1-2.39-1.94,1.29-3.16,1.1-5.09-.12-1.27,2.23-1.93,1.12-4.08-2.11.39-5.16,1.8-6.16-1.8-.59-2.14-1.1-4.82,1.18-6.28,2.69-1.72,5.3.17,7.22,1.67C531.81,397.81,532,404,526,407.09ZM539.12,368c-4-.16-1.31-6.18-1.77-9.54-.34-2.48-1-5.7,2.65-6.55,2.7,1.46,7.11,1.85,5.49,5.46C543.78,361.17,544.1,368.19,539.12,368ZM546,384.11c-2.08-.06-1.72-1.73-1.75-3.06s.76-2.14,2.06-1.89,1.44,1.47,1.36,2.63S547.51,384.15,546,384.11Zm7.38-133.44c-4.12-2.09-5.55-5.32-5.46-8.55.07-2.55,1.48-6.65,4.06-6.54,3.09.14,4.31,4.23,4.21,7.11C556.11,245.33,554.41,247.92,553.38,250.67ZM579.12,368c-.56.81-.59,2.29-2.07.95-4.38-4,1.88-6.82.1-11.26C582,361.3,581.49,364.5,579.12,368Zm22.53-66.05c.23-1.72-1.21-4.24,1.78-4.68,1.73.1,3.76.58,3,2.16s-.54,4.22-3,4.67C602.06,304.34,601.48,303.16,601.65,301.92Zm5.4,190c-3.32.1-1.22-3.07-2.26-4.41-1.57-2,0-2.26,1.36-2.35,2.37-.17,3.34,1.52,4.12,3.43C609.92,490.48,608.69,491.9,607.05,492Zm5.8-33.13c-4.78.16-1.54-4.3-2.52-6.59.82-2.31-2.15-6.34,2.17-6.9,5.06-.66,3,3.93,2.85,6.07C615.21,454,617.82,458.66,612.85,458.83ZM630.51,320c12.46.19,20.72-9.05,31.77-13,1.1,7.23-2.91,12.15-6.36,17.78-2.32,3.78-6,7.24-5.95,12.81.07,3.58-9.13,4.19-13.05.48-3.54-3.34-5-8.36-8.86-11.75C627.26,325.56,625.51,319.9,630.51,320Zm25,34.5c.46,2.59-.71,4.66-3.25,5.28s-4.47-.71-5.35-3.2c-2-5.6-3.83-11.21,4.59-13.25A32.59,32.59,0,0,1,655.51,354.48Zm-21,215.8c-2.66.54-5.82.41-6.45-2.7-1.23-6.21.81-11.65,5.06-16.09,2.21,4.88.62,9.59,3.09,13.92C636.89,566.61,637.5,569.67,634.51,570.28Zm-3.26-212c-3.94-.33-6.24-1-5.24-5.29,1.08-4.61,2.12-10.48,6.71-11.63,2.47-.61,6.93,3.84,5.24,8.88C639.28,356,637.84,358.86,631.25,358.32Zm10.21,104.1c-2.19-.12-1.61-2-1.55-3.28.07-1.57-.17-3.94,2.51-3.17,1.1.31,1.85,1.86,2.65,2.72C644.16,460.76,643.56,462.54,641.46,462.42Zm8.3,52.35c-2.35-.11-4.51.1-4.71-3.32-.25-4.56,3.46-4.59,6.07-5.27s3.8,1.67,4.52,3.45C655.23,513.75,653.11,514.93,649.76,514.77Zm-1-43.43c1.1-.15,3-.33,2.92.85-.33,5.29,5.52,10.64-.25,16.13-4.07-4.07-1.74-9.63-4.41-13.8A2.14,2.14,0,0,1,648.72,471.34Zm9.82-41.85c-3.91.33-2.48-2.83-3.28-4.64-1.45-3.27,2.15-3.3,3-3.58,3.82-1.27,1.65,2.39,2.71,3.22C660.33,426.6,662,429.2,658.54,429.49Zm1.23-28.73c-4.1-3.84-7.87-7.51-11.81-11-1.92-1.7-2.74-3.24-1.14-5.62s2.89-5,6.25-5.08a4.91,4.91,0,0,1,2,.82C651.89,388,665.25,391.83,659.77,400.76Zm-.44-18.41c1-2,1.79-3.64,2.59-5.24C662,379,663.65,382.3,659.33,382.35ZM682.7,559.28c-2.73.11-3.16-3.14-3.6-5.06s1.6-4,3.38-4c2.13,0,2.94,2.15,2.6,4.25C685.5,556.82,684.64,559.2,682.7,559.28ZM688.48,533c-1.47,1.59-3.73.94-5.7.58,3.35-3.29.21-8.59,5.68-13.82C687.27,525.61,692.21,529,688.48,533ZM689,378.29c1-5.76,2.12-11.46,3-17.19.22-1.51.35-3,1.85-3.49,2-.69,2,1.59,2.67,2.47,2.88,4,7.41,8.18,5.14,13.21C699.56,378,694.89,381,689,378.29Z"/></svg>