<svg id="Guías" xmlns="http://www.w3.org/2000/svg" viewBox="0 0 850.39 850.39"><defs><style>.cls-1{fill:#fff;}</style></defs><rect class="cls-1" x="332.9" y="341.7" width="51.92" height="51.92" rx="16.77" transform="translate(-123.34 544.95) rotate(-65.88)"/><rect class="cls-1" x="457.03" y="378.7" width="73.79" height="73.79" rx="19" transform="translate(-87.23 696.58) rotate(-65.88)"/><path class="cls-1" d="M730.2,551.24c-1.46-1.57-1.27-4.28,1.94-4.47,7-.44,14.79-2.76,20.41,2,17.64-24.69,46.69-74.93,43.35-134.71-2.77-49.78-26.91-94.85-71.73-133.94-48.31-42.12-111.92-87.6-177-106.25.14,2.48-.64,4.74-2.81,4.77-6.51.07-8.15-3.65-9.28-7.82-27.23-6.34-54.57-7.86-81-2-51.75,11.53-91.69,48.5-118.74,110l-7.71,17.89A14.19,14.19,0,0,0,338,316.3l13.48,2.53c1.21.24,2.46.54,3.85.94l236.18,68.12a20,20,0,0,0,6.26,2.51c7.26,4,18.49,11.67,24.56,22.74a49.32,49.32,0,0,1,5.18,22.65,61.75,61.75,0,0,1-2.11,13.56l-5.76,22.59a4.09,4.09,0,0,1-.73,2.87c-13.84,54.33-25.08,97.77-57.42,166.68l-11,23.52a14.19,14.19,0,0,0,17.46,19.45l24.58-8.41c54.87-18.78,99.86-51.52,134.54-95.17-1.15-.38-2.1-1.37-2.81-3.54-1.88-5.71,2.45-6.41,6-8.1,2.11-.52,4.6-2.34,6.39-.2,1.12-1.57,2.5-2.86,3.6-4.45,1-1.14,3.6-4.29,6.72-8.28C740.07,558.39,734.69,556,730.2,551.24Zm18.06-142.45c4.39-1.72,8.4-3.79,11.67-7.49,1.5-1.69,4.88-2.78,6.8-.25a12.23,12.23,0,0,1,2.34,7c0,3.11-16.11,12.82-19.3,12.11a5.31,5.31,0,0,1-4.12-3.81C743.72,412.47,744.85,410.13,748.26,408.79ZM422.14,291.49c-4.44,1.95-21.27-5.06-22.67-9-1.53-4.29,2.27-10.56,7.75-12.83,9.52-4.21,14.82,4.08,20.46,8.48C429.66,279.68,428.2,288.82,422.14,291.49ZM440.71,255c-2.83-.43-7.3,2.07-8.38-2.6-.47-2,.21-5.36,3.61-5.43,2.89-.06,5.95.2,7.63,3.51C443.18,252.15,443,255.33,440.71,255Zm25.08-1.21c-1.83-.42-4.51,1.78-5.42-1.32-1.1-3.79,2.63-3.63,4.6-4.65s4.18-2,4.82,1.94C469.11,251.38,469.94,254.73,465.79,253.78Zm62.49,61.36a3.58,3.58,0,0,1-5-1.69,3.3,3.3,0,0,1,.67-3.08c2-1.62,3.85.13,6.43.9C529.65,312.68,529.32,314.6,528.28,315.14Zm145.41,14.64a13.63,13.63,0,0,1,10-9.14c7.17-4.54,12.49-1.75,17.85,3.74,3.84,3.93.28,7.17.26,10.68,0,5.37-4.73,3.11-6.78,3-6.09-.33-11.65-3.86-18.44-1.49C673.84,337.53,672.52,333.18,673.69,329.78Zm-14.43,12.49c2.85-.79,5.52-.28,6.33,2.05.4,1.12-1.63,4.07-3.14,4.64-2.86,1.08-4.18-2.31-5.56-3.9S658.68,343.32,659.26,342.27ZM593.87,226.62c2.8-.92,5.68.86,7,4.51,2.21,3.59-2.2,4.92-3.69,6.63s-5.5-.11-5.46-2.48C591.81,232.43,589.7,228,593.87,226.62Zm-39.82,79c2.17-.93,4.19-1,5.66,1.17,1,1.5,1.58,3.4-.09,4.54-2.64,1.79-4.81-.18-6.91-1.53C551.89,308,552,306.49,554.05,305.63ZM589,349.85c-5,2.67-9.57,6.24-15.92,5.63-4.1-.39-8.72,1.69-12.4.5-5.74-1.85-13.67,7.36-16.39-2.29-.63-2.24,8.48-7.23,12.91-10.79,9.13-1.07,17.37-3,25-6.9,4-2,7.3.45,8.13,3.71S593.51,347.42,589,349.85Zm-2.28-46.62c-.91-3.79.59-7,4.44-7.79,7.92-1.56,8.31,5,10.74,11.39C596.12,305.78,589.15,313.39,586.7,303.23Zm28.86-11.67c-.35-1.71-.7-2.95,1.09-4.4,4.9-4,22.68.27,25.27,6.49,1.91,3.09.67,4.58-2.59,6.67C633,304.37,617,298.87,615.56,291.56Zm6,234.44c-2.48-7.07-9.37-11.74-9.24-20.95,4,.79,7.21-1.88,10.83-2.77,5.75-1.41,11.53.33,14.1,5.22,3,5.72,3.52,13.94.39,18.71C634.11,531.64,623.94,532.68,621.6,526ZM648,553.8c-4.1,2.16-7.11-1.18-11.27-2.22,1.82-1.94,3.24-4.81,5-5.05,3.41-.47,8-2,10.16,2.11C653.55,551.7,650.16,552.67,648,553.8ZM672.33,599c-5.29-1.11-12,9.31-15.54-1.36-2.37-3.84-.62-5.75,2.3-6.15,5.55-.74,11.21-.22,15.73,3.29C676.16,595.84,675.16,599.6,672.33,599Zm7.17-62.12c.88,5.63,3.17,12.51-5.79,13.85-7.14,1.07-14,.57-15.3-8.8-.22-1.55.34-4.58.86-4.65,7.43-1,11.16-6.54,14-11.5,5.73-2.35,10.91-.58,12.45,2.68,2.33,4.92-2.88,4-6,4.67C675.8,534,679.28,535.45,679.5,536.9ZM678,469c3.68,1.41,6.11,3.83,3.63,7.62-2.27,3.46-6.58,1.64-9.52,1.28-4.21-.52-7.22-18.15-3.53-20.3,4.08-2.37,7.56-.63,8.41,4.13.33,1.83-.93,3.95-1.49,6A21.93,21.93,0,0,0,678,469Zm7.27,43.57c.41,1.95,2,4.86-.84,5.13-3.85.37-8.57,1.61-11.5-2.47-1.93-2.69.24-4.33,1.37-5.69C678.62,510.38,683.73,505.37,685.22,512.58ZM688.36,401c-.12.11-.23.15-.36.25,0-.06-.12-.07-.18-.13-5,4.89-9.74,11-17.55,4.34-1.63-1.39-5.82-2.09-4-5.33,1-1.82,4.62-3.82,6.36-3.32,5,1.45,11.11-.37,15.17,4.31l.39-.38h0c0,.11.1.16.15.27,7.29-6.27,14.11-7.64,20.41,2.38C701.15,406.12,693.62,412.82,688.36,401Zm35.79-42.76a89.33,89.33,0,0,1-9.57-3.73c-4.31-1.76-11.36-2.1-10.08-8.35,1.63-8,9.53-6.94,14.65-4.82,5.58,2.31,13.63-1.87,17,6.37.78.94,3.15,2.66.6,3.35C731.82,352.36,730.48,359.92,724.15,358.19Z"/><path class="cls-1" d="M472.62,506.53c-18.85-5-31.69-22-43-37-5.22-6.9-10.15-13.42-15-17.89-6-5.61-15.64-12.64-27-14.29-11-1.61-21.92,1.64-33.51,5.07-18.57,5.5-41.41,12.27-62.92-6.79l-1-.17-98.52-15.93-.69-.11-.92-.16-7.78-1.23c-.66-.1-1.37-.2-2.11-.29-24.63-3.12-84.68-6.87-111.82,25.76C54.07,460.69,50.62,486.4,58,520.12c9.54-11.8,21.55-22.35,38.52-24.87,15.37-2.29,32.1,2.8,49.66,15.14,5.25,3.71,10.4,7.52,15.39,11.2l5.77,4.26c6.82,5,14.18,10.34,21.85,15.21a127.25,127.25,0,0,0,15.09,8.18,131.77,131.77,0,0,0,29.44,9.41l0-.24c34.54,4.12,114.52,8.15,168.91-6.75a13.11,13.11,0,0,1,1.87-.68c.74-.2,1.56-.38,2.36-.57,16.94-5.09,31.16-12.11,40.15-21.8l16.16,15c-31.08,33.51-102.57,40.69-158.1,40.69-6.4,0-12.55-.11-18.43-.27,7.55,9.83,17.14,21.1,27.54,27.59C371.46,647.41,444.75,663,514,656.06c16.86-34.28,22.39-63.2,16.89-88.2C524.47,538.79,501.06,514.14,472.62,506.53ZM351.81,538c-2-.32-4.34-.24-4.58-2.92-.08-.89,1-1.88,1.31-2.47,2.83-.83,3.27.8,3.49,2.43A13.56,13.56,0,0,1,351.81,538Zm68.27-10.61c-4.13,1.48-7.88,1.74-9.62-2.64-2.24-5.66,1.34-8.62,5.59-9.89,3.86-1.69,7.94-3.13,8.85,1S426.12,525.23,420.08,527.4Zm69,88.36c-1.49.06-3.5-.06-4.42-1-2.52-2.53,2.12-1.52,1.31-3.1,2.06-.33,4-1.2,4.31,1.29C490.45,613.88,489.59,615.74,489.12,615.76Z"/></svg>