<svg id="Guías" xmlns="http://www.w3.org/2000/svg" viewBox="0 0 850.39 850.39"><defs><style>.cls-1{fill:#fff;fill-rule:evenodd;}</style></defs><path class="cls-1" d="M425.45,381.36c4.74.84,13.09-.49,29.29,10.08,8.16,5.34,19.54,25.26,12.7,43.56-16.09,43.05-74.89,44.4-87.47,1-5-17.21,1.94-51.31,37.73-54.46C420.27,381.33,422.88,381.58,425.45,381.36Z"/><path class="cls-1" d="M550.52,339.61c-30.09-17.46-31.95-15.17-51.49-22.29s-59.64-11.25-66.56-13.6c-26.16-8.84,28.74-50.61,49.81-75.27,34.45-40.3.27-64.56-28-50.53-10.08,5-57.91,53-74.54,72.74-23.08,27.34-53.25,57.2-76.88,84.5-4.09,4.7-48.19,55.63-50.84,59-54.47,70-59.41,66.33-78.06,99.41-19.7,34.92-19.45,35.18-29.22,74-6.59,26.21,7.4,58.4,14,67.75,35.23,49.94,75.2,46.75,90.39,45.62,33.31-2.48,64.11-34.39,73.57-54.08,8.39-17.4,7.9-17.6,10.38-36.83-1.43-14.13-.33-33.89-31.65-53.46-18.88-11.83-51.23-17.5-72.45,10.88-13.74,18.36-12,41.44-1.35,51.72a28.23,28.23,0,0,0-3.44-9.78c-4.1-6.4,1-9.73,2.89-14.13.74-1.79,3.65-1.74,4.75-.7,4,3.74,11.53,6.67,9.67,12.78s-1.08,11.55.2,16.94a22.06,22.06,0,0,0,6.51-1c8.77-3.15,13.35-17.06,16.12-19.89.78-.78,7.3-7.47,13.92-.74s-1.22,19.41-2.11,20.81c-30.32,47.9-119.4,10.77-53.43-83.76-.38.05-.74.23-1.14,0-1.34-.78-3-2.33-3.1-3.64-.14-1.88,1.68-3,3.7-2.35A3.31,3.31,0,0,1,224.5,517c.37-.51.6-1,1-1.47,21.15-28.82,36.67-56.92,83.93-100.07,3.39-3.09,6.85-5.75,10.29-8.55,3.53-8.7,4.19-16.31,11.39-13.74a9.64,9.64,0,0,1,3.6,2.41c19.73-13.7,39.43-23.19,56.92-28.92.56-1.57,1.74-3.18,4.64-4.89a13.54,13.54,0,0,1,1,3.17c13.94-4.06,26.27-5.9,35.48-5.61,13.51.42,42.1,9.38,44,10.15,29.86,12.08,50.05,26.74,52.24,27.83,3.3,1.64,21.31,10.59,40.64-21.74C571.08,373.05,582.54,358.2,550.52,339.61ZM152.41,570.52a16.67,16.67,0,0,1-2.32-3c-.6-1.26.47-1.87,1.54-2,1.4-.21,2.88-.31,3.2,2.34ZM240,654.24c4.33-1.11,8.58.7,8.64,6.6,2.48-.88,5-3.66,7.56-1.08,1.66,1.67,1.54,4.2-1,5.77-1.53-3.62-3.32-.43-5-.18-1,5,5.86,13.61-2.55,14.37-8.94.81-6.05-10.87-9.72-16.34C236.67,661.44,235.24,655.46,240,654.24Zm-60.6-49.62c-2.2,4.63.77,13.33-7,13.2-2.79-.05-3.89-8.05-4.42-12.79-.61-4.49.77-6.12,5.69-5.87C178,599.37,181.41,600.38,179.4,604.62Zm12.19,39.62c-7.72-2.5-5.76-8.57-7.78-12.54,1.33-.34,2.91-1.33,3.94-.93C194.33,633.38,191.63,638.7,191.59,644.24Zm110.5-285.92c-2.29.74-4.08-3.83-4.19-7.21-.15-4.75,1.94-7.09,6.73-7.19,3-.07,5.5.13,4.92,3.91C310,353.63,306.09,357,302.09,358.32Zm113.46-79.41c-4.18.27-6.11-2.11-6.31-6.21-.19-3.82.78-7.17,5-7.45,5-.33,5,4.53,6.67,7.19C420.84,276.42,419.08,278.69,415.55,278.91Z"/><path class="cls-1" d="M345.11,214.39c-15.11-12.61-44.47-31.25-58.91-37.12-64.77-26.36-124.32,15.34-135.14,52-8.76,29.54-7.75,30.22-.14,60.05,5.16,20.22,20,35.54,22.52,38.1,20.69,21.31,34.79,22.23,51.78,24.09-1.23-1.4-1.73-3.65-2.56-5.36-1.41-2.88,1.34-4.22,3.11-4.25,3.41,0,4.63,3.4,6.57,5.59-.85,1.31-1.63,2.93-2.49,4,9.37-.44,35.78-2.61,54.16-27.19,29.82-39.86-26.13-104.69-57.86-73.06-18.21,18.13,6.45,35,8.95,36.67,12.87,8.78,6.75,14.77-2.72,14.81a21,21,0,0,1-3,2.4c-.83.53-.78,2.44-1.05,3.85l.28,0h0c0,.1,0,.21-.06.31,3.55-.39,7.35.62,10.86-2.18,0,4.47,3.1,9.07-3,11.85-2.06.93-3.3,2.21-5.87.63-4.8-3-2.35-6.72-2-10.3h-.26a2.72,2.72,0,0,0,0-.3,17,17,0,0,0-2,.17c-12.37,2.3-12.33,2.31-9.56-9.92.12-.54.25-1.15.37-1.74-33.26-22.07-10.82-74.6,31.13-72.34-.18-4.61,1.62-9.34,5.87-14.26,1.54-1.78,2.5-2.78,5.48-2,3.8,1,4.44,3.5,3.41,5.81-1.79,4-1.92,8.34-2.17,12.62a63.7,63.7,0,0,1,9.62,3.7c44.38,21.42,57.82,59.47,86.21,19.5C369.38,232.66,354,221.78,345.11,214.39Z"/><path class="cls-1" d="M659.57,184.28a2.69,2.69,0,0,1-2.06,1.74c-4.51,1.32-4.22-2.24-5.1-5.31-.28-1-1.17-1.16-2.08-1.31-.22-.11-.45-.19-.67-.3-1.16,0-2.47.18-3.51.2-2.93.06-4.39-1.25-4.63-3.75-40.19-14.59-88.25-4.46-112.2,40.28-28.27,52.82,12.12,115.36,57.46,108.85,46.59-6.69,53.68-66,28.46-78.26-18.32-8.93-26.34,13.85-26.45,14.09-5.21,11.3-3.63,13.63-9.13,14.05-19.58,1.47-10.44-59.87,37.44-47.74A41.64,41.64,0,0,1,643,245.71c-1.33-6.05-3-12-4-18.14-1-5.75,4.54-7.69,7.83-7.87,4.1-.22,7.25,3.37,5.29,10.7-2.56,3.86-1.42,10.41-1.63,16.8-.07,2-.25,3.87-2.93,3.9a5,5,0,0,1-2.07-.4c6.34,13.63,6.91,30.61,2.15,46-7.15,23.1-68.77,99.48-73.25,104.2-75.29,79.67-107.9,85.7-149,90.15-62-6.64-78.35-29.76-103.87-37.53-24.07-7.33-38.42,17.15-40.24,20.27-10.46,17.82,16.37,33.74,19.12,35.39,9.58,5.69,40.51,27.82,110,38.28,12.72,1.93,18.46.71,15.8,13.32-1.13,5.36-37.09,38.73-49.54,53.48-41.08,48.61-10.92,68.22,13.07,58.89,24.34-9.49,113.88-108.91,169.8-173.23-.48.24-1.6-.69-2.28-1-.13-2.22,1.1-2.83,2.57-2.78A6.34,6.34,0,0,1,562,497c23.11-26.64,40.15-46.86,43.3-50.89,36.8-47.08,40.86-43.8,65.91-81.66,12-18.19,12.46-17.84,21.8-37.62C724.64,259.76,699.68,208.34,659.57,184.28ZM548.05,280.81c-2.9-1.06-3.7-2.32-2.85-5.5.44-1.68-.14-3.85,1.94-2.25,2.67,2,8.11-.65,8.14,4.37C555.29,278.52,549.78,278.05,548.05,280.81Zm15.77-69.31a7.88,7.88,0,0,1,2.58-1c.13,2.53.25,5.06.41,8.24C562.75,216,560.8,214.22,563.82,211.5ZM443.69,522.06c-6.5-.13-2.29-5.37-3.6-7.67.05-4.53-.74-9.73,5.63-9.46,4.14.18,7.66,3.36,7.18,7.64C452.35,517.49,450,522.18,443.69,522.06Zm31.55-20.57c-7,.39,0-5-2.84-7.46-.34-3.7.76-7.7,5.31-8,1.73-.1,6.57,1.48,5.91,6.55C482.93,498,480,501.23,475.24,501.49ZM621.4,380.76c-.38.21-1.83-.83-2.26-1.59-2.21-3.88,2.29-4.11,3.93-5.95C622.24,375.8,624.51,379.09,621.4,380.76Zm31-122.82c-.69-.1-1.87-1.68-1.7-2.09a62.43,62.43,0,0,1,3.35-6.17l3.34,3C654.35,253.72,656.32,258.53,652.35,257.94Z"/><path class="cls-1" d="M638.07,502.49c-13.59-4.84-17.53-3.4-21.85-3.88-1.51.28-10.64-1.09-29.85,9.55-38.69,21.42-36.62,88.07,7.94,95.89,17.52,3.08,42.33-8,35.54-28.19-2.16-6.48-17.38-15.17-18-17-.58-1.55.48-12.9,11.72-10.62,28.85,5.87,37.34,48.39,6.73,70-30.37,21.44-72.89-12.75-77.87-16.75-20.85-16.76-31.13-29.58-54.77-5.34-24.05,24.7-3.69,29.95,29.4,54.12,14.43,10.54,48,28.52,82.9,29.7-1.79-5.26-1.43-8.46,2.12-10.83.6-.39,2,.35,3,.56l-2.81,10.37c17,.2,34.25-3.67,49.61-14.6,15.84-11.28,24-18.76,33.57-39.63,10.85-23.51,8.16-51.16,3-65.81C684.41,520.81,671.21,514.32,638.07,502.49ZM622.85,662.73c-3.7-3.89-.89-5.81.69-7.81.22-.28,1.7.44,2.6.7C625.1,657.88,624.05,660.14,622.85,662.73Zm30.77-113.4c-1-.06-2.6-1.82-2.52-2.7a4.16,4.16,0,0,1,2.71-2.74c1.41-.37,2.52.76,2.38,4.1C656,548.08,654.79,549.39,653.62,549.33Zm13.16,102c-4.77,1.65-2.86,5.89-5.26,9.5-.5-5.39-1.91-9.59,2.4-12C666.36,647.52,668.49,650.74,666.78,651.33ZM697.3,585c-1.46.34-3,0-3.28-1.66-.13-.64,1-2.22,1.38-2.15a11.73,11.73,0,0,1,3,1.28C699.74,584.94,698.06,584.81,697.3,585Z"/><path class="cls-1" d="M638.42,435.7c-3.37,5-17,18.75,2.48,33,11.59,8.5,12.74,5.52,27,6.86,2.53-.63,5.23-.32,7.75-.94C686,472.13,689,466.15,689.62,465,704.13,436.43,666.22,394.63,638.42,435.7Zm4.6,28.84c-1.91,0-3.61,0-4.09-2.64-.52-2.85-2.19-5.59-2.19-8.38,0-1.63-4.23-3.79,0-5,2.36-.67,5.43.12,4.23,3.09-2.21,5.46,5.63,4,4.82,8C645.59,461.66,646.75,464.51,643,464.54Z"/><path class="cls-1" d="M157.65,391.21c-.27,2.66.31,5.35,0,8,.07.3,1.13,15.83,12.45,26.84,11.66,11.34,25.6,3.63,27.55,2.55,6-3.29,25.63-26.52,17.88-38.76C202,368.46,160.53,363,157.65,391.21Zm10.24,16.57c-4,.67-6.24-2.25-6-6.42.3-6.62,4.62-10.45,10.32-11.67,5.09-1.1,3,3.84,3.5,5.87C176.37,402.17,174,406.73,167.89,407.78Z"/></svg>