<svg id="Guías" xmlns="http://www.w3.org/2000/svg" viewBox="0 0 850.39 850.39"><defs><style>.cls-1{fill:#fff;}</style></defs><path class="cls-1" d="M449.34,270.7c.88,12.47-37.45,90.62-33.88,129.24a8.09,8.09,0,0,1,8.3-1.76c-2.19,4.3-4,8-5.94,11.57a21.43,21.43,0,0,0,2.28,4.54c10.4,14.19,25.07,40.18,45.94,63.07.61,0,1.33-.15,1.69.08,6.46,4.13,11.32-.51,15.44-3.37,10-6.95,20.39-10.08,32.13-6.27,3.36,1.09,7.53,1.59,8.66-.79,6.43-13.55,16.72-5.52,25.23-4.52,3.63.42,7.17,2.68,10.8.63,3.32-1.88,4.49,1.16,5.63,2.52,1.72,2.05,1.58,4.58-1.91,5.52-.93.24-2.37,1-2.42,1.69-1.3,15.62-11.34,10.68-20.11,8.75-.64,9.82-10.14,1.71-13.8,6.19-.6.75-4-1.42-3.78-5.42.27-4.42-18.32-12-21.57-9.13-2.39,2.09-1.52,5,1.24,5.68,5.34,1.4,5.55,7.73,4.32,8.61-2.91,2.11-5.35,6.4-10.37,5.08a45.08,45.08,0,0,0-16.72-1,128.06,128.06,0,0,0,33.75,21.88c3.55-1,6.35-1.08,7.45,2.74a101.88,101.88,0,0,0,44.92,4.69,6.51,6.51,0,0,1,1.48-2.32c2.12-2,1-7.76,6.35-6a10.26,10.26,0,0,1,6.35,5.85c3.47-.8,6.86-1.42,10.45-2.56,21.69-6.86,1.86-17,2.73-49.52-.12-.07-.26-.08-.37-.15-4.38-3.23-8.6-6.68-13.93-10.85,5.65-3.36,10.55-6.32,15.36-9.13-2.3-21.91-26.14-35.23-29-63.58-4.51-44.53-13.87-40.76-34.36-80.19-2.48-10.66-3.85-18.25-5.19-24.58-.4,0-.58.24-1.06.23-5.86-.12-11.29-1.47-11-9.14,0-1.27.9-3.62,1.32-3.61a12.2,12.2,0,0,0,6.58-1.74c-3.29-7.77-8.7-15.15-20.62-27.75-4.62-4.87-9.33-15.2-13.17-24.66-5.77.77-17.47.41-18.67-1.3-1.05-1.51-3.06-3.25-1.56-5.51,2-3,2.67-7.63,8-7.5a10,10,0,0,1,7.28,1.69,52.07,52.07,0,0,0-2.87-6.76c-3.07-4.44-37.07-53.84-39.55-54.72-4.66-1.66-10.38.9-7.46,61.38C434.16,208.15,448.21,254.62,449.34,270.7ZM570.55,441.15c3.57.65,9.74-3,11.76,2.51,1.83,5-1.77,9-7.79,9.69-5,.58-10.5,1.88-12.3-4.35C560.56,443.26,565.73,442.45,570.55,441.15ZM541.7,386.71c-1.42,4.46,1.47,5.6,3.34,6.56,4.72,2.42,6.43,6.36,3.13,10s-9.17,5.21-12.73.63c-4.27-5.49-9.67-6.81-15.6-6.57-4,.17-6.2-.2-5.39-4.67.73-4.07,2.46-8,7.43-5.95,5.27,2.19,8.19,1.82,12.25-3C537.73,379.35,541.25,382.27,541.7,386.71Zm-13.89-32.89a24.55,24.55,0,0,1,6.12-.73c1.41.08,3.74,3.05,3.36,3.17-7.87,2.45-3,9.06-4.78,12.65-1.86,3.85-9.8,4.34-15.38,4-2.94-.17-3.36-4-2.86-6,1.14-4.52.05-10.87,7.35-11.67C523,355.14,524.35,354.66,527.81,353.82Zm-7.53-40.32c.93,1-.39,3.9-2.57,3-4.09-1.61-10.91,5.81-12.26-3.21-1.37-3.4.3-4.69,2.69-4.6C512.68,308.88,517.14,310.08,520.28,313.5Zm-12-40.08c.89,2.67-2,3-3.83,3.59-3.58,1.17-5.53-1.91-8.72-3.31,1.72-1.31,3.25-3.41,4.7-3.36C503.19,270.43,507.06,269.86,508.25,273.42Zm-25.71-40.31c3.13,1.19,6-.52,9-.74,4.79-.34,9.18,1.84,10.57,6.11,1.62,5,.92,11.64-2.25,15-3.59,3.85-11.88,3.29-12.84-2.38C486.05,245.15,481.17,240.47,482.54,233.11Zm3.87,128.53c6.6-1.95,9.33,3.52,12.47,7.18,1.77,2.05-.62,5-3,5.52-5.62,1.26-9.29-4.08-14.34-5.35C480.9,368.83,481.74,362.32,486.41,361.64Zm-3.84,45.64c.53,3.88.43,7.92-3.88,7.51-5-.48-12.73,1.87-14.26-4.6-.93-3.93,5.52-5.74,10.19-6.56C478.11,402.5,481.71,401,482.57,407.28Zm-21.91-36a9.36,9.36,0,0,1,12.26,5.41c2.17,5.74-4.71,19.3-10.07,20.66-3.67.93-9-3.41-10.82-9.52C454.51,382.54,454.12,374.31,460.66,371.23Z"/><path class="cls-1" d="M305,360.75c60.08-2.05,59.08,4.95,82.15,18.21,8.3,4.76,33.13-29,6-67.37-32.77-46.34-29.57-50.83-45.83-54.34-14.93-3.22-43.45,80.21-49.7,93.46.31,9.25-6.83,6.87-6.51,16.18C291.53,377.56,294.86,365.26,305,360.75Zm61.78-59.53c1.69,0,3.33-.42,3.27,1.62,0,.74-1,2.12-1.35,2.07-1.2-.15-2.79-.52-3.4-1.39C363.66,301.16,367.23,302.6,366.81,301.22Z"/><path class="cls-1" d="M582.46,539.48a5.26,5.26,0,0,1-2.6,3.58c-3.45,2-6.71.55-9.13-1.66h0c-42.83,8.53-64.35-14.83-79.62-19.09-3.66-1-8.1,4.87-12.17,14.08,3.52,1.12,5.58,4.32,7.56,7,1.55,2.12-1.65,3.5-3.6,3.58a17.63,17.63,0,0,1-7.62-1.06c-6.7,19.79-11,46.87-5.84,60.66,32.3,87.09,32,92.26,45.61,90.95,54.56-5.26,18.62-53.92,15.77-57.78-1.8-2.73-3.15-5.13-4.57-7.58-2.5.92-5.33.9-8.05,1-.59,0-2.77-.49-2.25-2.64.77-3.24,3-4.74,6.26-6-.3-.62-.61-1.25-.88-1.85-3.85.38-6.84,1.69-9.9,2.1-9.14,1.22-14.26-3.23-13.92-12.07.36-9.43-9.11-11.84-14-16.68-3.54-3.51-3-5.92-2.91-8.81.22-5.37,3.9-3,6.89-2.56,1.41.19,4.41-1.38,4.35-1.8-2.53-16.45,17.05-5.22,19.78-15.61.32-1.23,8.08,7.2,6.33,10.52-1.61,3.06-3.21,5.54,1,7.69,3.75,1.91,7.38,2.22,10.56-.83,2.81-2.68,3.24-6,.3-8.78-6.65-6.22-3.75-12.26.83-17.34,3.55-3.93,9.39-4.31,10.28,2.06C542.64,573,551,581.57,556,592.1c5.31-2.44,3.23-14.7,13.73-9.84,1.8.83,6.2-1,5.21,2.4-1.19,4.12,3.27,10.24-1.83,11.79a15.56,15.56,0,0,0-6.41,4c4,2.52,8.08,5,12.28,7.24,5,2.64,44.09,17.93,26.57-65.32C604.53,537.64,592.21,538.24,582.46,539.48Zm-95.73,35.08c-5.42,2.86-5.45-2.37-6.77-5-1.43-2.83,0-6.7-3.62-9.38,4.65,1.49,10.23-4,12.85,1.88,2.16,4.81-4.45,2.69-6.2,5.57,2.71,2.05,7.52-3.49,8.52,2.9C492.14,574.57,488.56,573.6,486.73,574.56Zm103.37-1.72c-3.1,2.16-4.81-.52-5.62-3.69-1.94-7.64,1.62-12.58,8.13-15.34,4.08-1.74,3.6,2.67,4.55,4.8C600.34,566.1,594.77,569.59,590.1,572.84Z"/><path class="cls-1" d="M449.46,567.22c12.37-43.14,25.23-48.19-5-81.54-16.53-18.26-36.51-74.23-47-44.75-20.26,56.79-15.49,63.45-68.57,91.93-30.45,16.33-96-25.72-87.81,34.79,4.94,36.53,7.05,54.41,39.68,37.14,84.12-44.54,46.5,29,38.27,40.45-32.63,45.43-.85,47.75,51.72,65.63,1.21.41,1.16.2,15.7,2.76,76.13-12,100.4,11.55,92.87-18C464.34,637,439,603.87,449.46,567.22Zm-67-30.28c-3.33,3.1-4,9.21-10.56,8.59-2.6-.16-6.15,3.78-8-.55-2.1-5,3.58-3.56,5.22-5.44a42.93,42.93,0,0,1,9.28-7.52c2.37-1.54,3.87-.95,5.37.46C386.15,534.69,384.1,535.42,382.47,536.94ZM432.1,506.2c-3.24,5-6.16,5.22-9.11,4.29-.57-.18-.47-2.49-.68-3.82Zm-14.24,6.39c2.95.7,6.84-.52,8.29,3.54,1.12,3.15-.69,5.52-3.62,6.29-4.25,1.12-5.61-3.18-7.66-5.39C413.51,515.57,415.62,513.56,417.86,512.59Zm-10,50.12c2.84-1.56,5.3-2,6.26,2.09,1.11,4.75-3,3.58-5.19,4.51-3.47,1.49-5.06.06-5.49-3.55C402.94,561.65,405.16,562,407.85,562.71Zm-7.06,30.17c2.68-5.76,5.38-10.22,11.35-7.84,2.83,1.12,4.83,6.08,3.57,7.76C411.63,598.26,406.74,593.1,400.79,592.88Zm25.54,14.66c-4.34,2.3-8.19.73-13.14-4.48,6.25-.32,10.33-5.7,14.92-1C429.56,603.59,427.8,606.76,426.33,607.54Zm12.77-40.76c-1,2.42-3.2,2.4-5.15,3-4.79,1.66-9.26,0-12.54-2.91-2.1-1.87-5.87-4.51-3.24-8.81,2.11-3.45,4.76-3,8.14-2,2.49.74,5.14,1.69,8.09.68,3.35-1.13,7.37-3.29,9.55,2C446,563.59,440.29,563.85,439.1,566.78Zm9.37-60.06a6.81,6.81,0,0,1,8.25,4.32c.63,1.76-1.52,6-4.49,6a7.52,7.52,0,0,1-7.65-5.63C443.55,507.72,447.57,508.37,448.47,506.72Z"/><path class="cls-1" d="M369.94,247.19c38.89,30.58,40.28,74.57,53.78,45.67,8.29-17.73,6.47-28.43,2.4-41.44-.57.32-.79,1-1.66,1-4.91.15-10-1.64-11.27-7-.62-2.7-.52-7.78,5.34-6.76a8.84,8.84,0,0,1,3.33-.53,153.39,153.39,0,0,1-6.29-31.48c-2.13,0-4.12-.38-5.58-2.68s1-3.94,5-5.12a237.73,237.73,0,0,1,1.75-40.48c.18-1.49,4.33-35.79-12.32-14.23-.34.45-24.44,42.3-26.57,46-.34.62-.68,1.07-1,1.66,1.81.48,3.89,1.55,6.93,2.27-4.84,2.24-7.4,4.15-9.9,2.56C358.43,220.92,344.81,227.45,369.94,247.19Zm43.22,13.15c1.31.86,3.19,1.42,3.82,2.63,1,2-.7,2.83-3.5,3.25-.8.09-2.59,0-2.23-2.44C411.43,262.57,412.49,261.48,413.16,260.34Zm-1,18.45c1.46.65,3.76-.23,4.35,1.87.69,2.44-1.52,2.73-3.08,3a3,3,0,0,1-3.7-2.46A2,2,0,0,1,412.21,278.79Z"/><path class="cls-1" d="M252.39,518.88c4.48,8.1,4.57-1.93,13-5.51,35.7,2.7,57.84,2.86,74.77-8.81-2.8-1.49-4.21-5.42-4-11.9,3.62,5.59,6.83,6.47,11,1.54a7,7,0,0,1,6.4-2.63c5.15-6.78,9.94-15.53,14.73-26.37a.88.88,0,0,1-.06-.1c-.93-2.67.58-3.77,2.15-4.63,5.15-12.33,10.36-27.26,16.08-45.41,10.33-32.8-99.16-47.42-105.31-24.49-2.2,8.25-2.89,16.87-4.79,25.2-2.63,11.51-20.21,34.2-20.67,47.29-1.25,36-.8,35.25-2.23,47.72C255.74,514.86,250.14,514.83,252.39,518.88Z"/></svg>