<svg id="Guías" xmlns="http://www.w3.org/2000/svg" viewBox="0 0 850.39 850.39"><defs><style>.cls-1{fill:#fff;}</style></defs><path class="cls-1" d="M312.13,603.92l-35.54,61.55a41,41,0,1,0,71.07,0Z"/><path class="cls-1" d="M432.72,517.79l-35.54,61.55a41,41,0,1,0,71.07,0Z"/><path class="cls-1" d="M269.24,456.68c-.55-.63-1.06-1.28-1.69-1.88C268.13,455.41,268.64,456.08,269.24,456.68Z"/><path class="cls-1" d="M593.92,279.77c-1.78-86.54-72.73-156.4-159.69-156.4A160.27,160.27,0,0,0,282.35,233.53a95,95,0,0,0-123.76,18.41,95.42,95.42,0,0,0-21.22,77.42c7.38,45,47.2,78.35,92.88,78.73a4.78,4.78,0,0,1-1.13-2.32c-.2-3.24,0-6.12,4.45-6.24,3.05-.08,4.93.39,5.11,4.15a8.55,8.55,0,0,1-1,4.32c.68,0,1.37,0,2-.1a118.56,118.56,0,0,0,23,41.12,8.31,8.31,0,0,1-.58-4.17c1.26-10.78,2.83-21.53,4.36-32.27.2-1.43.17-3.85,2-3.58,7.34,1.07,14.48,1.94,21.39-2.09,1.17-.69,2.22,1.68,2.66,4-1.21,1.68-4.2,4-4,5.92.58,5.95-3.12,11-1.36,17.61,3,11.37-3.4,20.95-7.7,31A119.45,119.45,0,0,0,354.06,492c2.35,0,4.72-.06,7.06-.2A119.93,119.93,0,0,0,414.7,475.5l.28-.16a138.94,138.94,0,0,0,22-17.19c.17-.15.73-.74,1.14-1.15-1.73-1.71-4-2.87-8-1.91-2.31.55-2.07-5,.62-7.28,4.63-3.89,9.46-7.54,15.35-12.21,3.1,10,5.89,18.3,8.13,26.73a8.62,8.62,0,0,1-1,6.84C479,508,520,557.57,582.7,557.57h2.06c69-1.21,129.57-65.87,129.56-138.4C714.31,349,662.25,289.74,593.92,279.77Zm-26,49.23a10.38,10.38,0,0,1-9,11.82c-6.77.85-19.61-10.12-19.68-16.27-.05-4.2,6-8.84,13.1-9.19C557.31,319.4,566.3,321.13,567.92,329Zm-33.06-64.63a7.26,7.26,0,0,1,6.39-4c3.89-.26,2.32,3.8,3.22,5.59,2.4,4.72,8.17,8.88,4,16.19-4.19-3.59-7.82-6.57-11.28-9.73C534.84,270.26,533,268,534.86,264.37Zm-18.68,72.74c1.81-5.26,1.29-14.24,8.68-14.21,4.49,0,4.77,7.46,4.43,12.71.31,4.07,1,8.34-6,7.64C518.94,342.82,514.61,341.65,516.18,337.11Zm-84.52-84.88c-.57,3-1.13,5.9-2.05,10.7-4.55-4.81-4-8-2.26-11C427.69,251.4,430.17,252.11,431.66,252.23Zm-5.24-6.34c-1.53,3-1.22,7.52-6,8-3.7.38-5.78-2.19-5.85-5.55-.1-4.89,4.9-5.23,7.82-6.87C424.34,240.4,426,243.21,426.42,245.89Zm-40.07,53.78c.13,8.52-6.18,10.22-11.14,12.27-2.7,1.11-3.36-2.7-2.93-4.83,1.14-5.71,3.37-11.1,10.08-11.82A3.5,3.5,0,0,1,386.35,299.67Zm-18.86-78.25c-.7-4.14,1.26-5.48,5.27-5,4.57.55,3.65,2.86,2.14,5.57.94,3.47.78,6.25-3.89,6.21C365.59,228.16,367.93,224,367.49,221.42Zm-.61,14.13c2.57-1.78,6.4-5.16,10.36-1.2,3.17,3.18,2,5.93,0,9.32-1.44,2.49-3.16,5.11-2.84,8.56.35,3.91,1.63,8.82-4.64,9.79-5.79.9-4.6-5.29-7.45-7.34-2.36-1.7-1.75-4.08-1.88-6.34C359.92,242.73,362.87,238.34,366.88,235.55Zm-22.73-29.06c5.53,4.4,9.64,8.48,5.52,14.31-2,2.76-7.83,3.63-9.32,1.83C335.52,216.79,342.37,212.86,344.15,206.49Zm-14.23,10.73c-1.27,6.84,3.47,12.65-2.85,16.38-2,1.17-4.95-1.56-5.41-3.35C320.31,225,323,221.21,329.92,217.22Zm-57.78,56c1.83-2,1.44-4.26,1.59-6.5.23-3.27,2.45-3.85,4.85-3.06,3,1,2.81,3.88,1.41,5.64-9.67,12.13,4.1,7.64,4.95,10.33,4.58.37,8-.75,8.43,1.68.41,2.16-1.84,6.94-2.56,6.87-5.28-.51-8.85,10.66-15.42,1.82C271.33,284.53,265.75,280.2,272.14,273.2Zm-43.87,121c-.94.7-4.08.36-4.17,0-.88-3.48.17-6.41,3.9-8.11C229.41,388.6,232.14,391.32,228.27,394.18Zm-1.9-25.42c-2.06-.28-1.86-2-1.9-3.37-.05-2,.27-3.78,3.8-3.22.6.9,2.43,2.46,2.19,3.59A3.73,3.73,0,0,1,226.37,368.76Zm1.86-22.9c-6.41,1.76-11.1,3-16.29-2.4-8.39-8.78-8.51-18.19-3.91-28.5a3.39,3.39,0,0,1,2.36-2c7.28,2.32,14.12,3,18.51-5.13-5-3.66-8.15-9.39-11.83-13.94s-6-15.21,4.48-18.31c5.77-1.7,5.3-12.61,11-9,4.59,3-4.64,11.72-2.67,13.81,6.75,7.18-5.35,19.9,7.88,24.16.12,0,1.24,2.75-.71,2.46-1-.15-1.77-2.32-3.64-1.57,1.88,5.8-.64,10.38-5.16,14.49,4.27,3.44,13,.44,11.81,7.52S238.41,343.07,228.23,345.86Zm15.93,58.24c-6.2-1.25-2.95-7.42-5.27-10.88-1.2-1.79,1.19-3.85,3.27-4.82,3.62,3.11,6.39,6.45,5.89,11.68C247.8,402.78,247.23,404.72,244.16,404.1ZM306.8,451c2.61-6,7.16-10.46,14-11.65,5-.87,4.6,2.68,4.65,6.09-.37,9.74-10.69,3.8-14.53,8.77C309.41,456.11,306.1,452.58,306.8,451Zm23.23,5.6c-.67,8-.61,13.68-7.19,12.89-2.83-.34-7.64-1.35-7-6.82.68-5.79,3.67-8.8,9.47-9.34S330,456.62,330,456.56Zm-.1-29c-8.93,1.49-11.24-5.45-13.53-11.33-1.52-3.92,1.82-5.07,5.45-5.11,8.76-.11,13.16,5,14.45,12.78C337.11,428.72,332.47,427.05,329.93,427.52Zm12.43-61.27c-13.73-1.36-25.18,5.4-37.86,8.07,1.25,6.37,15,7.32,7,17.4-1.36,1.72-.48,7-4,5-4.14-2.35-11.92.87-12.25-5C295,386.2,291.9,383,290,378.9c-4.39-9.33-1.5-17.1,4.14-24.46,1.88-2.45,5.46-5,2.4-7.69-1.71-1.51-5.32.35-6.53,3.82-.92,2.64-3.34,5.14-5.7,2-3.73-5-7.15-1-10.66-.57,0,.16,0,.34,0,.51h-.11c8.44,11.07,8.49,11.86-5.16,15.42-6.85,1.79-12,5.44-18.65,11.56,1.38-12.69-1.43-23.21,5-33,1.53-2.34,2.4-3.32,4.82-3.34s5,.32,4.74,3.55c-.7,8.27,5.29,5.38,9.28,5.84-.13-.17-.16-.24-.3-.42.14,0,.28-.09.42-.1-.27-5.08,1.89-10.51-2.34-15s-2.25-9.41-1.35-14.23c.13-.65,1.26-2.87,3.45-1.75,4.82,2.46,4.89,7.23,5.28,14.16,3.3-7.38,1.54-12.57,2.06-17.55,1.07-10.19,7.21-14.56,16.67-11.88,10.09,2.85,15.17-6.76,21.66-10.76,4.72-2.9,7.19-1.73,10.28-.84,5.74,1.64,2.2,5,1,8.11-.58,1.46.34,5.12.81,5.16,18.42,1.57,1.19,19.78,11.69,25.44,1.24.67-9.89,6.84-13,4.1-2.89-2.54-5.14-4.92-8.58-.9-3,3.55-4.32,7.39-1.86,11.62,2.17,3.73,5.67,5.07,9.41,2.61,8.45-5.55,14.22-.84,18.51,5.43C350.58,360.54,349.47,367,342.36,366.25Zm2.25-55.95c-4.52-.37-2.54-4-3.1-6.21-1.67-6.6,4-5.27,7.16-6,3.43-.8,7.25,1.71,11.08-1.46-2.82,4.63,1.63,12.09-5.38,13.39-5.76,1.08-1.75-5.51-4.4-8.15C347.05,304.25,351.78,310.89,344.61,310.3Zm41,104.71c-2.43,3.88-6,6.85-11.18,5.87-4.76-.9-9.52-1.86-14.29-2.69-3.67-.64-7.67-1.16-8.87-5.29-1.41-4.9,1.92-8.43,5.56-10.35,2.85-1.5,5.79-1.68,7.59-5.33,1.06-2.16,6.2-4.48,7.17,0,1.23,5.67,6.92,5.45,9.2,9.36C382.4,409.4,388.87,409.74,385.57,415Zm8.4-57.79c-7.79-.79-6.32-7.46-7.58-12.15-.65-2.4,1.18-6.84,3.58-4.27,3.17,3.41,14.69-3.65,10.31,7.5C400.65,353.62,400.62,357.9,394,357.22ZM409.36,201.3c-2.48-4.4-8.89-6.76-6.52-13.64.85-2.77-2.49-7.63,2.67-8.47,5.93-1,2.91,4.79,4.51,7.05a47.55,47.55,0,0,1,5.7,12c1,3,0,4.43-1.9,5.68C410.83,205.87,410.58,203.46,409.36,201.3Zm3.26,80.53A8.37,8.37,0,0,1,420.7,275c4.27-.14,2.52,4,4.08,5.43a7.57,7.57,0,0,1-6.83,7.78C415.89,288.47,411.85,285.05,412.62,281.83ZM442.76,412.3c1.16,4.07-2.42,4.54-4.19,5.42-2.67,1.32-5.36.51-5.46-3.5,0-1.07-.52-2.83-1.2-3.06-16.54-5.48-8.58-15-4.2-24-10.45-3.24.79-11.39-3.09-16.51-.64-.85,2.59-4,6.84-2.67,4.71,1.44,17.72-16.66,15.5-20.92-1.64-3.12-5-2.93-6.47-.14-2.9,5.41-9.79,4-10.43,2.43-1.51-3.7-5.51-7.46-2.77-12.54a47.92,47.92,0,0,0,6.27-24.07c-.09-5.72,4.14-10.26,10.44-11.47,2.6-.5,5.92-1.57,7.52,1,1,1.64,1,5.51-.15,6.65-6.15,5.9-2.41,12.35-.39,17.55,4.89,12.64,5.57,24.65-1.61,36.34-2.05,3.34-3.68,7.71-1.41,9.55,13,10.48,1.6,19.5-1.7,28.43C444.85,404.61,441.49,407.84,442.76,412.3ZM458,441.48c-5.91.67-9.26-4.26-8.44-10.94.67-5.51.71-11.83,7.91-12.15,6.63-.3,6.15,5.5,6.3,11C462.09,433.12,464.46,440.74,458,441.48Zm4.37-241.65c-2.14-5.31.08-7.37,2.92-8.84.66-.34,2.78.46,2.84.92C468.66,196.31,464.52,197.12,462.33,199.83Zm2.39-25.5c3,4.1,2.66,9.56-3.1,11.4-7.08,2.27-5.67-5.37-6.55-8.09-4.3-13.18.5-18.52,14.2-14.83C462.29,165.27,460.5,168.51,464.72,174.33ZM492,218.51c-3.2-1.31-4.16-4.38-4.68-6.92s-1.69-6.42,3.34-6.91c4.72-.45,4.23,4.08,5.27,6.19C497.31,213.69,494,216,492,218.51ZM522.1,414.38c-3.84,4.46-8.55,5.28-11.56.78s-3.23-11.26,2.63-13.91c7.05-3.18,9.89-8.67,11.17-15.14.87-4.39,1.84-6.64,6.45-4.6,4.21,1.85,8,4.75,4.49,9.58-3.74,5.12-4.1,8.37.07,14,3.7,5-.38,8.06-5.3,7.38C525.61,409.79,523.62,412.61,522.1,414.38Zm30.53,40.35c1.7,9.56-4.94,11.94-11.41,12.45-8.45.66-7.19-7.87-7.85-12.35-.54-3.64.74-11.54,6.93-10.36C545.22,445.41,555.89,443.37,552.63,454.73Zm16.57-48.67a27.12,27.12,0,0,1-.81,6.81c-.45,1.49-4.26,3.24-4.29,2.8-.6-9.15-9-5.67-12.42-8.47-3.68-3-2.13-11.72-.33-17.66.95-3.13,5.21-2.58,7.2-1.53,4.58,2.42,11.72,2.89,10.68,11C569,400.53,569.2,402.11,569.2,406.06Zm-8.65-35.15c-2.68,1.37-5.22-2-5.17-4.71.11-6.4,6.83-9,9.52-14.1.33-.62,7.15,2,6.66,7.21C572,367,565.32,368.46,560.55,370.91Zm16.33-129c-2.28.44-2.61-2.13-2.93-4.06-.53-3.09.81-5.94,3.28-6.62,1.66-.46,3.66,2.14,3.76,5.06A4.93,4.93,0,0,1,576.88,241.87Zm35.74,227.26c-5.15-.19-6-3.61-6-8,0-3.67.54-5.92,5-5.52,5.41.48,4.44,4.32,4.58,7.86C615.79,465.74,617,469.29,612.62,469.13Zm2.1-60.68c-1.35.74-4.11-1.43-2.62-3.57,2.81-4-3.43-13.3,6.67-12.4,4-.59,5,1.54,4.27,4.11C621.68,401.45,619.23,406,614.72,408.45Z"/><path class="cls-1" d="M214.5,460.37,179,521.92a41,41,0,1,0,71.07,0Z"/></svg>