<svg id="Guías" xmlns="http://www.w3.org/2000/svg" viewBox="0 0 850.39 850.39"><defs><style>.cls-1{fill:#fff;}</style></defs><path class="cls-1" d="M822.43,395.38c-4.21-28.49-17-52.89-35.19-74.81-13.14-15.85-28.74-29.08-44.59-42-32.38-26.46-66.42-50.42-104.15-68.76-29.5-14.33-60.09-25-93.31-26.2-35.34-1.26-65.85,10.1-91,35.13A164.14,164.14,0,0,0,433,244.86c1,.55,2.18,0,3.07-.07,3.32-.41,4.95,0,3.08,3.66a5.12,5.12,0,0,0,2.37,7c2.51,1.18,4-1.4,5-4,1.41-3.7,5.48-4.55,8.32-6.74,1.64-1.27,2.45.16,3.07,1.34,1.67,3.17,2.49,7.78-.13,9.34-8.08,4.81-10,14.57-17.34,19.8-2.65,1.88-16.33.32-17.2-2.56a2.77,2.77,0,0,1,1.64-3.35c6.39-2.49,4.21-8.65,5.42-13.21.68-2.59-.71-3.26-2.3-3a240,240,0,0,0-12.35,23.53C410.15,288.84,404.4,292,390.94,291a64.81,64.81,0,0,0-14.67.41c-38.15,6-62.68,41.52-54.84,79.45,1.87,9.05-.73,16-8,21.53-12.91,9.79-27.27,17-42.14,23.16-38.93,16.17-79.07,29-119.17,41.81-6.57,2.11-12.51.62-18.15-3.3-21.61-15-44.76-17.52-68.51-6.39-22,10.32-35,28.13-38.13,52.44-3,23.55,1.31,45.66,15,65.31,10.1,14.44,24,21.39,42,18.68,7.81-1.18,12.45-7.47,11.15-15.2-1.41-8.4-2.83-16.8-4.28-25.43l22.89-4c.36,1.84.69,3.25.92,4.69,3.14,19.54,19.75,31.94,38.87,28.37,18.93-3.54,31-19.68,27.55-38.83-.79-4.36-1.36-8.77-2.1-13.66l23.21-1.91c.58,3.23,1.22,6.24,1.63,9.28,1.56,11.4,6.25,20.83,16.69,26.6,16,8.84,40.42,9,47.91-19,1.12-4.21,2.1-8.45,3.12-12.68,1.49-6.13,5.27-9.77,11.48-10.57,7.5-1,13.66,2.6,19.83,6.18,8.68,5,17,11,26.32,14.58,41.19,15.78,80.47,12,116.59-14.19,7.88-5.72,14.57-13.12,21.6-20,10.66-10.38,22-19.56,36.75-23.58a57.86,57.86,0,0,1,34.9.93c-2.34,6.84-4.49,13.37-6.89,19.81a3.41,3.41,0,0,1-2.94,1.49c-14.53-3.6-26.65,1.44-37.25,10.77-8.38,7.38-15.8,15.89-24.33,23.08-36.7,30.9-78.81,40.53-125.42,30.28-17.26-3.79-33.84-9.61-46.33-23.26a13,13,0,0,0-2.52-1.69c-3.28,11.24-8.35,21.59-15.78,30-14.6,16.54-33.63,19.2-54.24,14.09A59.77,59.77,0,0,1,198.77,567c-8.69,14.61-21,23.91-37.15,27.88s-31.54,1.42-45.79-8A37.53,37.53,0,0,1,95,605.71a9.66,9.66,0,0,0,0,1.57c4.5,24.54,18.47,42,40.34,53.36,9.74,5,20.25,7.86,31.21,5.32a122.64,122.64,0,0,0,20.77-7.1c8-3.44,15.53-7.9,23.44-11.53,39.76-18.28,81.65-19.76,124.19-15.23,15.76,1.68,31.49,3.81,47.17,6.22,17.08,2.62,34.33,4.79,51,9,27.45,6.87,55,12.53,83.3,13.72,35.34,1.49,70.23-1.66,104.38-11.39,43.33-12.34,81.78-33.35,114.64-64.37,14.95-14.11,27.23-30.41,39.79-46.57,15-19.28,28-39.55,36.87-62.34C822.3,450.22,826.55,423.33,822.43,395.38ZM46.9,535.13c-1.52.39-4.35,3.28-6.22-.59-1.48-3-.33-4.53,2-6.07,2.14-1.39,4-2,6.1.65C49.08,531.31,49.58,534.45,46.9,535.13Zm22.77,8.55c-2.52,1.83-4.56,2.58-6.37.09s1.38-4,2-4c2.19,0,4.79-2.44,6.44-.3C73.62,541.9,70.63,542.8,69.67,543.68Zm98.46-8.82c-.24,0-1.2,0-1.26-.13-.3-1.09-.34-2.3,1-2.7a1.79,1.79,0,0,1,1.54.73C170,533.75,169.29,534.32,168.13,534.86ZM332.59,354.47c-3,1.51-3.79-2.24-5.41-2.3-1.46-1.88-1.87-3.14,0-3.86,2.5-1,5-.71,6.58,1.58A2.92,2.92,0,0,1,332.59,354.47ZM355.31,340c1-.91,1.61.24,2.15.85,1,1.08.68,2-.66,2.77-.71.24-1.62,1-2.31-.07C353.55,342.13,354.3,340.88,355.31,340Zm-6.68-11.05c-2.66,2.72-5.25.22-7.79-1.11-1.31-1.57-.61-2.72.78-3.89,2.65-2.23,5.38-2,7.88-.08S349.55,328,348.63,328.92Zm74.28,26.34-12.6,28.14a16,16,0,0,1-21.1,8.05l-28.15-12.6a16,16,0,0,1-8.05-21.1l12.6-28.15a16,16,0,0,1,21.11-8.05l28.14,12.6A16,16,0,0,1,422.91,355.26Zm21.5,149.2c-2.48,2.41-3.33.9-4.62-.58-2-2.25-1.09-5.16.43-5.55,2.64-.69,6.68-3.37,8.13-.81C449.94,500.32,445.22,502.24,444.41,504.46ZM114.27,610.77c-2.77,1.79-3.46,7.5-9.67,4.39,1-1,1.6-1.57,2.16-2.18,1.85-2,2.81-5.44,6.73-4.21C114.71,609.15,114.86,610.39,114.27,610.77Zm86.62,12.76c-.8.44-1.72,1.77-2.56.18a3,3,0,0,1-.25-1.6c1.72-1.16,2.54-1.37,3.25-.63S201.71,623.08,200.89,623.53Zm79.48-58.76c5.89-5.91,5.68,3.54,9.17,4.13.6.1-2.07,9.56-3,9.83-3.8,1.12-8.43-1-9.3-3C275.84,572.54,275,567.4,280.37,564.77Zm-27.86,30.92c-5.77,3.34-9.35,8.57-12.23,14-8,1.48-12.33,9.69-21.33,8.22-4-.65-5.55-2.64-6.59-5.4-1.27-3.35,2.07-6.31,3.87-7,7.49-2.72,12.12-9.22,18.82-13,5.94-3.31,11,1.45,16.51.41C252.07,592.94,253.58,595.08,252.51,595.69Zm34.13,7.59c-4.51.25-7.16,3.63-10.12,6.67-2,2.08-4.86,2.26-7.55,2.13-1.74-.08-3.77-.24-4.45-2.46-.74-2.4.58-3.71,2.47-4.91,2.89-1.82,6.14-3.05,5.93-7.84-.09-1.88,1.53-6.84,6.21-3.55a2.77,2.77,0,0,0,3.21-.29c3.8-2.65,5.89.18,7.38,2.82C291.51,599.05,290.93,602,286.64,603.28Zm42.49-5.07c-3.77,2.76-7.8-.2-9.73-3-2.54-3.65,1.28-5.9,4.67-8.34,3-3.11,6.55-1.09,8.57,1.84C335.38,592.73,331.93,596.17,329.13,598.21Zm4.76-21.28c-2.26,1.86-4.59,4.82-8.06,1.15a9.86,9.86,0,0,1,2.11-1.81c2.1-.88,3.51-4,6.36-2.29C334.66,574.19,334.49,576.44,333.89,576.93Zm12.62,4.72c-1.29,1.34-5.4,2.25-6.46,0-1.61-3.5,1.58-5.86,4.17-7.9,1.88-1.44,4.81-3,5.69-.56C351,576.09,348.58,579.47,346.51,581.65Zm57.79-11.26c-.7.34-2,1.84-2.83-.15a3.08,3.08,0,0,1,1.11-3.57c1.26-1,2.25-1.08,3.23.42S405.89,569.46,404.3,570.39Zm68.43,7.1c-3.25,3.59-2.77,9.48-9.31,11.84-1.95-.19-4.82,4.6-8.71,2-3-2-3.26-5.42-3.3-8.85-.07-5.6,5.07-6,7.85-6,3.57,0,7-.06,10.27-1.29C472.26,574.17,473.5,576.65,472.73,577.49Zm17,.83c-2.59,1.42-5.12.73-7-1.67-1.19-1.46-1.53-2.7.45-3.8,2.48-1.38,4.94-2.25,7.11.33C491.83,575,491.89,577.15,489.73,578.32Zm8.93-9.38c1.61-2.82,3.16-4.28,7.37-3.65C503.65,567.82,502.21,569.51,498.66,568.94Zm23.9-7.17c-3.16,1.24-7,2.72-9.56.3-2.27-2.15,1.78-2.6,2.57-3.84,2.65-2,5.09-3.71,7.61-.18C524.29,559.59,524.61,561,522.56,561.77ZM578.5,239.42a3.4,3.4,0,0,1,2.37.1c1.53,1.1-1,1-.42,1.71-1,.4-1.91,1-2.32-.24C578,240.53,578.26,239.48,578.5,239.42Zm-50.65,4.94c3.82-3.24,8.24-1.45,12.63.41,1.15.48,2.06,1.7,1.52,2.68a16.92,16.92,0,0,1-3.38,3.61c-1.46,1.38-4-.59-5.32,1.86-2.22,4-5.84,5.31-9.64,2.67C521,253.75,523.35,247.37,527.85,244.36ZM514,273.27c2.2-1.54,4.2-1,5.53,1.45,1,1.72,2.48,3.35-.32,4.95s-4.22-.47-5.69-1.78S512.35,274.45,514,273.27ZM548.88,497.2c-3.52,1.14-4.55-2.21-6.74-3.06-.51-.21-2.37-1.74-.39-2.87a9.93,9.93,0,0,1,6.84-1.45C547.13,492.23,549.7,494.7,548.88,497.2ZM532.94,450l-34.76-15.56a23,23,0,0,1-11.57-30.33l15.56-34.76a23,23,0,0,1,30.33-11.57l34.76,15.56a23,23,0,0,1,11.57,30.33l-15.57,34.76A22.94,22.94,0,0,1,532.94,450Zm54,186.14c-2.26,1.5-4.17,2.78-6.81,3.18-2,.3-3.85,1.67-5.42-.42-1.71-2.28.55-3.07,1.87-4.17.32-.27.79-.83.7-1-1.1-2.6-2.22-5.58,1.42-6.62,2.63-.75,5,1.28,6.83,3.36.26.3.73.7,1,.63,1.77-.41,4.19-2.35,4.69,1C591.65,634.8,588.16,634.75,587,636.15Zm19.83-155.51c-6.81,6.29-15.32,7.88-24.1,8.73-2.88.28-5.35-.24-6.5-3.31-1.32-3.49,2.21-4,3.66-4.41,5.3-1.55,10.11-5.66,16.43-2.92,1.79.78,3.3-2.23,4.44-4.09,1.5-2.44,4.23-2.49,6.56-2.56,1.62-.05,2.18,2,2.77,3.48C607.73,476.46,611.13,481,606.79,480.64ZM628,473c-2.38-.65-5.17,1.69-6.38-1.09-.43-1,1.12-3.89,2.23-4.19,1.42-.38,4-1.87,5.15,1.1C629.61,470.56,628.76,471.74,628,473Zm17.73,96.1c.32-2.72-.12-5.76,3.78-6.07,1.89-.15,3.7,1.32,3.31,2.56C651.89,568.34,649.37,569.49,645.68,569.08Z"/></svg>