<svg id="Guías" xmlns="http://www.w3.org/2000/svg" viewBox="0 0 850.39 850.39"><defs><style>.cls-1{fill:#fff;}</style></defs><path class="cls-1" d="M629.18,406l-.43-.14a7.52,7.52,0,0,1,.1,2.72c-.14,2-1.52,3.58-3.62,3.36a2.26,2.26,0,0,1-2-3.25c.93-1.19,1.11-3,2.52-3.72-5.89-2.05-11.94-4-18.35-5.55,2.46-.61,2.87,1.48,2.59,4.63-.12.88-.72,2.77-3.22,1.76-1.26-.51-2.15-1.94-3.21-2.95,1.26-1.2,2.36-3.08,3.84-3.44-4.53-1.12-9.5-1.69-14.22-2.59a8.79,8.79,0,0,1-5.74,2.09c-2.41,0-6.15-1-6.45-4.3-12.46-1.86-25.15-3.22-38-4-.44.26-.57.71-1.14.9a2.33,2.33,0,0,1-2.9-1.25c-23-1.15-45.68-.79-65.68.16-.4,2-1.33,3.41-3.68,2.95A11.87,11.87,0,0,1,464,391c-5.79.34-11.69.68-16.81,1.08-.62,1.93-1.33,3.85-2.14,5.74a63.91,63.91,0,0,1-6.14,11c-.56.8-1.15,1.58-1.75,2.35L395.9,464.38c.29,1.15.67,2.24,1,3.39.18,0,.2-.11.41,0,1.26.51,2.15,1.94,3.21,2.95-.73.69-1.42,1.52-2.14,2.25q12.64,45.85,37.53,82.15c1.34-5,3.05-9.56,4.32-10.05,1.9-.75,4.31-2.46,6.36-.25,2.75,3,7.54,4.87,6,10.64-.43,5.8-4.37,8.58-8.49,11.2,4.26,5.51,8.74,10.86,13.46,16,.92-5,0-10.94,6.4-11.78,3.2-.42,5,2.69,5.1,6.42.22,8.37-7.18,3.69-10.73,6.13a249.42,249.42,0,0,0,31,28.29l.08.05c36,27.62,74,40.92,95.63,43.91,12.17,1.66,23.64-5.3,31.09-11.44,26.19-21.57,58.71-80.49,64.1-175.61v0C681.84,439.81,665.14,419.36,629.18,406ZM422.52,482.15c.84,7.67-4,8.64-9.88,8.66-4.08,0-7.41-1.69-6.54-5.84,1.12-5.35,4.39-10.42,10.51-10.34C419.69,474.66,425.15,476.09,422.52,482.15Zm36.89,20.13c-2.19.79-5.38-1.11-3.86-3.65,3.22-5.37-.69-14.16,6.66-16.64,3.63-1.23,4.58,3.94,4.24,10.85A10.75,10.75,0,0,1,459.41,502.28Zm6.27-79.34c-2.33-5.43,1.42-8.76,2.17-12.9.47-2.55,5.68-2,8.82-1.86,2.06.11,5.83.82,4.34,3.67-3.87,7.39,1,14.77-.73,23.53C476.26,429.09,468.68,429.9,465.68,422.94Zm14.67,21.13c.94-.59,3.79-.1,4.09.6,1.7,4.09-1.83,6-4.65,11.56C478.49,449.75,476.65,446.38,480.35,444.07ZM500.69,581.8c-3.51,4.63-6.58,1.14-9.35-1.79a25,25,0,0,0-3.62-2.65c-2.46,3.42-3.32,0-4.25-1.22a1.89,1.89,0,0,1,1.25-3.21c1.64-.26,2.66.81,3,2.44,3-3.6,4.34-11.73,11.55-4C502.45,574.8,503.09,578.63,500.69,581.8Zm61.75-83.27c6-.34.45,4.23.63,5.79,2,5.06,2.15,8.87-3.56,9.79-3.53.57-3.52-2.35-3.23-4.6C556.87,505,558.1,498.78,562.44,498.53ZM524.3,417.34c1.29,6.47,3.14,9.85-.57,12.16-.93.59-3.79.1-4.08-.6C517.94,424.81,521.48,422.91,524.3,417.34Zm-1.63,134c-.76-.25-1.2-1.48-1.57-2,.32-2.64,1.82-2.43,3.26-2a13.09,13.09,0,0,1,2.37,1.24C525.76,550.11,525,552.12,522.67,551.36Zm4.75-86c-2.06-.12-5.83-.82-4.34-3.67,3.87-7.39-1-14.77.73-23.54,4,6.3,11.6,5.49,14.59,12.45,2.34,5.43-1.41,8.76-2.17,12.89C535.77,466.08,530.56,465.56,527.42,465.39Zm9.24,29.86c-5.5-.16-6.67-4.18-6.21-8.16,0-3.8.24-7.69,4-7s8.15,2.32,7.8,8.1C542,492.17,540.91,495.37,536.66,495.25Zm26,92.75c.27,4-3,5.9-6,5.43s-7.52-.13-7.92-4.76c-.44-5-1.76-10.15,1-15.2,1.78-3.26,1.7-7.83,4-10.46,3.59-4.1-1.22-14,7.75-12.77,2.08.28,3,9.61,4.34,14.55C563.53,572.74,562.17,580.25,562.69,588Zm13.83,64.6c-3.24.48-4-1.08-4.61-4.52-1.1-6.68,9.16-18,15.74-16.59,1.54.32,2.69.47,3.26,2.48C592.45,639.44,582.6,652.68,576.52,652.6Zm3.34-37.89c2.93-4.41-.89-12.89,8.41-11.3,3.46.59,5.61,3,4.86,6.46C591.61,617,586,615,579.86,614.71Zm15.06-35c-1.59.31-3.38.11-3.72-1.69-.55-2.82,1.85-3.92,3.72-5.18,1.83,0,3,.62,3,2.6S597.26,579.31,594.92,579.75ZM637.75,465.8c-3,1.18-.5-2.3-2.1-2.2.46-1.82.42-3.71,2.6-3.11.8.22,2,1.6,1.89,2C639.66,463.74,638.85,465.36,637.75,465.8Z"/><path class="cls-1" d="M470.81,625.6C446.91,606.36,427,583,410.7,556.67c-.19,2-.14,4-.47,6-.88,5.26-4.38,9.44-9.35,9.82-5.82.45-12.82-2-15.66-6.35-3.23-4.89-.46-13.69,5.92-13.25,5.58.39,10.92-2.09,16.89-1.11a298.92,298.92,0,0,1-30.22-68.57A61.66,61.66,0,0,1,332,493.54c-9.41,17.26-22.77,35.08-39.08,52.11-19.14,50-23.4,87.5-12.3,108.46,5.23,9.9,14.09,16.17,27,19.16,94.1,21.7,146.65-7.11,152.31-16.81.46-1,1.21-2.53,2.06-4.24C464.94,646.31,469.23,637.78,470.81,625.6ZM313,633.19c-5.16-.19-6-3.61-6-8,0-3.67.54-5.92,5-5.52,5.4.48,4.44,4.32,4.58,7.86C316.2,629.8,317.42,633.35,313,633.19Zm2.1-60.68c-1.35.74-4.11-1.43-2.62-3.56,2.8-4-3.43-13.3,6.67-12.41,4-.59,5,1.55,4.27,4.11C322.09,565.51,319.64,570,315.13,572.51Zm9.33,81.57c-4.43,1.51-2.36-4.23-3.4-6.15,0-7.76,4.27-11.75,10.43-14,1.82-.65,4,.47,3,3.2C332.24,643.5,331.64,651.63,324.46,654.08Zm40.06-97.73c1,2.21,2.84,4.4,2.41,6-.83,3-1.22,7.32-5.38,7.67-3.11.26-2.71-2.89-2.88-5.08C358.34,560.74,362.18,559.43,364.52,556.35Zm1.7,48.84c-4.91.17-2.31-3.82-1.73-6.65.73-3.52-1.75-1.17-3-1.5-5-1.28-11.5-1.84-9.42-9.74,1.66-6.3,4.53-11.81,12.75-9.55,1.36.37,3.68,1.91,3.55,2.37-1.78,6.53,1.45,11.59,4.55,15.7C372.79,601.41,369.47,605.07,366.22,605.19Zm13.36,5.26c-1.76-.36-4.75-.06-4-2.53,1.07-3.32,1.73-7.68,6.15-8.65,2.92-.64,3.5,1.74,4.22,3.17C383.75,605.76,386.09,611.78,379.58,610.45Zm45.1,11.26c-1.64-.38-2.95-2.18-4.47-3.39a20.1,20.1,0,0,0-1.92,1.63c-2.48,2.56-5.35,3.71-7.61.3-2.06-3.11,1-6,2.34-8.35,1.93-3.31,17.61.48,18.08,4.31C431.61,620.43,428.93,622.7,424.68,621.71Z"/><path class="cls-1" d="M307.27,377.71l19.11-24.65a10.46,10.46,0,0,0,.1-1.73c-.14-1.88-.15-4.17,3.32-3.31.08.08.22.15.32.23l9.7-12.51a61.18,61.18,0,0,1,68.7-20.56c3.53-5.14,7.87-11.36,12.92-18.28v0l1.18-1.63c17.21-48.95,20.94-87.19,10.5-107.8-4.23-8.33-10.82-13.76-20.18-16.55a43.3,43.3,0,0,0-28.72,1.73c-65.36,26.7-102.3,55.32-112.89,87.47-8.86,26.83-.95,57.54,26.44,102.67C297.85,362.87,302.4,370.13,307.27,377.71ZM427.57,221c3.24-.47,4,1.09,4.6,4.53,1.11,6.68-9.15,18-15.73,16.59-1.54-.33-2.69-.48-3.26-2.48C411.64,234.13,421.49,220.89,427.57,221Zm-3.35,37.9c-2.92,4.4.9,12.89-8.4,11.3-3.46-.6-5.61-3-4.87-6.46C412.48,256.58,418.05,258.6,424.22,258.86Zm-15.06,34.95c1.6-.3,3.38-.1,3.73,1.69.55,2.83-1.86,3.93-3.73,5.19-1.82,0-3-.62-3-2.61S406.83,294.25,409.16,293.81Zm-48.05-61.13c3.76-.55,3.29,3.58,4.18,5.42s-2.05,4.53-4,3.65c-2.34-1.07-6.77-.9-6.42-4.84C355.1,234.26,357.6,232.5,361.11,232.68Zm-38-27.61c1.21-.58,3.45.69,3,2.47-.44,1.62-2.13,2.9-3.09,4.09-2.12-.12-4.09-.4-3.41-2.43A7.58,7.58,0,0,1,323.07,205.07Zm-43.68,60.41c-.52-10.93,6.8-9.41,13.14-9.35,3.21,0,5.9,2.36,4.9,4.75C293.53,270.23,285.5,263.67,279.39,265.48Z"/><path class="cls-1" d="M213.58,565.31c7-3.18,9.89-8.67,11.17-15.14.87-4.39,1.84-6.63,6.45-4.6,4.21,1.86,8,4.75,4.49,9.58-3.15,4.32-3.71,7.39-1.37,11.6a312.45,312.45,0,0,0,40.89-35,266.66,266.66,0,0,0,21.09-24.38,198.86,198.86,0,0,0,14.43-21.69c-1.22-.73-2.42-1.52-3.59-2.34-.67-.45-1.58-1.11-2.44-1.78a61.67,61.67,0,0,1-12-85c-4.22-6.36-8.09-12.36-11.66-18.12a135.94,135.94,0,0,0-32.81-4.44c-13.07,0-26.34,2.48-37.84,9.48-16.75,10.17-28.1,29.05-33.73,56.1-16.3,78.11.27,120.78,19.39,133.58a25.47,25.47,0,0,0,14,4.34C208.14,573.11,208.43,567.64,213.58,565.31ZM295.72,484c2.92-.38,2.52,2,2.53,3.72,0,1.57-.41,3-2.46,2.86s-2.19-1.6-2.2-3.16S294,484.25,295.72,484Zm-18.08-88.77c1.66-.46,3.66,2.14,3.76,5.06a4.93,4.93,0,0,1-4.12,5.62c-2.27.44-2.6-2.13-2.92-4.06C273.83,398.78,275.17,395.93,277.64,395.25ZM272,523.38c.39,7.63-6.24,9.14-11,11.59-2.68,1.37-5.22-2-5.17-4.71.1-6.4,6.83-9,9.52-14.1C265.64,515.54,272.45,518.15,272,523.38Zm-3.63-30.32a10.41,10.41,0,0,1-9,11.83c-6.77.85-19.61-10.13-19.68-16.27-.05-4.2,6-8.85,13.1-9.2C257.72,483.46,266.71,485.19,268.34,493.06Zm-33.07-64.63a7.28,7.28,0,0,1,6.39-4c3.89-.25,2.32,3.8,3.22,5.59,2.4,4.72,8.17,8.88,4,16.2-4.19-3.6-7.83-6.57-11.28-9.74C235.25,434.32,233.36,432.09,235.27,428.43Zm-18.69,72.74c1.82-5.26,1.3-14.24,8.69-14.21,4.48,0,4.76,7.46,4.43,12.72.31,4.06,1,8.34-6,7.64C219.35,506.88,215,505.71,216.58,501.17Z"/><path class="cls-1" d="M672.6,239.61c-1.82.65-4-.47-3-3.2.45-1.27.83-2.62,1.21-4a146.68,146.68,0,0,0-25.86-40.56c-12-13.53-25.67-19.72-41.76-19-38,1.72-91.17,44-147.44,116.05.41,3.73.59,7.47-1.45,11.18-1.79,3.26-1.71,7.83-4,10.46-3.58,4.1,1.23,13.95-7.74,12.76-1.79-.23-2.7-7-3.8-12.09-1.31,1.81-2.69,3.69-3.9,5.39-2.49,3.5-4.75,6.74-6.78,9.66a61,61,0,0,1,21.86,43.14c16.73-1.21,36.8-2.19,58.21-2.19,40.88,0,86.59,3.56,123.07,15.77a72,72,0,0,0,12-11.6l.78-1c2.7-3,54.47-61.36,29.61-131.31C673.24,239.28,673,239.48,672.6,239.61Zm-153.23,61c-1.64.26-2.66-.8-3-2.43-3,3.6-4.34,11.72-11.56,4-3.17-3.41-3.81-7.24-1.41-10.41,3.51-4.63,6.58-1.13,9.35,1.79a23.56,23.56,0,0,0,3.62,2.65c2.46-3.41,3.32,0,4.24,1.22A1.88,1.88,0,0,1,519.37,300.63Zm11-63.33c-1.73.86-3.81,4.08-5.83,1.41-1.15-1.52-1.53-5.2-.49-6.46,3-3.67,3.65-9.35,9-11.05l-.18-.45h0c.12,0,.14-.06.27-.06-2.58-8.25-1.28-14.39,9.25-16-.4,7.29,2.41,15.88-9.25,16,0,.15,0,.27.09.42s-.11.08-.18.1C535.27,227.07,538.63,233.2,530.33,237.3Zm9.83,65.43c-3.2.42-5-2.69-5.1-6.42-.25-9.49,9.31-2.18,11.93-7.52C545.07,294.11,547.45,301.77,540.16,302.73Zm23.73,25.8c-1.9.75-4.31,2.46-6.36.25-2.76-3-7.55-4.87-6-10.64.62-8.43,8.59-10.55,13.91-14.93,1.09-.9,3.7-.32,4.69,2C571.34,308.11,566.57,327.48,563.89,328.53Zm9.1-71.17c-.51-4.22,2.17-6.49,6.42-5.5,1.64.38,3,2.18,4.47,3.39a19.21,19.21,0,0,0,1.92-1.64c2.48-2.55,5.35-3.7,7.61-.29,2.06,3.11-1,6-2.34,8.35C589.14,265,573.46,261.18,573,257.36Zm40,63.29c-6.74-.47-13.06,3.58-20.65.19,2.09-3.08,1-6.65,1.56-10,.88-5.26,4.38-9.44,9.35-9.82,5.81-.45,12.82,2,15.66,6.34C622.09,312.28,619.33,321.09,613,320.65Zm9.36-46.35c-2.91.64-3.49-1.75-4.21-3.17,2.24-3.33-.1-9.35,6.41-8,1.76.36,4.75.05,4,2.52C627.4,269,626.74,273.33,622.31,274.3Zm17.26,42.92c-1-2.21-2.84-4.4-2.41-6,.83-3,1.22-7.32,5.38-7.67,3.11-.27,2.71,2.89,2.88,5.07C645.75,312.83,641.91,314.14,639.57,317.22Zm12.49-31c-1.66,6.3-4.53,11.81-12.75,9.55-1.37-.38-3.68-1.92-3.55-2.37,1.78-6.53-1.45-11.59-4.55-15.71.09-5.58,3.4-9.24,6.66-9.36,4.9-.18,2.31,3.82,1.72,6.65-.72,3.52,1.76,1.17,3,1.5C647.62,277.81,654.14,278.36,652.06,286.27Z"/></svg>