<svg id="Guías" xmlns="http://www.w3.org/2000/svg" viewBox="0 0 850.39 850.39"><defs><style>.cls-1{fill:#fff;}</style></defs><path class="cls-1" d="M262.4,525.29c76.94,30.12,131.77,102.53,236.83,118a25.53,25.53,0,0,1-.29-6c.52-7.47,4.81-11.83,13.56-9.23,8,4.63,16.28,1.84,24.73,0,5.76-1.28,10.81,1.58,15.25,4.82,2.86,2.09,6.16,4.63,4.84,9.17a6.56,6.56,0,0,1-3,3.84c155.49-6.84,244-121.11,244-247.83,0-93.87-71.32-222.72-232.44-222.72-113.91,0-136.18,72.92-139.93,90.81,15.76-8.56,33.54-13.87,52.74-13.87A111.24,111.24,0,0,1,589.87,363.47c0,52.79-36.92,96.51-86.27,107.83-1.23,1.94-3.26,1.8-5.15,1.59-.52-.05-.74-.44-1.12-.67a110.64,110.64,0,0,1-13.23,1.94C434,480.39,375.81,434.69,309,417.37c-.36,0-.44.25-.86.25-2.17,0-3.61-.48-4.56-1.46a184.5,184.5,0,0,0-42.11-5.27C75.7,410.89,52.13,582.07,52.13,582.07s60.78-69.94,142.09-69.94a183.1,183.1,0,0,1,65.33,12A3.92,3.92,0,0,1,262.4,525.29ZM673.68,229.42c4.21-.33,6.38,3.25,6.06,3.85-1.68,3.16-3.6,6.68-7.9,7-2.57.2-5.64-1.12-4.61-3.5C668.59,233.68,671.86,231.38,673.68,229.42Zm2.83,283.23c.09,5.07,8.41,6.65,6.89,12.81-2,8-9.59,10.61-16.11,8.72-5.37-1.56-12.19-4.22-14.21-11.11C652.49,521.08,672.13,511.82,676.51,512.65ZM632.39,360.23c4.59-3.73,10.17-2.86,16,2-3.59,4.28-6.25,10-13.25,6.11C631.77,366.44,630.33,361.91,632.39,360.23Zm-10.9,92.51c7.62-1.62,13-10.4,24.52-6.19-6.44,7.14-10.21,14.79-19.77,15.26-2.65.13-5.73.51-6.76-3.1C618.77,456.25,619.3,453.2,621.49,452.74ZM604.41,561.53c5,1.05,4.3-10.55,11.26-5,18.64-3.08,34.93,3.73,50.84,12.1,5.23,2.75,8.85,6.42,7.39,12.93-1.67,7.43-8.25,4.33-11.2,3.42-10.75-3.28-23.56-1.67-31.27-13.42-2.18-3.33-8.12.11-12.15,2-5.28,2.48-10-.49-14-3C602.42,568.81,603.78,564.68,604.41,561.53Zm-23.74-6.66c-.37,2.14-6.27,5.38-8.51,4.65-2.84-.94-8.94-1.32-7.53-7.64.84-3.75,3.6-4.8,6.37-6C574.35,549.64,581.72,548.78,580.67,554.87Zm-23.32-72c2.74-2.65,5.58-5.77,9.48-3.94,3.63,1.7,1.43,5.72,1.75,8.63-3.31,5.48.46,6.11,4.33,8.34,5.52,3.18,7.13,10.27,1.81,13.63-3.8,2.4-7.15,12.32-15.93,3.53C548.65,503,547,493,557.35,482.9Zm-34,41.05c5.65-.06,13.07-9.08,16.41.15,1.8,5,5.5,9.18,6.91,15.46-10.1-.3-21.35,9-27-7.59C518,526.75,520.12,524,523.37,524ZM348.68,538c-2,.36-3.78,0-4.18-2.31s.7-3.48,3-3.47c1.86,0,3.65.27,4.49,2.34C352.19,536.92,350.61,537.64,348.68,538Zm89.21-19.5c3.45-.17,4.63,2.25,4.72,5.37.09,3.68-.41,7.78-4.93,7.22-1.93-.24-7-.47-6.41-4.46C431.53,521.4,433.6,518.69,437.89,518.48ZM377.58,487.4c3.25.37,6.41-.2,5.85,3.12-.69,4.12-3.9,5.76-8,5.43-2.52-.2-6.44.49-5.35-3.61A6.62,6.62,0,0,1,377.58,487.4ZM341,474.63c6-2.65,11.53-1.68,14.87,5.32,2.67,5.59,11,8.46,3.2,17.56-12.43,14.52-11.51,15.31-17.12,15.26-6,1.15-9.47-.52-8.8-8.58.4-4.73-1.52-9.7-2.66-14.5C328.31,480.68,334.86,477.35,341,474.63Zm-245,15c6.89-1.66,11.24-2.93,16.65,2C106.71,494.68,102.43,495.43,96,489.66ZM290.33,502c.56,6.27-7.87,14-16.5,13.21-5.79-.56-14.2-3.08-15.21-9.28-.65-3.95,3.4-12.07,13.82-9.12C276.42,501.47,289.21,489.37,290.33,502Zm-147,.39c-5.78-.42-10.93-1.7-11.76-8.52-.58-4.78,1.75-8.55,6.74-8.14,6,.49,9.54,4.49,10,10.67C148.79,500.19,148,502.68,143.36,502.34Zm65-24.71c-6.15,9.62-15.35,4.53-20.1,1.45-6.11-4-12-7.73-18.94-9.32-5.81-1.32-5.15-6.92-2.89-7.5,9.56-2.47,15.34-13.06,29.13-9.76,3.11,2.5,13.39-2.44,17.1,6.34C215.53,465.71,212.1,471.74,208.32,477.63Zm46.56-19.52c-.19-9.11-.07-18.23-.07-30.13,6.91,7.28,17.53,8.85,11.34,20.52a4,4,0,0,0,2.45,5.6c3,1.12,7.54,3.68,5.19,6.53-3.37,4.1-9.2,5.06-15,4.6C253.28,464.78,254.94,460.91,254.88,458.11Z"/><path class="cls-1" d="M275.56,372.14c2.92-.68,5.31-3.25,7.87-.22,1.66,0,3-.21,4.77-.21,60,0,120,61.13,194.25,61.13,60,0,62.05-40.88,62.05-40.88s-7.92,10.31-38.49,10.31c-80.81,0-114.39-54.86-197-54.86-43,0-58.14,28.83-58.14,28.83s9-2.76,24.23-3.94C275.26,372.26,275.37,372.18,275.56,372.14Z"/><path class="cls-1" d="M393.84,657.59c-11.91,0-22.92-2.9-33.62-7.49-1.64,6-9.13,6.13-16.61,6.46-8.65,1.91-12.4-5.47-12.55-12.75a9.49,9.49,0,0,1,3.52-7.81c-41.19-27-84.14-69.6-162.07-69.6-.33,0-.61.08-.94.08-.82.57-1.71,1.11-2.54,1.71-.18-.5-.18-1-.33-1.46C120.46,568.52,93,602.24,93,602.24s34.31-10.06,66.69-10.06c71.85,0,94.14,55.56,152.64,75.7-.21-.31-.49-.36-.68-.74-.38-.76,2.44-4.41,4-4.57,5.93-.63,13.22-3.08,15,7.06-2.12.31-4,1-5.61.73a13.78,13.78,0,0,0-4.15,0,139.2,139.2,0,0,0,36.38,4.7C391.8,675.1,393.84,657.59,393.84,657.59Zm-99.36-1.1c-4.82.36-11.55-.27-10.34-5.42,1.46-6.21,9.35-9.28,15.33-10.66,3.68-.86,11.72,2.21,10.95,7.28C309.26,655.47,301.17,655.93,294.48,656.49Z"/></svg>