<svg id="Guías" xmlns="http://www.w3.org/2000/svg" viewBox="0 0 850.39 850.39"><defs><style>.cls-1{fill:#fff;}</style></defs><path class="cls-1" d="M698.67,444l-39.48-90.9v33.72c-1.88-.81-4.49-1.1-5.52-2.53-3.63-5-6.67-9.63-13-12.8-7.41-3.74-6.27-11.81.11-18.3,3.23-3.29,5.58-7.46,8.76-11.84-6.18-2.1-7,3.29-10,4.84-2,1.06-.62,6.62-5.4,4-2.81-1.55-5.43-3-4.58-6.94,1.41-6.51-2.43-8.86-7.52-12.18-12.42-8.14-14.3-22.29-19.19-35.28,5-.84,8.38,6.1,11.49-1.36-8.82-.17-11.34-7.68-15.44-13.4-.73-1-1.33-3.27-.79-3.85,8-8.74,1.67-16-1.47-24.2,0-.13,0-.24,0-.37-2.09-2-4-4-6.24-5.92-.36,3.11-2,5.91-6.84,7.9a2.85,2.85,0,0,0-.78.7c-3.49,3.77-4.2,12.61-12.78,7.22-9-5.69-17-22.36-14-29.32,1.55-3.54,5-5.13,8.17-6.43C523.54,199.71,472,180.9,413,173.42c-33.57-4.25-68,1.21-100.3,15-.07.38.09.68,0,1.08-.18.55-2.24,1.2-2.58.88s-.14-.53-.32-.78c-2.19,1-4.46,1.61-6.63,2.66A205,205,0,0,0,198.49,309.78L150.91,446a29.05,29.05,0,0,0,27.42,38.63H202V678.39H217.3A34.71,34.71,0,0,0,252,643.72V501.26H377.53v28.38a27.65,27.65,0,0,1,4.38-.77c7.9-.78,6,8.24,6.3,11.66.54,5.32-4.55,13-10,12.32a4.29,4.29,0,0,1-.69-.24V678.39h182a53.82,53.82,0,0,0,53.75-53.76V509.18H431.4V485.06H613.24v-.41H672A29.06,29.06,0,0,0,698.67,444Zm-392.8,50.08c-.78,1.56-2.87,3.4-4.15,2.12-2.77-2.75-1.35-6.4-.49-11.14C305.47,487.85,307.93,490,305.87,494.09Zm36.81-145.62c-3-5.58-3.09-8.91,1.19-12.15C344.94,340.13,345.4,343.4,342.68,348.47Zm7.5-6.33c-1.13-.47-1.93-1.75-2.88-2.66,1.12-1.09,2.1-2.82,3.41-3.13,2.28-.53,2.47,1.49,2.42,3.25S352.43,343.08,350.18,342.14ZM502.39,533.66c.36,2.39,2.13,5.14-1,7.1-.45.29-2.36-.57-2.44-1.07C498.62,537.34,498.1,534.68,502.39,533.66ZM475,579.88c.9-.35,4,2.91,2.5,4.76-3.27,4.09.09,10.24-3.45,13.74-6.28-.81-7.21-4.26-6.9-8.45C467.49,584.88,470.63,581.61,475,579.88Zm-29.71,37.37c.92-.3,2.74.58,3.45,1.47,4.41,5.57,8.8,11.22,7.1,20.75-7.14-5.38-9.17-11.82-11.76-17.81C443.48,620.33,443.19,617.93,445.26,617.25Zm83.6-373.68c1.86,0,1.79,1.6,1.6,2.91-.13.83-.05,2.09-1.57,1.75-1.33-.59-2.36-1.58-2-3A2.68,2.68,0,0,1,528.86,243.57Zm-9-23.11c.53-2.48,2-4.86,4.59-4.21,3.06.77,1.55,4,1.65,6.14,0,1,1.12,3.84-2.14,2.6C521.83,224.18,519.07,224,519.88,220.46ZM388.23,673.08c-3.92,2.66-3.79-2.81-4.79-4.55-1.62-2.8-4.5-5.68-2.79-8.85-.75-4.63,1.11-8.19,4.08-9.3,3.88-1.44,4.29,3.29,5.8,5.63a39.91,39.91,0,0,1,4.17,8.08C396.75,669.82,391,671.17,388.23,673.08ZM422,219.65c-2.23-4.34-10.43-1.73-9.8-8.85-.45-3.78,2.22-3.61,4.68-3.4,5.58.49,6.78,5,7.87,9.27C425.2,218.3,422.6,220.75,422,219.65Zm8.47-24.92c-1.79,0-3.38-.14-3.43-1.35-.06-3.54,1-4.93,3.54-5,2.25-.05,2.73,1.32,2.76,3.2S432.65,194.73,430.51,194.73Zm14.4,276.61c-3.46-.28-3.37-1.74-3.13-3.13.15-.84.1-2.24,1.67-1.73s2.5,1.4,2.19,3.06A5.52,5.52,0,0,1,444.91,471.34ZM456.23,236c-4.25.06-9.7-1.29-8.23-8.48.65-3.2-1.36-5.27-4.86-5.37-2.68-.08-6.35.74-5.46-3.81.6-3.08-2.61-6.87,3.37-9.27,5.74-2.31,5.77-9.67,6.89-15.36.51-2.62-.44-5.68,4.13-5.47,3.21.16,6.18,1.06,6.36,4.09.3,5.18,3.43,11.73,1.74,14.89-3.88,7.21,5.45,14.44-1.92,20C459.89,231.24,462.71,235.93,456.23,236Zm44.46-10c-3.73-.24-4.33-3.77-4-7.08.2-2.14-1-5.19,2.91-5.19,5.55,0,2.55,4.37,3.49,6.73C502.35,222.49,504.45,226.29,500.69,226Zm27.85,69.86c-3.57.86-6.36-1-6.43-4.77C522,285.7,520.88,280,524,275c-7.06-3.92-10.59-8.78-3.78-17.73,2.37,6.59,6,11.4,5.36,17.75,4,4,2.48,10.38,6.41,14.78C534.21,292.22,531.44,295.19,528.54,295.9Zm44.3,17.48c-1,.85-2.45,1.89-3.31.21-1.81-3.54,1.11-6.08,2.5-10.29C575.25,307.74,576.2,310.59,572.84,313.38ZM597.75,372c-1.8-.2-2.14-1.53-1.89-3s.35-3,2.34-2.71c1.74.25,1.76,1.81,2,3.16C600.08,371,599.6,372.23,597.75,372Z"/></svg>