<?xml version="1.0" encoding="utf-8"?>
<!-- Generator: Adobe Illustrator 24.2.3, SVG Export Plug-In . SVG Version: 6.00 Build 0)  -->
<svg version="1.1" id="Guías" xmlns="http://www.w3.org/2000/svg" xmlns:xlink="http://www.w3.org/1999/xlink" x="0px" y="0px"
	 viewBox="0 0 850.39 850.39" style="enable-background:new 0 0 850.39 850.39;" xml:space="preserve">
<style type="text/css">
	.st0{fill:#FFFFFF;}
	.st1{fill-rule:evenodd;clip-rule:evenodd;fill:#FFFFFF;}
</style>
<g>
	<path class="st0" d="M649.09,300.86c-6.25-1.92-9.14-7.86-12.87-12.63c-0.35-0.55-0.63-1.14-0.83-1.76c-3.11-3-6.17-6-9.55-9
		c-98.86-86.21-189.76-125.56-256-110.78c-42.81,9.56-76.56,41.77-100.3,95.73c-0.81,1.86-1.64,3.74-2.49,5.61l-3.91,8.52
		l-9.14-1.81c-4.33-0.87-8.73-1.31-13.15-1.31c-37.47,0.02-67.84,30.41-67.82,67.88c0.01,19.55,8.45,38.15,23.17,51.03l6.8,6
		l-4,8.13c-17.57,36-30.08,66.08-35.5,92l48.26,35.78c4.41,3.31,5.34,9.55,2.08,14l-3.05,4.1c-3.29,4.44-9.55,5.38-13.99,2.09
		c0,0-0.01-0.01-0.01-0.01l-36.19-26.85c0.84,30.6,16,54.8,50.71,76.5c110.34,68.95,320,81.37,426.78-74.64l1-1.31
		c0.55-0.6,54.63-60.78,50.45-134.2C687.67,360.69,674,329.52,649.09,300.86z M188.09,451.29c-2.37-0.05-4.56-1.36-4.26-3.3
		c0.42-2.73,3.73-2.51,5.72-2.58s3.6,2.36,3.25,4.12C192.38,451.65,190.1,452,188.09,451.29L188.09,451.29z M659.45,400.17
		c-4.51,0.2-4.74,6.73-9.34,6.77c-2.86-0.48-3.76-1.8-2.92-4.3c1.3-3.85,3.94-6.74,7.85-7.18
		C657.27,395.2,658.64,397.92,659.45,400.17L659.45,400.17z M642.57,395.1c-3.77,0-2.24-1.85-2.19-3.39c0.19-4,2.39-4.72,5.82-3.79
		c2,0.55,3.84,0.78,3.24,3.73C648.55,396,645.92,395.13,642.57,395.1L642.57,395.1z M642.95,405.23c-0.74,2.42-3,1.34-4.38,0.89
		c-5.48-1.75-3.42-5.47-2.35-9.9c3.15,3.08,8.47,3.34,6.78,9.01L642.95,405.23z M654.37,374.78c0.52,2.9-1.89,4.05-4.69,3.12
		c-4.41-1.47-5.81,0.77-5.44,5.4c-4.2-5.31-10.75-8.8-6.13-15.82c-3.84-1.26-7.29,3.51-10.79-0.34c-2-2.18-0.76-4.4-0.41-6.62
		c0.15-0.79,0.46-1.54,0.9-2.21c6.34,1.68,13.33-2.2,18.86,0.56S653.31,368.8,654.37,374.78L654.37,374.78z M648.68,330.55
		c0.4,0.57-0.51,2-0.81,3.1l-7.25-3.29C644.7,328,647,328.16,648.68,330.55L648.68,330.55z M596.31,258c2,0.94,6.84,0.48,4.8,3.86
		c-1.39,2.3-3,7.79-7.82,6.11c-2.71-0.93-5.1-2.78-4.22-7.1C590.19,255.39,593.38,257.79,596.31,258z M575,284.17
		c4.71-8.7,10-1.49,16.87-2.12c-5.59,4-3.12,15.38-13.41,9.88C575.94,290.58,572.3,289.17,575,284.17z M522.11,257.07
		c0.24,0.66,0.36,1.36,0.35,2.07l-6.18-0.91c2.66-2.61,4.26-3.8,5.84-1.16H522.11z M473.8,183.82c1.1,0.51,1.78,2,2.64,3
		c-1.08,0.18-2.14,0.46-3.17,0.83c-2.22,1-2.06-1.06-3-1.77C471.32,184.54,472.35,183.15,473.8,183.82z M480.47,318.48l-2.71,2
		c-0.35-2.37-4.21-1.61-3.19-4.48c0.18-0.5,1.52-1.15,1.8-1C477.8,316.08,479.17,317.25,480.47,318.48z M411.38,343.37
		c2.52,0.15,5.84,0.14,6,3.91c-2,2.4-3.23,6.68-6.49,4.37c-3.46-2.44-10.48-3.5-9.29-8.4C402.52,339.32,408,343.17,411.38,343.37z
		 M387.61,345.78c1.37,0.24,2,1.17,1.47,2.4s-1.74,1.14-2.88,0.83s-2.3-0.62-2-2.1C384.7,344.86,386.29,345.54,387.61,345.78
		L387.61,345.78z M365.46,317c2.4-2,2.88,1.9,4.83,2.09c1.28,0.13,1.48,2.58,3.83,1.91c0-2.17-0.77-5.46,3-5.75
		c2.24-0.17,5-0.14,6,2.4c1.17,3-1.21,5.22-3.07,6.82c-6.59,5.65-12.73,4.65-14.65-1.91C364.81,320.61,363.64,318.54,365.46,317z
		 M325,276c2.19,0,4.47-0.8,6.55-0.4c1.21,0.24,3.43-2.58,3.72,0.79c0.15,1.85-0.89,4-2.92,2.68c-3.73-2.45-3.8,3.6-6.68,2.4
		c-1.48-0.48-3.77,0-3.24-2.82C322.65,277.27,322.93,276,325,276z M322.47,447.14c3.53-0.8,2.85,2.77,3,3.64
		c0.52,4-2.69,1.18-3.72,2.06c-2-1-4.87,0.07-4.48-3.37c0.35-3.89,3.2-1.85,5.15-2.29L322.47,447.14z M304.15,397.24
		c2.12,1.27,6.7-0.89,6.41,3.51c-0.34,5.14-4.48,2.17-6.58,1.63c-2.52-0.65-7.67,1-6.86-3.93c0.73-4.73,4.52-0.64,6.98-1.17
		L304.15,397.24z M291.5,425.24c1.55,0.38,3.94,0.6,2.66,3.11c-0.53,1-2.22,1.47-3.23,2.09c-1.86-1.31-3.52-2.25-3-4.31
		s2.28-1.2,3.52-0.89L291.5,425.24z M208.7,458.87c-1.28-1.77-0.2-3.89,0.55-5.77c2.6,4,8.47,1.9,12.58,8.34
		C216.29,459.12,212,463.35,208.7,458.87z M227.19,351.64l8.73-19.49c4-8.95,14.5-12.95,23.45-8.95l19.49,8.73
		c8.94,4.01,12.94,14.51,8.94,23.45l-8.72,19.49c-2.41,5.22-7.24,8.91-12.91,9.86c1.07-0.64,2.88,0.7,4,0.13
		c2.29-1.16,2.25,0.41,2.07,1.81c-0.3,2.38-2.17,3-4.21,3.41c-1.76-0.71-2.93-2.21-2.66-3.85c0.02-0.59,0.3-1.14,0.76-1.5
		c-3.52,0.8-7.19,0.48-10.52-0.91l-19.49-8.73C227.18,371.08,223.18,360.58,227.19,351.64L227.19,351.64z M277.63,431.57
		c-0.06,1.12-0.25,3-1.41,2.73c-5.18-1.37-11.63,3.38-15.94-3.41c4.84-3.24,9.89,0.16,14.54-1.67c1.14-0.36,2.36,0.27,2.73,1.41
		C277.64,430.93,277.67,431.25,277.63,431.57L277.63,431.57z M238.34,430.91c-4-1.21-4.75-3.54-4-6.83c0.57-2.3,0.79-4.49,4.22-4
		c4.57,0.64,3.87,4.32,4,7S240.24,430.55,238.34,430.91L238.34,430.91z M335.34,570.73c-0.03,5.51-4.49,9.97-10,10H263.2
		c-5.51-0.03-9.97-4.49-10-10v-5.11c0.03-5.51,4.49-9.97,10-10h62.14c5.51,0.03,9.97,4.49,10,10L335.34,570.73z M345.39,456.37
		c4.61-3.31,9-6.32,13.2-9.54c2.06-1.57,3.75-2.08,5.8,0s4.41,3.85,3.81,7.19c-0.26,0.68-0.68,1.3-1.21,1.8
		c-7.43-4.76-13.81,7.74-21.58,0.55H345.39z M368.39,463.14c-1.93-0.26-5.48,0.7-4.69-3.59L368.39,463.14z M361.9,489.79
		c5.51,2.14,10.93,4.35,16.45,6.32c1.45,0.52,2.88,0.92,3.09,2.51c0.29,2.11-2,1.7-3,2.17c-4.49,2.07-9.56,5.73-14.09,2.5
		c-4.17-3.02-6.25-8.24-2.42-13.5L361.9,489.79z M368.9,581.72c-1.15-0.92-2.22-1.94-3.2-3.05c1.32-1.54,2.73-2.6,4-1.65
		c1.05,0.94,1.67,2.26,1.72,3.66c0.13,1.32-1.34,1.8-2.42,1.04H368.9z M387.9,562.26c-2.63,6-9.14,6.6-14.51,7.87
		c-3.92,0.93-7.18-2.65-9.22-6.38c-0.68-1.23-0.58-2.47,0.71-2.76c7-1.58,13.86-5.21,21.32-2.28c2.31,0.87,2.23,1.06,1.8,3.55
		L387.9,562.26z M395.56,628.92c-1.3-1.11-5.1-0.26-3.64-3.31c0.93-2,3.18-4.5,6.15-3.2c1.28,0.56,3.07,1.92,2.08,4.13
		c-1.86,0.01-1.15,5.19-4.5,2.38L395.56,628.92z M392.1,461.24c-2.66-0.06-4.47-1.62-4.59-4.26s1.58-4.29,4.22-4.67
		c5.93-0.86,11.86-1.6,12.23,7.14C400.15,460.77,396.13,461.37,392.1,461.24z M450.58,497.24c-2.82,2.94-7.62,3.88-8.68,8.62
		c-5-1.24-12.25-0.85-14.71-4.07c-5.2-6.78-12.84-9-20.58-14.11c6.45-2.06,12.89-1,16-7c0.32-0.61,3.43-0.39,4.87,0.26
		c7.06,3.2,14.1,6.49,20.91,10.19c1.91,1,4.97,3.2,2.19,6.09L450.58,497.24z M411,447.31l-5.09-2.31c-2.01,0.84-4.3,0.71-6.2-0.36
		c-4.95,0.17-7.36-1.37-7-5.56l-7.79-3.49c-12.87-5.73-18.65-20.8-12.92-33.67c0,0,0,0,0,0l12.16-27.15
		c5.75-12.85,20.83-18.61,33.68-12.86c0,0,0.01,0,0.01,0.01L445,374.07c12.85,5.76,18.61,20.84,12.85,33.69c0,0,0,0,0,0.01
		l-4.66,10.4c0.5-0.17,1.04-0.17,1.54,0c1.65,0.56,4.43-0.37,4.28,2.68c-0.43,1.69-1.32,3.61-2.73,2.58s-3.58-1.46-3.86-3.54
		l-6.72,15c-2.84,6.33-8.15,11.22-14.7,13.52 M489.55,579.16c-2.42-0.47-5.1-2.18-7.38,0.67c0,3.38,5.71,0.5,5.24,4.51
		c-10.55,1.72-13.32,0.56-15.08-9c-0.84-4.59-4-1.21-5.24-3c-2.42-3.54-7.37-1.18-10.4-4.74c3.81-4.72,8.91-6.87,14.26-4.55
		c6.79,2.94,13.89,4,20.88,5.82c2.81,0.74,7,1.87,6.43,5.43c-0.64,4.22-4.26,5.7-8.7,4.86L489.55,579.16z M483.42,527.67
		c2.45-6,7.16-1,11.25-0.79c-4.58,2.28,1.52,13.54-9.34,10.26c-6.85-2.07-2.57-7.84-1.9-9.47L483.42,527.67z M503.8,317.53
		c-0.44,3.08-3.57,4.9-8.73,2.35c-2.49-2.47-7.53-2.58-12.25-3.68c-1.44-0.34-2.83-0.76-2.47-2.76c0.28-1.54,0.83-2.53,2.76-2.54
		c5.33,0,10.67-0.47,16-0.35c4.43,0.1,5.05,4.51,4.7,6.98L503.8,317.53z M522.36,384.76c-2.6-0.6-4.84-2.79-7.35-4.36
		c2.88-3.66,6.35-4.45,9.54-3.73c2.51,0.57,6.3,2.78,5.68,5.31c-0.73,3.02-5.03,3.44-7.86,2.78L522.36,384.76z M534.2,515.66
		c-3.9,1.31-4.63-2.84-7.08-4.42c2.94-0.54,6.58-2.63,7,2.43c0.06,0.69,0.26,1.94,0.09,1.99L534.2,515.66z M531.05,332.25
		c-0.07-0.05-3.5,1.57-3.8-1.79c-0.31-3.54,2.29-2.81,4.7-3c1.88-0.16,1.68-2.8,2-4.45c0.45-2.52,1.74-3.65,4.23-3
		c3.33,0.92,7.12,0.41,9.9,2.85c0.47,0.41-0.26,3.2-0.47,3.2c-6.09,0.17-6.68,11.61-16.55,6.19L531.05,332.25z M551.64,349.82
		c-1.37,2.43-2.79,5.84-6.7,5.6c-2.46-0.28-2.69-1.71-2.36-3.72c0.58-3.42,2.24-5.31,5.9-4.53c1.52,0.32,4.44,0.39,3.17,2.65
		L551.64,349.82z M558.83,557.18c-0.34-0.92-0.33-1.49,0.71-1.64c2.42-0.34,3.62,1.06,4.49,3.71c-2.45,0.35-4.29,0.37-5.19-2.07
		L558.83,557.18z M572.28,384.18c-4.33-0.78-5.17-4-6.21-8c4.69-1.86,5-9.39,11.88-8.78c4,0.36,7.15,6,6.5,6.25
		c-5.36,2.14-3.94,11.98-12.16,10.49L572.28,384.18z M578.38,443.29c0-2.56,3.3-4.57,4.92-3c3.72,3.62,11.62,3.07,11.28,10.72
		c-0.14,2.94-1.75,4.17-6.12,2c-2.41-2.73-10.02-2.45-10.07-9.76L578.38,443.29z M588.51,537.14c0.57-2.43,2-4.1,4.84-3.75
		c1.66,0.22,2.53,1,2.34,2.84c-0.3,3-2.65,3.28-4.07,3.93c-2.41-0.42-3.49-1.39-3.1-3.06L588.51,537.14z M604.1,564.47
		c-1.5,2.5-3.32,0.5-4.93-0.63c-3.33-2.34-7-4.26-10.07-9.75c5.71,1.6,9.91,1.14,13.76,4c3.14,2.15,2.42,4.37,1.25,6.34
		L604.1,564.47z M610.76,311c-3.18-1.07-6.6-2.8-4.82-7.35s5.43,0.62,6.48-1c5.12-0.95,6.22,2.81,8.59,4.43
		c0.73,0.5,0.32,3.15,2.22,2.9c10.47-1.35,9.5,8.71,13.57,13.64c1.41,2.02,0.94,4.8-1.06,6.24c-1.64,1.15-4,0.13-5.52-1.28
		c-4.77-4.49-9.55-9-14-13.8C614.79,313.04,612.9,311.73,610.76,311z M661.05,439.7c-1.14,2.34-3.88,3.47-7.18,3.73
		c-6,0.49-7.66-7.37-13.55-6.39c0,0.09,0,0.19,0.07,0.29l0,0c-0.13,0-0.19-0.07-0.32-0.07c-0.29,3.14-2.4,4.18-5.18,4
		c-3.23-0.25-5.21-1.31-2.35-4.85c0.34-0.41-1.65-1.56-2.3-0.38c-1.57,2.85-3.74,2.9-5.31,0.72c-1.08-1.84-0.47-4.2,1.37-5.28
		c0.02-0.01,0.04-0.02,0.06-0.04c2.35-1,5.46-3.25,7.77,0.12c1.64,2.37,2.3,5.6,5.94,5.75c0-0.12,0.11-0.12,0.12-0.24s0.08,0,0.14,0
		c-0.56-2.92-2.33-6.55,0.91-8.15c2.11-1.05,5.68-0.82,7.79,2.91c1.2,2.12,5.81-0.51,8,2.14
		C658.59,435.77,662.53,436.67,661.05,439.7z"/>
	<path class="st1" d="M192.85,622.05c0,0,29.44,25.17,60.32,30.72c0,0-20.84,46.19-60.32,30.81S192.85,622.05,192.85,622.05z"/>
</g>
</svg>
