<svg id="Guías" xmlns="http://www.w3.org/2000/svg" viewBox="0 0 850.39 850.39"><defs><style>.cls-1{fill:#fff;}</style></defs><path class="cls-1" d="M220.88,536.67l-.22.26Q222,538,223.48,539Z"/><path class="cls-1" d="M262.78,585.2a290,290,0,0,1-41.41-21.38,176.61,176.61,0,0,1-14.56-10.14L137.72,637.2a17.44,17.44,0,0,0,20.45,27.09l37.47-16.44-9.12,39.86a17.44,17.44,0,0,0,30.44,15l85.65-103.56A331.14,331.14,0,0,1,262.78,585.2Z"/><path class="cls-1" d="M680.94,340.48c-24.1-55.93-61.55-98.4-121.43-137.71-48.55-31.87-105.31-65.48-164.25-61-62.62,4.74-95.13,58.6-108.93,90.28-.76,1.75-1.52,3.46-2.31,5.18L280.45,245,272,243.31a61.35,61.35,0,0,0-12.09-1.2A62.24,62.24,0,0,0,219,351.19l6.24,5.47-3.64,7.46C185.5,438,172.22,485.19,205.31,522.77c7,8,16.28,15.57,27.58,22.65a270.24,270.24,0,0,0,38.34,19.79,328.33,328.33,0,0,0,112.65,25.16c6.55-.43,82.22-6.63,149.51-56.13a14.86,14.86,0,0,1,3.84-8.2,13.48,13.48,0,0,1,1,4.46A243.81,243.81,0,0,0,590.39,476l17.86,12.34a267.25,267.25,0,0,1-30.76,36.79c1.65.08,2.31,1.74,2,3.4.34,1.88-.36,3.82-1.94,3.88-2.22.1-2.57-2.55-2.93-4.11,0-.22.18-.41.2-.63C508.2,592.81,424,607.9,394.79,611.19v22.72c13.14,5.13,46.38,16.41,92.43,20.07,54.14,4.3,137.48-1.38,229.46-52.05v-86a374,374,0,0,0-2.11-39.78C709.71,426.62,698.39,381,680.94,340.48Zm-145.83-2.86c10.14.15,16.87-7.37,25.86-10.61.9,5.88-2.37,9.89-5.18,14.47-1.88,3.07-4.92,5.89-4.83,10.43,0,2.9-7.44,3.4-10.63.38-2.88-2.72-4.1-6.8-7.21-9.56C532.47,342.16,531,337.55,535.11,337.62Zm20.35,28.08a3.46,3.46,0,0,1-2.65,4.3c-2.08.5-3.63-.58-4.35-2.6-1.61-4.56-3.12-9.13,3.73-10.79A26.13,26.13,0,0,1,555.46,365.7ZM466.32,235.35c.06,3.54-2.33,4.71-5.38,6.17-2.2-3.42-8.21-2.5-8.8-8-.35-3.26,3.61-6.59,3.92-6.12C458.66,231.28,466.22,228.62,466.32,235.35Zm-31.61-54.83c1.32-4.83,6.81-6.8,11.37-8.57,2.21-.87,3.5.85,3.2,3.21-.47,3.72,1.52,4.48,5.12,3.46-3.54,4.15-5.28,9.87-11.55,7.32-.39,3.23,3.92,5.21,1.43,8.58-1.42,1.91-3.37,1.29-5.18,1.36a4.79,4.79,0,0,1-1.88-.36C437.55,190.25,433.4,185.32,434.71,180.52Zm13.19,80.93c.17,2-.92,2.41-2.57,2.45-2.79.08-4.55-.94-4.5-3.94,0-1.24-.38-3.57,1.6-2.92S447.48,258.33,447.9,261.45Zm-26.19,2.64c.25-.43,2.56-.29,2.6-.13,1.06,4.78,10.19,3.45,7.45,12.1,0,.06,1.8,2.52-.82,3.28s-2.57-1.36-3.11-3.24c-.42-1.46-2.47-.89-3.82-.86-2.06,0-3.16-.8-3-2.88C421.21,269.58,420.22,266.67,421.71,264.09ZM430.84,320c-1.82.65-.62,3.59-3,3.23-.43-.06-1.15-1-1-1.28a40.41,40.41,0,0,1,2-3.77Zm-6.45-20.12c2.51-.13,4.44,2.06,3.24,6.53-1.57,2.36-.87,6.36-1,10.26,0,1.19-.15,2.36-1.79,2.39-1.27,0-2.14-.26-2.44-1.78-.86-4.22-2-8.36-2.78-12.59C419,301.19,422.39,300,424.39,299.9ZM412,183.36c.38-.4,1.69.09,2.58.16-.42,1.78-.84,3.55-1.47,6.24C410.63,186.91,410.38,185.05,412,183.36Zm-14.28,25.56c.28-.65,2.44-.75,1.95-2.2-2.71-8.07,5.38-8.88,8.65-12.87a3.65,3.65,0,0,1,5.1-.14c1.16,1.12.73,3.17-.15,4.57-2.81,4.47-5.61,8.95-8.72,13.2a9.9,9.9,0,0,0-2.1,4.93c-.35,2.67-1.18,5.65-5,5s-.36-4.4-1.84-5C394,212.51,396.82,211.05,397.73,208.92Zm-5.25,36c-.67,2.21-1.22,5.31-5.6,3.95-7.61-2.36-2.74-7.68-4.31-13C386.62,239.64,395.21,235.91,392.48,244.9Zm-121,150.39c-3-2.7-5.47-5.46-.05-8.65C273,389.82,272,392.57,271.49,395.29Zm28.16-78.36-7.85,17.54a16,16,0,0,1-21.11,8.06l-17.54-7.86a16,16,0,0,1-8.05-21.1L253,296A16,16,0,0,1,274.06,288l17.54,7.86A16,16,0,0,1,299.65,316.93Zm5.67-74.49c-.82.79-2.67.28-3.74-.95a5.28,5.28,0,0,1-.58-6c1.49-2.84,4.63-5.15-1.25-6.67-1.08-.27-1-3.11.06-4.44s2.4-2.7,3.73-2.79c1.9-.15,3.44,1.89,3.87,3.45.6,2.17.15,4.64.15,7h.16c0,1.64-.06,3.29,0,4.93A7.17,7.17,0,0,1,305.32,242.44Zm3.51-25.69c-3-1.09-2.83-4.15-3.11-6.69-.08-.73.93-1.58,1.38-2.27a9.36,9.36,0,0,1,4.64,6.81C312,215.74,310.16,217.23,308.83,216.75Zm5.45-16.69c-1.43.42-3.62.59-3.61-1.91,0-2.88,2.12-2.32,3.91-2.07,0-.05,0-.11,0-.15a.84.84,0,0,1,.14.06,19.81,19.81,0,0,1-1.27-3.68c-.35-2.28,1.64-5.67,2.34-5.13,2.34,1.82,6.47.68,7.35,3.86.63,2.29.72,6.29-.59,7.22-2.61,1.86-5.08-1.59-7.83-2.27a.76.76,0,0,0,0,.11h0l-.16,0C314.18,197.42,317.43,199.12,314.28,200.06Zm5.39,271.87c-4.28.24,0-3.07-1.73-4.55-.21-2.26.46-4.7,3.24-4.86a3.56,3.56,0,0,1,3.61,4C324.36,469.78,322.59,471.77,319.67,471.93ZM325.6,347c-1.23-.62-2.49-1.21-2.19-2.46.24-.95,1.28-1.71,2-2.56a15.85,15.85,0,0,0,1.15,2.38C327.68,346,326,346.16,325.6,347Zm20.79-132.54a2.58,2.58,0,0,1-2.24,1.07c-1.72-.61-1.35-2.54-.93-3.52,1.52-3.6,3.43-7,5.94-12C351.53,206.76,347.2,210.17,346.39,214.47Zm11,7.72c-.18,2.22-.42,4.25-3,4.8-1.32.28-2.16-.13-3.09-1.7-1.55-2.6-.19-4.31.75-6.19.41-.84,2.38-.51,2.26-2.11-.17-2.15.8-3.06,2.83-2.61,2.38.52,1.17,2.55,1.57,4.37A11.4,11.4,0,0,0,357.41,222.19Zm8.89,19.19c-4.54,0-3.14-2.92-3.4-5.27.43-1.73-.69-5.48,2.3-4.4,2,.74,6.62,1.14,6.05,5.23C370.94,239.22,369.85,241.4,366.3,241.38Zm2.7-37.55c-2.54-1.36-4.14-3.8-3.07-6.72-1.13-5.51,2-7,6.19-6.8,5.57.27,10.26-.12,10.8-7.27.08-1,.84-2.66,2.83-1.8,1.52.66,2.4,1.17,2.8,3.21,1.47,7.43-4.22,11-8,15.39-.83,1-2.67,1.65-3.8,2.75A6.3,6.3,0,0,1,369,203.83Zm4.75,91.07a5,5,0,0,1,1.58-.61c.07,1.55.15,3.09.24,5C373.09,297.64,371.91,296.56,373.75,294.9ZM402.7,583.1c-2-4.64-2.14-7,.49-8.78.36-.24,1.19.21,1.8.34C404.36,577,403.74,579.27,402.7,583.1Zm19.4-133.73c-1.17,0-2.2,0-2.5-1.61s-1.33-3.41-1.34-5.11c0-1-2.58-2.31,0-3.07,1.44-.41,3.31.08,2.58,1.89-1.35,3.33,3.44,2.44,2.94,4.91C423.67,447.62,424.37,449.36,422.1,449.37Zm28-40.85c-1.47.76-2.92,2-4.4.81-2-1.59,1-2.58.89-4.15-.09-1,1.81-1.57.91-3.32-1.72.32-4.19,1.46-5-1.46-.48-1.75-.89-3.93,1-5.12,2.19-1.4,4.31.14,5.87,1.37C454.78,401,455,406,450.06,408.52Zm5.06-43.94L444.18,389a23,23,0,0,1-30.33,11.57l-24.42-10.94a22.94,22.94,0,0,1-11.57-30.32l10.94-24.43a22.94,22.94,0,0,1,30.32-11.57l24.43,10.94A23,23,0,0,1,455.12,364.58Zm5.61,12.1c-3.26-.13-1.07-5-1.44-7.77-.27-2-.8-4.64,2.16-5.33,2.2,1.19,5.78,1.51,4.47,4.45C464.53,371.14,464.79,376.85,460.73,376.68Zm5.6,13.13c-1.69-.05-1.4-1.41-1.42-2.49s.62-1.74,1.67-1.53,1.18,1.19,1.11,2.14S467.56,389.85,466.33,389.81Zm6-108.6c-3.34-1.71-4.51-4.33-4.44-7,.06-2.07,1.21-5.42,3.31-5.32,2.51.11,3.51,3.44,3.43,5.78C474.56,276.86,473.18,279,472.33,281.21Zm20.95,95.47c-.45.66-.47,1.86-1.68.77-3.57-3.23,1.54-5.55.08-9.16C495.6,371.25,495.22,373.86,493.28,376.68Zm4.9-197.12c-.38-.19-1,1.55.05,1.88,2.5.8,2.88,2.5,1.4,4.09a3.13,3.13,0,0,1-4.43-.29c-1.17-1.71-3.42-3.81-1.12-6.17,1.62-1.66,4.07-2.69,3.62-5.6-.09,0-.12-.06-.21-.05l.21-.21c0,.1,0,.16,0,.26,2.53-.26,3.68,1.25,3.94,3.48C502,179.54,501.42,181.27,498.18,179.56ZM509,217.86c2.29-3.51.61-9.67,6.71-10.59,2.34-.36,3.57.73,2.54,4.52-1.75,2.33-.34,8.3-6.11,9.49C510.07,221.7,508,219.39,509,217.86Zm2.67,105.06c.19-1.4-1-3.45,1.45-3.81,1.41.08,3.06.48,2.47,1.76s-.44,3.43-2.42,3.8C512,324.89,511.49,323.93,511.62,322.92ZM516,477.59c-2.7.09-1-2.5-1.84-3.58-1.28-1.63,0-1.84,1.1-1.92,1.93-.13,2.72,1.24,3.36,2.79A3,3,0,0,1,516,477.59Zm4.72-27c-3.89.13-1.25-3.5-2-5.37.67-1.87-1.75-5.15,1.76-5.61,4.13-.54,2.43,3.19,2.33,4.94C522.66,446.68,524.78,450.49,520.74,450.63Zm15-81.81c-3.2-.26-5.08-.79-4.26-4.3.88-3.75,1.73-8.53,5.46-9.46,2-.51,5.64,3.12,4.26,7.22C542.25,366.94,541.08,369.26,535.71,368.82ZM544,453.55c-1.77-.1-1.3-1.64-1.26-2.67.06-1.28-.14-3.2,2-2.58.89.26,1.51,1.52,2.15,2.22C546.22,452.2,545.73,453.65,544,453.55Zm6.76,42.61c-1.91-.09-3.67.08-3.83-2.7-.21-3.71,2.81-3.74,4.93-4.29s3.1,1.36,3.68,2.8C555.24,495.33,553.5,496.29,550.78,496.16Zm-.85-35.35c.89-.12,2.44-.27,2.38.69-.27,4.31,4.49,8.66-.2,13.14-3.31-3.32-1.42-7.85-3.59-11.24A1.74,1.74,0,0,1,549.93,460.81Zm8-34.06c-3.19.27-2-2.3-2.67-3.77-1.18-2.67,1.74-2.69,2.41-2.92,3.11-1,1.35,1.94,2.21,2.62C559.38,424.4,560.7,426.52,557.93,426.75Zm1-23.39c-3.34-3.12-6.41-6.1-9.61-8.94-1.57-1.38-2.23-2.64-.93-4.58s2.35-4.08,5.08-4.13a4,4,0,0,1,1.62.67C552.51,393,563.39,396.1,558.93,403.36Zm-.36-15,2.1-4.26C560.77,385.68,562.09,388.34,558.57,388.38Zm16.1-143.13c.54-.16,1.49-.52,1.57-.39,1.63,2.89-1.53,4.11-2.39,6.29C573,248.92,570.74,246.37,574.67,245.25Zm-.6,104.85c-2.63-4.78-2.81-10-8-11.54-.54-.15-.85-2.64-.56-3.88,1.43-6.09,2.92-12.17,4.77-18.13.53-1.68,1.79-4.45,4.51-2.7s4.25,5.41,8.17,5.51c-.19,4.19,1.25,9.81-.91,12.27C577.46,336.79,576.86,343.18,574.07,350.1ZM593,381c-1.72,3.82-5.52,6.28-10.28,4.08.83-4.69,1.73-9.33,2.42-14,.18-1.23.28-2.42,1.5-2.84,1.63-.56,1.66,1.29,2.18,2C591.19,373.48,594.87,376.91,593,381Zm.64-97.88c-5.1-1-1.89-5.51-2.38-8.77,2.51,3.27,10.46-3.32,9.57,5.77C600.3,285.88,595.06,283.39,593.67,283.12Zm-172,330.3a8.49,8.49,0,0,1-1.79-2c-.69-1.63.6-2,1.79-2a1.79,1.79,0,0,1,2.08,1.79Zm126.06-23.81a8.81,8.81,0,0,1-9.26-8.5,7.21,7.21,0,0,1,2.21-6.64c1.64-1.32,2.81-4.35,6-3.27,2.83.95,2.6,4,2.79,5.62.41,3.43-1.14,7,.24,10.63C550.2,588.65,549.21,589.46,547.75,589.61ZM631.57,289c-2.43,2.47.21,6-2.12,9-4.33-2.27-6.83-6-5.83-10.56,1.26-5.83,1-11.61,1.33-17.42.14-2.33.38-5.8,3.28-5.92,3.41-.15,5.16,2.51,5.18,6.13,0,2-.92,4.36,1.69,5.72,2.66-.55-.51-4.59,2.74-4.85,3,8.08,2.53,10.44-4.76,13.33C629.58,285.81,632.75,287.81,631.57,289Zm9.27,82.64c-.87.73-1.85.85-2.29-.13-2.35-5.29-6.29-10.14-5.14-16.49.34-1.89.5-1.86,2.54-1.9,5.16,1.13,6.64,6.19,8.5,10.23C645.79,366.32,643.47,369.46,640.84,371.66Zm11.56-3.53c-1.43-.8-2.48-1.75-1.94-2.93a4.19,4.19,0,0,1,2.63-1.93c1-.23,1.65.86,1.22,1.85A21.12,21.12,0,0,1,652.4,368.13Z"/></svg>