<svg id="Guías" xmlns="http://www.w3.org/2000/svg" viewBox="0 0 850.39 850.39"><defs><style>.cls-1{fill:#fff;}</style></defs><path class="cls-1" d="M634.58,276.86c-79.08-69-182.11-142.47-277.75-98.65-25.68,11.78-48.31,32.88-71.21,66.41-4.65,6.83-9.21,13.88-13.59,21-2.59-.24-5.19-.37-7.78-.37A83.95,83.95,0,0,0,204.4,408.06c-7.78,20.15-15,40-21.61,58.5-1.38,3.87-2.79,7.74-4.19,11.61-6.43,17.74-13.08,36.07-18.48,54.66-.57,2-1.18,4-1.81,6.07-5.72,19-12.84,42.72-5.25,63.27,7.06,19.11,26.95,33,47.3,33a49.84,49.84,0,0,0,15.57-2.52c1-.35,2-.7,2.93-1.1a52.28,52.28,0,0,0,4.78-2.2,64.14,64.14,0,0,0,2.72,6.58,48.47,48.47,0,0,0,42.42,27.78c5.47-5.84,9.26-13.06,15.14-18.56,6.88-6.42,15.24-1.7,22.29-4.92.66-.3,3.39,2.06,2.16,3.24a38.34,38.34,0,0,0-9,14.28,48.82,48.82,0,0,0,43.87,27.66c1.54,0,3.1-.07,4.65-.22,31.33-2.94,42.46-30.84,50.59-51.2.8-2,1.58-4,2.42-6l.42-1c.32-.8.9-2.24,1.43-3.58a15.27,15.27,0,0,1-4.72-2.67c-4.62-4.05-.24-8.33,3.5-12.74,2.92-5,8-3.7,11.64-.69a11.66,11.66,0,0,1,9.57.37c78.62,38.79,158.61,17.19,216.74-57.5-.65.06-1.27-.14-1.8-1.18-.85-1.68-1.65-3.06-3.8-2.83,1.51,2.83.93,4.6-2.47,5.1-1.3.19-2.8,1-3.25-1-.89-3.74,2.81-2.51,4.26-3.74,3.13-4.56,6.37-.43,9.5,0,.06,0,.07.11.13.13,2.28-3,4.59-6,6.8-9.16a7.46,7.46,0,0,1,.61-.78c5.78-6.62,34.82-41.7,46.43-89.72C706.5,403,704.5,337.83,634.58,276.86ZM174.94,589.78c-.33.06-1.6.47-1.73.24-.77-1.35-1.23-3,.46-4a2.52,2.52,0,0,1,2.31.47C177.13,587.66,176.32,588.67,174.94,589.78ZM291.54,286c.49,3.75-1.78,3.89-3,4.94-.33-.57-.92-1.12-.94-1.7C287.48,286.31,290.19,287.73,291.54,286Zm-11.42-18.63c2.11-.74,3.87-.63,5.05,1.49,1.08,2-.06,2.65-1.76,3.2-2.12.67-4.18,1.46-6-.85A3.51,3.51,0,0,1,280.12,267.41Zm.77,260.79-6-6A14.94,14.94,0,0,0,262,518l-5.11.8c-13.45,2.11-22.49-13.39-14-24.06l27.37-34.48a15,15,0,0,1,26.37,6.4l9.48,48C309,529.23,291.33,538.65,280.89,528.2Zm32.64-178-12.6,28.15a16,16,0,0,1-21.1,8.05l-28.15-12.6a16,16,0,0,1-8.05-21.11l12.6-28.14a15.8,15.8,0,0,1,8.11-7.92l12.52-.24c.15.06.32,0,.48.11l28.14,12.6A16,16,0,0,1,313.53,350.21Zm308.1-32.72c.93.77,2,1.72,3.27,0,1.63-2.12,3.83-4,2.58-7-.55-1.3-2.13-2.17-.24-3.7s3-.43,4.4.83a5.32,5.32,0,0,0,2.87,1.63c4.24.21,6.15,3.11,5.91,6.48-.25,3.6-4.45,4.43-7.11,5.23a29.77,29.77,0,0,0-11.93,6.79c-4.79,4.47-5.17,4.44-8.94-.53-1.55-2-4.27-2-6.74-1.17.33,2-6.63,1.73-1.46,5.51,1.6,1.17-.36,3.56-2.6,4.3s-4.57.53-4.78-1.89c-.3-3.41-1.74-3.83-4.69-3.83-1.82,0-4.55.19-4.87-3.11-.36-3.74,2.81-2.86,4.54-3.61,3.95-1.71,7.65-1.1,10.7,2.17-.13-.43-.46-.92-.35-1.28,1.88-6.18,8.41-1.89,10.35-4C615.55,317.16,616.8,313.53,621.63,317.49Zm-10.88,12.06c-1.22,1.4-3.21,2-3.72.75-1.1-2.79,1.11-1,2-1A12,12,0,0,1,610.75,329.55Zm1.13-61.13c1.54-.29,3.36-1.33,3.52.67.22,2.77-2.35,3.86-4.36,5.08-1.59,1-2.36.1-2.82-1.41C607.11,269.05,611.14,270.06,611.88,268.42Zm-10.9-5c1.4-.53,2.57-.29,3.24,1.2a1.79,1.79,0,0,1-1.29,2.5,2.74,2.74,0,0,1-3.76-1.52C598.62,264.32,600,263.84,601,263.46ZM590.43,267c1.68-.4,3,.24,4.32,2.84.67,1.15-1.18,1.81-2.38,2.53-1.8,1.08-2.75,0-3.32-1.68S588.3,267.56,590.43,267Zm-10.57,8.42c1.68-2.88,4.14-.53,6.52-.06-2.35,1.46-3.27,5.07-6.59,4.2C579.43,279.5,579.22,276.55,579.86,275.46Zm3.48,8.16c.3,3.26.55,6-3.39,6.55-2,.25-4.08-.58-3.69-2.63C577,284,580.53,284.64,583.34,283.62ZM569,305.28c-2.24-3-1-5.37,0-7.91,1.92-4.6,3.64-4.87,8.31-2.16,5.52,3.2,11,8,18.31,6.88,5.11-.77,9.52,4.44,15,1.48,1-.56,2.79,1.38,2.75,3.18s-1.87,2-3,2c-6.42.05-13.38,3.39-18.59,2.57-12.22-1.94-22.61,6.25-33.84,4-3.93-.78-10,2.41-12.6-3.69-.84-2-.71-3.73,1-4.78a117.38,117.38,0,0,1,12-6.77C563.49,297.69,564.26,304.44,569,305.28Zm11.85,40.39c2.15.64,2.68,2.92,1.4,5.13-2.74,5.21-6.49,7.4-12.77,6.08-5-1.07-10,2.31-15.45,1.7-3.28-.37-4.1-1.77-4.92-4.22-.62-1.86-.21-2.88,1.71-3.55,2.28-.79,4.23-1.51,5.08,1.8.15.59,1.87,1.41,2,1.27,6.22-6.29,14.77-3,21.89-5.4C579.66,347.28,579.18,345.16,580.87,345.67ZM545.6,224.4c1.89-.76,4.47-.61,4.87,1,.56,2.21-1.28,3.9-3.79,4.45-1.89.41-3.34.57-4.17-1.73C541.33,224.83,544,225.16,545.6,224.4Zm-9.86,174.54c.65,3.37-2.25,2.77-3.81,3.4-2.91,1.17-6,2-9.62,3.17-4.1.67-8.31,3.17-13.48,3.27-3.41.06-4.89-2.34-7.44-3.17-1.86-.6-1.39-2.88,1.08-3.68,3.56-1.15,7.56-1.66,8.48-6.55.14-.71,2.77-1.44,4.19-1.33,5.12.4,10,2.83,15.44.67C532.41,394,535.16,396,535.74,398.94Zm3,47.81c3.07,3.24-2.64,7.38-3,10.63-2.54,4.06-4.17,2.32-6.4.75-3.36-2.37-3.17-6.56-1.25-7.59C531.37,448.74,535.9,443.81,538.7,446.75ZM502.91,306c1.17.13,2.29-3.21,1.91-5.81-.3-2-.36-5.4,3.29-5.06,2.52.23,6-.45,5.28,4.64-.48,3.23,8.12,6.66,11.41,4.75,1.67-1,3.21-3.09,5-.75s-1.09,3.57-2.22,4.6c-4.07,3.71-6.25,9-12.66,10.87-5.88,1.72-8.51.64-10.41-5.58-2.33,2.84-1.51,5.75-4.52,6.8-4.05,1.41-6-.08-5.13-3.67C496,312.37,493.76,305,502.91,306Zm-28.59,23.76c-.7-2.12.32-2.91,2.1-3.23a5.08,5.08,0,0,1,5.33,1.79c.07,2.44-.05,4-2.46,4.47C476.45,333.36,475.16,332.24,474.32,329.73Zm4.26,26.72c.58,1.86-.64,2.31-1.95,2.74s-2.62,1-3.13-1c-.32-1.61.41-2.5,1.94-2.92C476.79,354.91,478,354.59,478.58,356.45Zm-15-113.91c3.09-.83,4.13-3.19,5-5.74,1.21-3.46,4.62-3.58,7.11-3.79,2.91-.25,1.16,3.79,1.7,4.19,5.58,4.15,0,9.89,2.38,14.82,1.43,3-3.26,6.21-6.4,8.27-2.7,1.78-2.68-1.71-4.07-2.52-4.66-2.71,1.34-2.56,1.35-4.61-4.93.25-7.88-1.65-8.9-6.21C461.38,245,461.47,243.12,463.61,242.54Zm-8.15,88.6c3.17-3.75,7.83-2.6,12.14-.42-1.78,3.76-5.06,4.75-8.52,5.48,0,0,.1.07.13.12h0s-.06.05-.1.06c.47.82,2.53,1.28.58,2.59-.53.35-2.06.29-2.2,0-.76-1.55.37-2.15,1.62-2.56,0-.05-.11-.09-.13-.15l.1,0C457.87,334.32,453.45,333.53,455.46,331.14Zm-5.81-82.88c1.05-.42,2.11-.65,2.78.41a3.31,3.31,0,0,1-1.93,3.45,2.05,2.05,0,0,1-3.13-1.4C446.74,248.67,448.52,248.71,449.65,248.26Zm-2,46.58c.9-.2,2,.52,2.71.74.68,1.36.48,2.12-.55,2.49s-2.2.89-2.86-.51C446.4,296.51,446.21,295.15,447.61,294.84Zm3.65,23.74c-3.2-.77-5.32,2.28-7.68-.47a1.48,1.48,0,0,1,.26-2.31C446.49,314.52,448.77,315.05,451.26,318.58ZM440,295.35c2.44-.52,4.22-1.72,4.77.65.7,3-2.09,2.75-3.72,3.47s-2.25-.05-2.7-1.63C437.61,295.09,439.5,295.34,440,295.35ZM425.46,332.2c2.36-2.17,3.72.1,5.66,1.35-2.16,1.15-4,2.65-6.1,1.56C424.1,334.64,424.7,332.9,425.46,332.2Zm-7.19-36.73c2.35-.86,4.85-2.09,6,0,.92,1.71-1.3,2.76-3.07,3.36-2,.71-4.34,1.31-5.34-.94C414.67,295.32,418,296.45,418.27,295.47Zm-6.63-34.4c1.32.42,3.58,1.89,1.9,4.17-2.81,3.82-6.34,2-10.25,1.89C405,262.32,407.26,259.72,411.64,261.07ZM354.28,240c3-1.71,6.91.15,9.8-2.31.47.69,1.31,1.35,1.35,2.06.29,5.16-5,5.5-7.59,8S353.7,246,351.69,245C351.15,242.43,352.69,240.87,354.28,240Zm-10.71-1.28c2.44,1.32,4.42,3.65,6.29,5.82.81.95-.14,1.57-1.11,2.19,3.26,1.85,1.08,5.32.19,6.82-2.66,4.54-7,2.05-10.81,1.1-2.28-1.67-1.73-3.45-.25-5.48a7.83,7.83,0,0,1,6.09-3.53,7.8,7.8,0,0,0-1.21-1.43c-1.74.43-3.81,2.78-5.12.63-1.11-1.84,1.92-1.72,2.85-2.74C339.4,238.94,342.37,238,343.57,238.67Zm5.62,356.55c.85-.06.4,13.51-.79,14.2-4.73,2.76-11.63,1.5-13.48-.94-2.91-3.83-5.73-10.45.59-15.76C341.46,582.84,344.31,595.59,349.19,595.22ZM341.4,375.75c2.6-.8,5.88-1.17,7.28.92s-1.52,2.86-3.27,3.52c-2.36.89-4.7,1.65-5.71-.33C338.19,376.55,339.9,376.21,341.4,375.75Zm6.41-69.37c-4,1.83-4.32-2.78-6.1-4.5-1.36-1.31.5-3.12,1.43-3.53,4.43-1.61,5.39,1.17,6.79,3.34C351.64,304.35,349,305.86,347.81,306.38ZM337,215.89c-1.31,3.61-4.24,2.63-6.33,3.12C331.85,216,333.92,215.48,337,215.89Zm-10.43,70.77c3-2.15,6.42-2.59,9.36-.07a4,4,0,0,1,0,6.53c-3.59,3.05-5.83-1.74-8-1.29C325.28,289.79,324.32,288.23,326.54,286.66Zm-2.52,18a6,6,0,0,1,2.26.82c0,1.4-1,1.55-1.68,1.68a1.8,1.8,0,0,1-1.53-.61A1.18,1.18,0,0,1,324,304.66Zm-2,27.5c-1-2.05,2.46-1.67,3.14-2.2,3.69-2,6.2-1.52,7.85,1.65.9,1.71-1.27,1.79-1.57,1.69C328.31,332.23,324.15,336.52,322,332.16ZM356.7,642.34c-6,1.82-8.42,7.24-11.38,12.3-2,3.46-5.77,4.65-9.42,5.36-2.36.46-5.14.93-6.79-1.82-1.79-3-.45-5.18,1.69-7.41,3.27-3.41,7.23-6.14,5.35-12.49-.73-2.5-.21-9.69,7.17-6.83,1.51.58,3.05-.14,4.21-1.45,4.22-4.82,8-1.71,10.83,1.34C361.84,635,362,639.18,356.7,642.34Zm8.08-371.84c-.87.55-1.86,1.8-3.13.66-1.72-1.55-1.12-3.47-.07-5s2.24-.21,3.16.43C366.38,267.69,366.33,269.05,364.78,270.5Zm46.6,320.8c-2.41,3.24-4.56,8-10.43,4.22.83-1.2,1.31-2.45,2.23-3.13,2.53-1.88,3.39-6.48,7.78-5.18C411.51,587.37,412,590.45,411.38,591.3Zm3.17-110.86c-1.07,1.11-1.94.14-1.69-1,.32-1.51-2.16-3.49.74-4.55,2.09-.76,4.36-1.84,6.36-.58,3,1.91,5.67,4.6,9.53,1.62.34-.26,1.55.62,2.35,1-.55.87-.92,2-1.71,2.54a15.54,15.54,0,0,1-3.69,1.28c-2.18,2.06-4,1.88-6.11-.18C418.72,479,416.63,478.28,414.55,480.44Zm15.33,113c-1.27,2.22-6.5,4.8-8.67,2.09-3.33-4.16.17-8.4,3-12,2.05-2.57,5.46-5.62,7.46-2.65C434.06,584.5,431.94,589.84,429.88,593.45Zm11.64-112.31c-.46,1.07-3.41.47-3.72-1a5,5,0,0,1,2.82-5.33,2.91,2.91,0,0,1,4,1.06C446.68,480.05,442.35,479.22,441.52,481.14Zm-15.27-35.57c-.15,0-.24,0-.41,0,0,0,0,0,.05-.05a21.12,21.12,0,0,1-2.33-.52L388.8,429.4a22.94,22.94,0,0,1-11.57-30.32l15.56-34.76a23,23,0,0,1,30.33-11.57l34.76,15.56a23,23,0,0,1,11.57,30.33L453.88,433.4A22.69,22.69,0,0,1,426.25,445.57Zm43.13-16.78c.72,1.51,0,2.27-1.43,3l-3.56-4.65C466.5,426.34,468.32,426.55,469.38,428.79ZM479.76,463c-3.15-.07-6.16-.21-7.56,3.71a2.73,2.73,0,0,1-4,1.25,3.46,3.46,0,0,1-1-4.26c3.2-6.34,12.95-8.11,19.91-3.17A12.18,12.18,0,0,1,479.76,463Zm5.84-11.15c.16,1.28.52,3.16-1.43,2.67-1.66-.41-1.87-2.21-.65-3.72,0-5.55,1.57-8.35,7.34-4.52,1.83,1.21,3.5-.18,5-.84,3-1.33,4.07,1.07,5.27,2.54,1.59,2-.91,2.51-1.7,3.8C494.61,459.59,490.21,457.07,485.6,451.82Zm14.29,108.1a4.26,4.26,0,0,1,.29-5.16c1.36-1.78,2.67-2.2,4.48-.51,2,1.84.9,3.16-.93,4.92C502.9,559.86,501.69,562.31,499.89,559.92Zm3.81,45.34c-1.62-.09-3.37-.3-3.45-2.22a2.93,2.93,0,0,1,2.78-3.2c.63-.05,1.65.48,1.87.22,4.76-5.68,8.83-4.1,13.14,1.75C513.19,603.79,508.71,605.55,503.7,605.26Zm11.51-90.53c-2.56.23-3.31-2.87-3.52-5.06-.35-3.54,3.48-1.85,4.49-3.55,5.46-1,10.88-1,15.78-3.35a2.79,2.79,0,0,1,2.49.07C537.22,506,537,510.27,538,514c.48,1.79-4.12,2.1-6.57,2.79C525.74,518.35,520.83,514.25,515.21,514.73Zm27.48,65.13c-2.55,1.76-4.85.37-6.34-2-1.1-1.7,1-2.17,2.14-2.35,2.73-.42,5.92-.55,7.62,1.64C547,578.4,544.51,579.31,542.69,579.86ZM539.62,368c-2.32-2.61.11-6.93-3.1-9.49-.53-.42.42-1.57,1.28-1.75,2.37-.8,14.21,5.71,14.71,8.06,1,4.65-3.94,3.72-5.83,5.66C544,373.22,541.46,370,539.62,368Zm24.07,51.27c-2.55,1.08-5.15,1.53-7.56-.16-1-.68-.16-1.76.39-2.34,2.38-2.5,4.76-.09,7.16.12a10.45,10.45,0,0,1,.9-1c1.73-1.5,3.21-3.84,6-2.71,1.18.48.85,1.77.28,2.87-1.4,2.68-3,4.87-6.46,3.13A2.46,2.46,0,0,0,563.69,419.23ZM589.37,565c-2.69.4-5,7.78-11,5.58-4.75-1.72-6.17-6.2-7.36-10.79-2-7.5,4.83-9.73,8.55-10.66,4.78-1.21,9.36-2.4,13.35-5.13,3.34-2.28,5.82.63,5.07,2C594.75,551.91,597.36,559.66,589.37,565Zm14.27-121.45c1.78,5.59-1.16,6.67-5.71,6-2.74-.38-4.94,5.28-8,.63a1.77,1.77,0,0,0-1.71-.3c-7.64,7-13.21-4.65-20.41-2.26-1.62.54-2.42-2.06-2-2.72,1.57-2.28,1.32-6.26,4.58-6.81,5.31-.9,10.37-1,14.88-5.26,2.46-2.31,7,.3,9.51,2.73,2.92,2.83,4.92,2.26,8,.32,4.06-2.56,8.6-4.37,13-6.35,2.82-1.27,4.9-.3,5.5,2.8.58,2.92.69,5.82-3.41,6.26s-7.48,3.55-11.84,3C605.9,441.57,602.93,441.35,603.64,443.55ZM621,541.5c-3,2.76-6.64,2.68-9.94.08-2.09-1.56-3-3.12-.66-5.26,2.87-2.68,5.88-4.65,9.66-1.92C622.74,536.32,623.54,539.21,621,541.5Zm5.45-141.57c-.08-1.11-.29-2.43,1.36-2.35a6.9,6.9,0,0,1,2.36,1.1,9.36,9.36,0,0,1-1.93,2.52C627.2,401.9,626.86,400.7,626.49,399.93Zm3.41,126c1.24-4.32,2.83-6.79,8.69-7.35C636.24,522.79,634.86,525.54,629.9,526Zm9.16-164.07c-7.43,3.37-13.28,10-20.8,12.11-5.59,1.56-7.37,8.44-13.33,7.63s-10.29,3-15.56,4.1c-4.09.86-7.93.09-11.82.21-2,.07-10.38,2.05-4.86-6,.63-.92-.94-5.6-5.21-6.38,1.65,6-3.43,6.61-7.26,9,4.19,2.61,5.53,5.41.44,7.67-1,.45-3.88-.22-3.43-1.39,2.77-7-3.71-7.08-6.74-9.74a7.42,7.42,0,0,1-.91-1.64c2.82-1.42,5.17-4.72,7.63-5.35,7.29-1.89,14.35-5.53,22.2-4.7,1.45.16,3.54.57,2.85,2.77-1,3.07.81,5.58,2.82,5.94a7.4,7.4,0,0,0,7.78-3.23c1.53-2.55,5-3.36,5.71-6.71.39-1.76,2.57-1.94,4-2,9.25-.6,17.61-2.56,24.11-10.21,2.92-3.44,8-2.35,12.08-1.23C641.84,353.57,642.14,360.48,639.06,361.88Zm20.55,146.51c-3.83,2.73-8.51,6-12.73,3.59-3.76-2.14,1.52-4.09,2.17-6,2.9-3.57,5.6-6.67,10.16-2.78C661.22,504.9,662.09,506.63,659.61,508.39Zm3.86-97.27c-.75-.1-3.76-1.54-1.47-3.72a13.68,13.68,0,0,1,8.69-4.21c-1.16,3.72,3.12,6.19,2.85,9.81C669.19,415.69,666.69,411.55,663.47,411.12Z"/></svg>