<svg id="Guías" xmlns="http://www.w3.org/2000/svg" viewBox="0 0 850.39 850.39"><defs><style>.cls-1{fill:#fff;}</style></defs><path class="cls-1" d="M604.46,163.55a16.84,16.84,0,0,0-33.68,0v54.28a26.58,26.58,0,1,1-53.16,0V189a16.84,16.84,0,0,0-33.68,0v15.36a40.14,40.14,0,0,1-40.08,40.11H430.58a500.16,500.16,0,0,1,53.76,33.68h51.79a68.42,68.42,0,0,0,68.33-68.36Z"/><path class="cls-1" d="M748.79,276.5a16.64,16.64,0,0,0-11.89-4.94,16.86,16.86,0,0,0-16.85,16.83v54.28a26.59,26.59,0,1,1-53.17,0V313.79a16.84,16.84,0,0,0-33.68,0v15.36a40.06,40.06,0,0,1-26.43,37.56,3.15,3.15,0,0,1,.42,1.61c-.21,1.75-2.35,2.79-3.85,2.9-2.1.16-4.27-.7-6.41-1.12l0,.14c-1.5-.29-3-.64-4.5-.88-.1,0-.15-.08-.24-.1H553.9l-3.26-4.14a209.92,209.92,0,0,0-27.17-28.27c-3.26-2.84-6.53-5.42-9.79-8.17.12.39.46.61.39,1.14-.36,2.81-3.08,2.29-4.75,2.93-2.21-.48-3.28-1.71-3-3.71.32-2.36,1.86-3.17,4.17-2.83.19,0,.29.14.47.18-12.2-10.19-24.41-19.93-36.45-28.63C440.18,273,407.41,255,377.1,244.18c-83.62-29.74-144.32-3.19-180.42,78.87-.75,1.71-1.51,3.43-2.3,5.15L190.8,336l-8.41-1.69a62.22,62.22,0,0,0-53,107.88l6.24,5.47L132,455.12c-35.63,72.94-48.72,119.69-18.34,156.39L114,611c11.38,8.94,17.55,9.69,19.4,8.72,2.42-1.27,4.3-6,5.46-11.82.14-1.54.32-3,.53-4.42L116.5,564a11.77,11.77,0,0,1,11.65-17.59l56.48,7.1a11.78,11.78,0,0,1,6.92,19.94l-30.11,30.62c-.23,2.3-.56,4.72-1,7.18-.54,7.49.17,16.69,4.6,25.42,5.3,10.45,15.09,18.64,29.17,24.45,3.27,1.22,6.58,2.38,9.93,3.51,1.12.33,2.26.66,3.42,1l0,.17a336.44,336.44,0,0,0,38.37,9.86,52,52,0,0,0,49-51.82h21.71a73.52,73.52,0,0,1-27.51,57.36c40.85,2.57,83.71-2.5,124.62-18.08a1.37,1.37,0,0,1-1.15-.18,20.1,20.1,0,0,1-2.4-2.28c1-1.16,2.05-2,3-1.25a4,4,0,0,1,1.29,2.75.93.93,0,0,1-.58.88,264.47,264.47,0,0,0,35-16.18l8.78-4.91,5.56,8.38c32.56,49.06,97.41,67.19,150.85,42.17l16.14-7.55L573.72,564.3c-2-.9-3.92-2.12-4-5.33,0-.57.49-.92.83-1.36L559.08,533l2.5-4.77c2.26-4.3,4.47-9.1,6.62-14.1a4.25,4.25,0,0,1-3,.46c-3.25-.59-3.88-3-4.67-6,3.52-1.4,3.77-7.05,8.92-6.6a5.15,5.15,0,0,1,2.94,1.6c7.91-21.94,12.59-48.67,7.13-77.09a3.79,3.79,0,0,1-1.73-4.38,4,4,0,0,1,.56-1.31c-.33-1.38-.47-2.73-.85-4.11l-3.79-13.74H685.39a68.43,68.43,0,0,0,68.34-68.36V288.39A16.67,16.67,0,0,0,748.79,276.5ZM205.35,401.68l-7.92,17.69a16,16,0,0,1-21.11,8.05l-17.68-7.92a16,16,0,0,1-8.06-21.11l7.92-17.68a16,16,0,0,1,21.11-8.06l17.69,7.92A16,16,0,0,1,205.35,401.68Zm24.58,2.43c1.62-.33,1.71.91,1.52,2a1.65,1.65,0,0,1-2,1.58c-.48-.66-1.08-1.49-1.69-2.31A8,8,0,0,1,229.93,404.11Zm13.78,123.17c-1.38,2.41-4.14,1.65-5.64,1.53-3.21-.24-6.2-2.31-9.76-1.7-1.18.21-1.74-.85-1.61-2.21a8.19,8.19,0,0,1,9.45-6.92,6.67,6.67,0,0,1,5.66,3.22C242.72,522.94,245.28,524.55,243.71,527.28Zm247.55-163c.83.39,1.34,1.48,2,2.26a14.08,14.08,0,0,0-2.38.62c-1.67.77-1.55-.79-2.25-1.33C489.41,364.77,490.18,363.73,491.26,364.23Zm5,101.08-2,1.54c-.26-1.79-3.17-1.22-2.4-3.37.13-.37,1.14-.86,1.36-.71A36.92,36.92,0,0,1,496.27,465.31Zm-37,93.65c-2,9.24,3.68,16.74,5,25.55-5.54-.25-8.61-4-12.29-7.35-2.47-2.28-4.49-5.56-8.65-6.31-2.67-.48-1.77-7.41,1.57-9.78,3-2.14,7-2.52,10-4.86C455.61,555.72,460.08,555.25,459.29,559Zm-14.88-75c1.89.11,4.38.11,4.48,2.93-1.49,1.8-2.42,5-4.87,3.29s-7.87-2.63-7-6.31C437.76,481,441.84,483.85,444.41,484Zm-13.66,28c3.6-2.67,4.8,2.41,8.37,1.74-3.42,3-5.74,2.22-8-.06C430.64,513.13,429.54,512.89,430.75,512Zm-.09,41.88c.82-2.88,1.65-4.5,4.7-3.11,3.27,1.47,7.48,3.12,7.66,6.7.1,1.93-3.87,4.59-7.37,2.58C431.2,560.18,429.28,558.69,430.66,553.86Zm-4.1-68.06c1,.18,1.49.89,1.1,1.81s-1.3.86-2.15.62-1.73-.47-1.48-1.58C424.38,485.11,425.57,485.63,426.56,485.8Zm-16.62-21.57c1.8-1.5,2.16,1.42,3.63,1.57,1,.1,1.11,1.93,2.87,1.43,0-1.63-.58-4.1,2.24-4.32,1.68-.12,3.75-.1,4.5,1.81.88,2.25-.9,3.91-2.31,5.12-4.94,4.23-9.55,3.48-11-1.44C409.45,466.91,408.57,465.36,409.94,464.23ZM380,337c2.1.22,4.21,1.27,3.86,3.83a3.31,3.31,0,0,1-4.31,2.58c-2.9-1-4.41-3-4-5.66C376.08,333.8,378.32,338.33,380,337ZM266.2,397.13l-7.3-3.62c4.61-1,6.81-.68,7.94,2C267,395.92,266.43,396.6,266.2,397.13ZM276.79,565c-1.78,0-3.42-1-3.2-2.47.32-2,2.81-1.89,4.3-1.94a2.81,2.81,0,0,1,2.44,3.1C280,565.28,278.31,565.57,276.79,565Zm-.9-38c-1,.34-3.36.34-3.37-2,0-2.06.54-4.4,3-4.4,4.8,0,8.54,2.31,11.23,6.12C282.74,527.72,279.47,525.84,275.89,527Zm16.38,43.65c-1-1.32-.15-2.91.41-4.32,1.95,3,6.35,1.42,9.44,6.26C298,570.89,294.72,574.06,292.27,570.69Zm22.24-21c-3-.91-3.56-2.66-3-5.12.43-1.74.6-3.38,3.17-3,3.43.48,2.91,3.25,3,5.29S315.94,549.44,314.51,549.71ZM343,552.25c-3.89-1-8.73,2.54-12-2.56,3.64-2.42,7.43.13,10.92-1.25a1.63,1.63,0,0,1,2.11,1.77C344,551,343.82,552.48,343,552.25Zm-8.13-36.08c.4-2.48,2.46-.45,3.61-1,1.71-.87,1.68.31,1.55,1.36-.23,1.79-1.63,2.26-3.16,2.56A2.79,2.79,0,0,1,334.82,516.17ZM319.6,486.22l-24.89-11.14a23,23,0,0,1-11.57-30.33l11.14-24.89a23,23,0,0,1,30.33-11.56l24.89,11.14a23,23,0,0,1,11.57,30.32l-11.15,24.89A22.94,22.94,0,0,1,319.6,486.22ZM354,549.35c-1.4-1-2.64-1.69-2.25-3.23s1.74-.9,2.68-.67c1.15.29,2.95.45,2,2.33C356,548.56,354.72,548.89,354,549.35Zm9.79-21c-1.89-.49-5.76.76-5.15-3s3.43-.51,5.28-.9c1.59.95,5-.67,4.81,2.63C368.43,531,365.33,528.73,363.75,528.33Zm13.31,37.87c-1.48-.77-3.65,0-3.37-2.53.33-2.95,2.48-1.42,3.94-1.75,2.65-.59,2.14,2.08,2.22,2.74C380.24,567.68,377.84,565.54,377.06,566.2Zm8-130.44c-2.8-1.83-2.86,2.7-5,1.8-1.11-.36-2.83,0-2.43-2.11.21-1.07.41-2,1.93-2s3.36-.6,4.92-.3c.9.18,2.57-1.94,2.79.59C387.36,435.14,386.57,436.76,385.05,435.76Zm9.84,133.06c3.46-2.48,6.74-4.75,9.91-7.16,1.55-1.18,2.82-1.56,4.35,0s3.31,2.88,2.86,5.39a3.76,3.76,0,0,1-.91,1.36C405.51,564.83,400.72,574.22,394.89,568.82Zm17.27,5.08c-1.45-.19-4.12.53-3.52-2.69Zm-4.88,20c4.14,1.6,8.21,3.26,12.36,4.74,1.09.39,2.15.7,2.32,1.88.22,1.59-1.48,1.28-2.23,1.63-3.37,1.56-7.18,4.3-10.58,1.88C406,601.77,404.41,597.86,407.28,593.91Zm19.57,54.39c-2,4.51-6.86,5-10.89,5.92-2.94.7-5.39-2-6.92-4.79-.51-.93-.44-1.86.53-2.07,5.27-1.19,10.4-3.91,16-1.72C427.24,646.3,427.18,646.44,426.85,648.3Zm3.08-75.83a3.21,3.21,0,0,1-3.44-3.19c-.09-2,1.18-3.22,3.16-3.51,4.46-.65,8.91-1.2,9.18,5.36A24.52,24.52,0,0,1,429.93,572.47Zm43.9,27c-2.11,2.2-5.71,2.9-6.51,6.47-3.79-.94-9.19-.64-11.05-3.06-3.89-5.09-9.63-6.79-15.44-10.59,4.84-1.55,9.67-.76,12-5.27.24-.46,2.57-.29,3.66.2,5.3,2.4,10.58,4.86,15.7,7.64C473.62,595.66,475.92,597.32,473.83,599.49Zm1.27-58.29c0-1.1,1-1.36,1.87-1.05,1.24.42,3.33-.27,3.21,2-.32,1.26-1,2.71-2,1.93S475.08,543.08,475.1,541.2Zm28,119.79c-1.82-.35-3.82-1.63-5.54.51,0,2.53,4.29.37,3.94,3.38-7.93,1.29-10,.42-11.32-6.76-.63-3.45-3-.91-3.93-2.22-1.82-2.66-5.54-.89-7.81-3.55,2.86-3.55,6.69-5.16,10.7-3.42,5.1,2.21,10.43,3,15.68,4.37,2.11.55,5.23,1.4,4.82,4.07C509.14,660.51,506.4,661.63,503.09,661Zm-4.6-38.65c1.84-4.49,5.38-.73,8.44-.59-3.43,1.71,1.14,10.16-7,7.7C494.77,627.89,498,623.57,498.49,622.34Zm15.3-157.74c-.33,2.31-2.68,3.67-6.55,1.77-1.88-1.86-5.66-1.94-9.2-2.77-1.08-.25-2.12-.57-1.85-2.07.21-1.16.62-1.9,2.07-1.91,4,0,8-.35,12-.26C513.59,459.44,514.05,462.75,513.79,464.6Zm13.74-45.38a4.5,4.5,0,0,1,.27,1.55l-4.64-.69C525.15,418.12,526.35,417.24,527.53,419.22Zm-5.33,92.57a6.78,6.78,0,0,1,7.16-2.79c1.89.43,4.73,2.08,4.27,4-.56,2.28-3.78,2.58-5.91,2.09C525.77,514.61,524.09,513,522.2,511.79Zm14.41,101.54c-2.93,1-3.47-2.14-5.31-3.32,2.2-.41,4.93-2,5.24,1.82C536.58,612.35,536.74,613.29,536.61,613.33Zm-2.36-137.68s-2.63,1.18-2.85-1.34,1.71-2.11,3.52-2.26c1.41-.12,1.26-2.1,1.48-3.34.33-1.89,1.31-2.74,3.18-2.22,2.5.69,5.34.3,7.42,2.14.35.3-.19,2.39-.35,2.4C542.1,471.13,541.65,479.72,534.25,475.65Zm15.45,13.19c-1,1.82-2.1,4.38-5,4.2-1.84-.2-2-1.28-1.77-2.79.44-2.56,1.68-4,4.42-3.4C548.45,487.09,550.65,487.15,549.7,488.84Zm39.38,161.09c-1.13,1.88-2.49.38-3.7-.47-2.5-1.75-5.27-3.2-7.56-7.31,4.28,1.19,7.44.85,10.33,3C590.46,646.79,590,648.45,589.08,649.93ZM581,626.61c1.25.16,1.9.75,1.76,2.12-.23,2.26-2,2.47-3.06,2.95-1.81-.28-2.62-1-2.33-2.26C577.81,627.6,578.87,626.34,581,626.61ZM555.1,644.49c-.26-.69-.25-1.12.53-1.23,1.82-.25,2.72.8,3.37,2.79C557.15,646.31,555.77,646.32,555.1,644.49ZM579.9,438c-4.19,3-2.35,11.54-10.07,7.42-1.89-1-4.63-2.08-2.6-5.83C570.77,433,574.75,438.44,579.9,438Zm32.24-60.89c-1.09,0-2.12-1.91-1.44-3.05,1.54-2.56,4.31-1.83,6.68-1.63.67.06,1.27,1.14,1.82,1.67A8.72,8.72,0,0,1,612.14,377.08Zm39.38-31c2.42,3.38,4.51,6.48,9.2,5.63.63-.12,1.66,2,2.51,3.09-1.11.59-.63,2.52-2.49,2.61-3.75.18-8.06,4.64-11-1.09C648.13,353,650.5,349.69,651.52,346Zm-19.91,45.71c-2.2.16-5.88-.48-6.49-1.85-1.23-2.72,2.37-4.35,3.5-6.75l-.11,0h0a.78.78,0,0,0,0-.14c-1.15-.61-3.29,2.06-3.58-1-.13-1.39.12-3.42,2.39-3,2.64.54,1.75,2.35,1.19,3.95.05,0,.11,0,.14,0s-.05.07-.07.11a18.55,18.55,0,0,1,3.59-.49c2.14.1,4.88,2.52,4.25,3.07C634.38,387.53,634.68,391.52,631.61,391.75Zm10.24-30.3c-4.9.67-5.82,4.22-6.62,8.26-.29,1.48-2.52,3.55-3.74,1.37-1.76-3.18-10.11-1.19-6.47-8.21,2.34-4.54,13.12-7.74,16.82-5.18.8.55,1.38,1.08.95,2.17C642.48,360.41,642.23,361.4,641.85,361.45Zm12.32,37.31c-4.09-.79-7.23-4.89-6.2-8.77.7-2.63,5-2.24,6.75-.88,4.3,1.39,8.7,1,7.74,6.36C661.57,400.42,656.79,399.26,654.17,398.76Zm4-23.09c-2.32-.71-6.05-.26-5.25-3.88.19-.87,5.24-1,8-.85,2,.12,4.82,1.71,4.08,3.69C663.82,377.85,660.62,375.9,658.19,375.67Z"/></svg>