<svg id="Guías" xmlns="http://www.w3.org/2000/svg" viewBox="0 0 850.39 850.39"><defs><style>.cls-1{fill:#fff;}</style></defs><path class="cls-1" d="M354.39,242.87,353,242c-36.4-21.87-70.34-35.18-100.88-39.57a149.31,149.31,0,0,0-21.37-1.58c-52.49,0-92.43,30.4-118.93,90.65-2.67,6-5.36,12-8.07,17.88l-2,4.39L97,315.19a62.26,62.26,0,0,0-40.16,81l1.63,4.43-2.12,4.21C16.73,483.51-6.18,538.63,30,581.22c9.54,6.88,14.83,7.45,16.51,6.56C49,586.51,50.86,581.83,52,576c.25-2.69.61-5.19,1-7.46a72.22,72.22,0,0,0,.27-7.48L39.75,530.61A11.77,11.77,0,0,1,52,514.13l40.88,5.15a11.77,11.77,0,0,1,7.76,19L75.92,569.43c.76-.48,3.07-.08,3.31.49,1.38,3.31-1.48,4.85-3.77,9.36-.46-2.3-.94-4-1.16-5.52-.22,1.84-.4,3.65-.77,5.58-.53,7.49.18,16.68,4.6,25.41s12,15.88,22.55,21.38c106,42.4,263.57,35.32,349.13-89.72l1-1.2c.43-.47,43.77-48.69,46.33-109.85l.55-13.17,172.46,41.39c1.65.4,3.34.56,5,.9a7.07,7.07,0,0,1,3.55-.19,7.68,7.68,0,0,1,3.16,1.39,140.23,140.23,0,0,0,156.65-96.57ZM44.57,513.51c-4.89.28-.36-3.42-.51-4.69-1.64-4.09-1.74-7.18,2.88-7.93,2.86-.46,2.86,1.9,2.62,3.72C49.08,508.28,48.08,513.31,44.57,513.51ZM75.42,474a10.34,10.34,0,0,1-1.92-1c.78-1.23,1.41-2.85,3.28-2.24.62.21,1,1.2,1.28,1.6C77.8,474.46,76.58,474.29,75.42,474Zm45.76,111.23c-.37,2.07-4.59,1.64-7.14,1.51-1.66-.09-4.72-.67-3.51-3,3.13-6-.79-12,.59-19.07,3.25,5.1,9.39,4.44,11.82,10.08C124.83,579.14,121.79,581.84,121.18,585.19Zm12.11-218.44-11.9,26.57a16,16,0,0,1-21.11,8.05l-26.57-11.9a16,16,0,0,1-8-21.1l11.89-26.58a16,16,0,0,1,21.11-8.05l26.57,11.9A16,16,0,0,1,133.29,366.75ZM226.1,599c-1.61.88-7.32-2.74-7.37-7.58,0-3.54,9.54-12.81,12.6-12.62,3.32.22,6.43,4.58,6.37,8.91C237.78,595.28,230.69,596.44,226.1,599Zm63.11-184L274,449a23,23,0,0,1-30.33,11.57l-34-15.22A23,23,0,0,1,198.09,415l15.22-34a23,23,0,0,1,30.33-11.57l34,15.23A23,23,0,0,1,289.21,415Zm88.06-119.66c1.63-4.64,2.93-4.61,9.85.13,1.43,1,4.05,1.66,2.42,3.86-1.85,2.52-3.66.29-5.26-1C381,299.57,376.76,303,377.27,295.31Zm39.65,49.5c-5.65.82-9.88-1.45-13.87-5.49-3.58-3.63-8.18-6.25-12.23-9.43-2.15-1.7-8.67-1.09-4.55-6.35,2.52-3.22,6.22-7.72,11.28-1.83a10,10,0,0,0,10.22,3.11c.71,2.09,1.13,4.26,1.68,6.39,4,2.62,9.92,3.36,9.65,10C419,342.68,418.91,344.52,416.92,344.81Zm225.62-31.48a2.42,2.42,0,0,1,0,3.5c-.66.83-1.61.88-2-.13a3.29,3.29,0,0,1,0-2.52C640.78,313.65,641.89,313.57,642.54,313.33ZM483.41,371c-2.34-.3-6.59-.57-6.29-4.09.27-3.08,1.37-7.56,5.65-7.52,3.82.05,7.78-3.44,11.52.14.91,2.13,3.62,3.07,3.79,5.69C494.65,370.88,489.12,371.77,483.41,371Zm26.89-31.41a2.34,2.34,0,0,1-2.21.64,3.41,3.41,0,0,1-1-2.33c-.14-1.43,1-1,1.77-1.06C510.09,337.5,511.18,338.26,510.3,339.63Zm19-8.84c-1.47,5.09-2.17,5.42-7.25,3.39-4-1.62-7.91-12.55-5.84-16.21a2.75,2.75,0,0,1,3-1.46C525.45,316.84,531.09,324.72,529.34,330.79ZM562.24,347c-4.28-.62-9.25,2.57-13.32-2.68,4.53-2.88,8.78-3.33,13-3.39,1.39,0,3.23.88,3,2.89C564.69,345.27,564.27,347.29,562.24,347ZM564,334.11c-2.93,3.55-7.06,1.38-9.21-.85-2.33-2.4-5-3.61-7.7-5.07-.57-.74-1.49-1.3-1.19-2.45,4.9-5.61,12-6.33,16-.86C563.59,327.24,566.79,330.77,564,334.11Zm38.25-11.62c-2.1-2.08-3.19-4.86-6.1-6.7s-3-6.16-.51-8.86c1.63-1.74,3.92-4.59,7.4-2.16,5.87,6.94,17.07,6.17,22.14,14.46,1.87,3.06,3.69.79,5.6.81,7.46,0,15.15-.46,18.8,8.39.4,1,1.61,1.41,1.2,3-1.22,4.68-10.25-3.52-9.47,6.08.17,2.09-7.23,2.38-10.2-2.17a3.79,3.79,0,0,0-3.43-1C615.17,339.07,609.25,329.37,602.28,322.49Zm61.9,108.06c-4.18.45-8.42-.83-10.9-6.34-3.55-7.84-11.45-11.64-19.3-14.26a67.69,67.69,0,0,1-7.83-2.71c-2.41-1.16-3.67-3.09-2.89-6.12.89-3.4,3.07-3.92,6.14-4,3.3,0,6.41,3,9.8.55,2.74-.66,5.48-1.21,8.24-.09,9.37-.52,17.33.8,17.55,12.88,0,.76,1.71,1.5,2.64,2.24,1.93,2.54,4.83,4.44,5.14,8C674.15,427.71,669,430,664.18,430.55Zm45.47,10.29c-1.86-2.19-4.11-4.22-3.27-7.58.38-1.85,1.41-2.06,2.89-1.14l3.36,1.73Q711.15,437.35,709.65,440.84Zm7.85-43.49c-2.12,2.57-5.11,1.41-7.8.18-7.43-3.4-15.36-4.46-23.53-6-.35-4,1.57-6.1,7.08-7.24,5.33-1.1,10.08-5,15.08-7.68.46-.64.9-.83,1.3-.58s.66.53.58.72c5.15,2.84,4.75,9.73,9.74,13.11C721.71,391.08,719.19,395.3,717.5,397.35Zm-2.92-52.18c-2.45-.45-2.9-2.57-1.51-4.29a4.84,4.84,0,0,1,6.77-.9c1.61,1.06,2.13,3,1.65,5.18C719.24,346.83,716.81,345.58,714.58,345.17Z"/><path class="cls-1" d="M362.7,222.53l347,83.34a145.06,145.06,0,0,0,15-13,141.91,141.91,0,0,0,41.47-90.27H324.88A400.88,400.88,0,0,1,362.7,222.53Z"/></svg>