<svg id="Guías" xmlns="http://www.w3.org/2000/svg" viewBox="0 0 850.39 850.39"><defs><style>.cls-1{fill:#fff;fill-rule:evenodd;}</style></defs><path class="cls-1" d="M263.16,620.88c.1-.21,2-5-2-5-10.14,0-10.35-5.46-6.89-12.6,2.08-4.31-6.07-11,3.22-13.54a3.12,3.12,0,0,0,1.42-2.66c-7.48-16.3,14.67-19.28,14.57-32.41,0-3,4.68-2.9,5.52-1.81,2.93,3.79,9.63,5.49,8.8,11.15-1.34,9.22-3.8,17.64.75,27.32,2.5,5.29-4.22,11.36-9.56,14.2-6.22,3.31-6.35,6.91-4.79,13,2.06,8.05,2.64,16.5,3.55,24.8.37,3.33-1,5.26-3,6.42a225.71,225.71,0,0,0,43.77,27.57,7.07,7.07,0,0,1,2.37-.62c1.83.46,4,.87,3.13,3.39A243.9,243.9,0,0,0,371.37,696c-1.94-6.36-3.6-12.67-3.34-19,.41-10-10-16.64-5.48-26,4.42-9.2.54-18.55,1.52-27.82.76-7.2,4.07-13.11,5.93-19.58,1-3.34,2.15-18.2,12.46-4.83,1.18,1.53,9.72,1.43,13.28-5.19-10.72-.46-9.06-9.16-10.95-16.73-6.52,5.5-11.84,6.22-12.87-3.36-.2-1.87,2.43-6.29,4.11-4.9,6.3,5.19,10.07,2.91,13.5-.38-16-18.84-24.58-44.38-23-72.93,2.22-40.61,18-75.26,36.27-115.37l1.84-4c27.09-59.51,42.58-85.41,78.3-137.77l-58.1-90.29c-10.68,16.82-21.31,33.68-31.7,50.16-28.72,45.6-58.41,92.75-89,138.59-5.92,8.85-12,17.75-18.19,26.72C238,433,188.35,505.14,222.51,582.94c9,20.49,22.81,38.87,39.51,55.07C262,632.31,260.51,626.45,263.16,620.88ZM398.65,326.8c3.43-1.82,5.72-4.89,3.27-9.47-1.27-2.35.8-3.26,2.53-2.26,2.31,1.33,6.89-1.69,7.09,3.65.14,3.84.71,8.16-2.42,10.78-4.76,4-10.6,6.89-7.73,14.84.24.69-1.85,2.22-2.86,3.35-1.14-1.37-2.87-2.6-3.27-4.16-.57-2.18-.15-4.62-.15-6.77C392.89,332.08,394.13,329.21,398.65,326.8Zm-8.57,29a8.59,8.59,0,0,1,7.27,7.5,5,5,0,0,1-3.86,6c-8,1.19-4.35-5.5-7.09-7.89C384.89,360.07,387.46,355.52,390.08,355.8Zm-67.8,208.35a3.92,3.92,0,0,0,.23-1.14c-.41-4.78.23-9.3,4.3-12.37,1.63-1.23,3,.68,3.65,1.89,2.85,5.25-2.39,7.89-4,11.72a19.14,19.14,0,0,1,1.14,2c1.55,3.65,4.61,7.33,1.3,11.27-1.42,1.68-3.38.45-4.89-1.08C320.34,572.73,317.55,569,322.28,564.15Z"/><path class="cls-1" d="M636.11,490c-3.92-19.37-13.67-45.63-37.87-60.69-18.5-11.54-44.75-16.89-82.57-16.89-49.77,0-78.47,19.64-94.57,38.1,2.8,2.6,2.59,5.95-3.45,10.76-3,2.37-1.56,5.87-1.26,8.62.61,5.63-3.93,6.14-7,7.33-2.72,1.05-3.43-.58-4.11-2.36a64.39,64.39,0,0,0-2.83,7.39l-.25,0-1.55-.18c-.71,4.74-1.21,9.53-1.46,14.4a100,100,0,0,0,3,30.12c.19-2.11.49-4.33.56-6.07.38-10.21,9.75-16.11,11.94-25.64,1-4.33,6.49-3.91,10.21-3.1,6,1.31,1.19,6.72,3.46,9.29-1.22,9.55-4.21,18.44-2.88,27.78.19,1.31-.5,3.65-1.43,4.06-6.48,2.87-13.35.37-19.85,0a65.48,65.48,0,0,0,11,20.1,49.51,49.51,0,0,1,4.57-2.26c5.55-2.44,11.36,3.86,17.29-.07,1-.64,2.37,1.53,2.21,3.05,0,2.19-4.34,7.39-9.18,11.93,19.14,10.54,45.83,8.12,63.54-.58a45.62,45.62,0,0,0,17.28-14.22,18.87,18.87,0,0,0,3.26-7.87,23.67,23.67,0,0,1-.94-7,29.53,29.53,0,0,1,.57-4.54c-.07-.41-.07-.71-.14-1.13l.28,0c1.38-6.16,5.15-8.62,14-8.49-3.44-5.33-8.67-5.53-8.8-11-.18-7.44,3.33-9.87,8.77-6.51,6.66,4.11,20,4.44,13.5,19-.45,1,.81,2.48,2.72,3.78l1.93-.21c.08.45.11,1,.19,1.42a14.47,14.47,0,0,0,3.71,1.24c3.53.6,9.1,2.28,6.59,8.12-1.64,3.82-2.58,9.33-9.54,6.46a41.4,41.4,0,0,1-7.56,19.56c-6.69,9.58-16.62,17.79-28.69,23.73a115.58,115.58,0,0,1-50.63,11.59,109.86,109.86,0,0,1-24.72-3.09c1.35,10.73-5.11,20.89-4.94,31.49,2.06.36,5.81.7,4.07,3.23-2.19,3.19-6.24,2.85-9.19-.44-7.14-7.28-8.75-14.62-3.23-24.26,2.22-3.87,2.6-8.29,2.91-12.83a83.54,83.54,0,0,1-21.52-11.29c-.23,11.71,1,23.69-4,34.85-1,2.3-2.82,5.52-6.07,3.22-4.54-3.21-9.62-1.64-11.28,1.49-2.21,4.17-2.73,10.06,1.18,14.53,3.38,3.88,2.89,10,8,13,2.7,1.58,1.83,5.26,1.24,7.61-3.86,15.27-5,29.82,3.62,44.32a241.17,241.17,0,0,0,29.14,2c5,0,10-.57,15-.85-2-5.49-.41-6.67,7.72-9.52,4.19-1.47,5.6-6,5.51-10.49-3.4-.49.68-11.84-8.3-5.32-2.76,2-5.68-2.49-5.7-6.58s1.57-7.82,5.66-6.88c5.77,1.33,7.24-.82,8.81-5.69,1-3,2.11-7.58,7.71-6.35,6.36,1.39,3.22,6.15,3.53,9.38.73,7.43-2.26,13.2-9.27,16.48.78,0,1.76-.27,2.3.1,9.18,6.38-1.37,14.87,1,19.16.77,1.38,1.58,2.59,2.34,3.77C467.9,699,474,698,480.11,696.7c2.57-10.24,1.36-22.28,5.24-29.94,9.69-19.1,1.72-40.56,11.38-57.89,3.37-6,1.32-17.66,12.78-18.77,3.68-.36,6.51.79,7.35,4.15a203.8,203.8,0,0,1,4.76,23.4c1.24,9.67-10.29,7.35-14.2,14.75,6.11-2.1,9.39,1.15,13,4.24,6.55,5.61,6.09,8.58-.86,14.83-8.2,7.39-19,13.94-21.07,26.51-1.08,6.53-7.3,10.71-9.69,16.72a248.9,248.9,0,0,0,50.89-18.35c2-1,3.86-2.31,5.86-3.39-1.8-2.92-3.81-5.65-1.57-9.16.35-.53,5.33.69,6.78,2.32a4.56,4.56,0,0,1,1.37,3c51.31-30.58,84.38-83.23,86.91-141A159,159,0,0,0,636.11,490ZM457.83,435.14c-2.86.38-3.73-1.23-4.23-4-.91-5,2.87-5.29,5.79-6.66,3.82-1.79,3.48,1.07,3.77,3.27C463.4,431.69,462.09,434.58,457.83,435.14Zm13.39,21.06c-3.38-.05-3.46-2.3-3.48-4.68s-.27-4.86,3.3-4.64c2.83.34,3.9,2,3.77,4.76C474.7,454.06,474.58,456.24,471.22,456.2Zm44.71,20.18c-4.06-1.17-6.51-2.17-6.06-6.43.53-5,3-6.52,7.63-6.56,3.86,0,4.63,2.07,4.21,5.17C521.17,472.58,519.09,475.36,515.93,476.38Zm3.52-24.58c-5.25-4.94-5.14-10.88-4.51-17-.08,0-.17.12-.25.13v0c0-.08,0-.13,0-.21-1.6.35-3.46,3.49-4.57-.41-.3-1.07.61-3.54,1.21-3.62,3-.41,3.34,1.76,3.36,4,.1,0,.21-.12.31-.12a1.09,1.09,0,0,1,0,.18c3.74-1,7.41-7.86,10.28-3.27C529.72,438.77,525.33,445.84,519.45,451.8Zm28.68-20.47c3-4.87-.92-10,4.87-12.4,1.51-.63,3.44,0,3.67,1.65C557.36,425.63,555.29,429.1,548.13,431.33ZM446,681.72c5.17-.34,1.12,2.38.66,3.8a18.88,18.88,0,0,1-1.41,2.71C443.59,685.48,443.63,681.87,446,681.72Zm89.49-14.21c-5.52-1.24-10.24-2.31-9-9.08.64-3.38,3.13-6.4,6.29-4.67C538.32,656.79,535.3,662.33,535.47,667.51Z"/></svg>