<?xml version="1.0" encoding="UTF-8" standalone="no"?><!DOCTYPE svg PUBLIC "-//W3C//DTD SVG 1.1//EN" "http://www.w3.org/Graphics/SVG/1.1/DTD/svg11.dtd"><svg width="100%" height="100%" viewBox="0 0 576 378" version="1.1" xmlns="http://www.w3.org/2000/svg" xmlns:xlink="http://www.w3.org/1999/xlink" xml:space="preserve" xmlns:serif="http://www.serif.com/" style="fill-rule:evenodd;clip-rule:evenodd;stroke-linejoin:round;stroke-miterlimit:2;"><g id="Capa-2" serif:id="Capa 2"><path d="M129.766,179.199c-0.03,-3.307 0.445,-6.399 1.361,-9.429c0.777,-2.565 2.055,-4.842 3.883,-6.811c2.925,-3.152 6.558,-4.167 10.712,-3.534c3.422,0.52 6.537,1.986 9.715,3.252c1.772,0.706 3.559,1.372 5.349,2.035c0.47,0.174 0.97,0.273 1.458,0.406c0.47,0.13 0.896,0.071 1.214,-0.332c0.369,-0.466 0.264,-0.941 -0.003,-1.412c-0.338,-0.598 -0.835,-1.061 -1.349,-1.491c-4.384,-3.678 -8.774,-7.351 -13.173,-11.01c-0.908,-0.756 -1.788,-1.539 -2.581,-2.412c-2.119,-2.333 -2.321,-4.538 -0.565,-7.177c0.805,-1.211 1.698,-2.383 2.681,-3.453c3.459,-3.768 7.137,-7.309 11.275,-10.339c1.863,-1.365 3.862,-2.059 6.135,-0.987c1.107,0.521 1.869,1.422 2.583,2.362c1.9,2.504 3.804,5.005 5.657,7.543c3.672,5.031 7.312,10.087 10.965,15.133c0.131,0.181 0.269,0.359 0.392,0.548c0.684,1.046 0.645,1.208 -0.491,1.737c-0.56,0.261 -1.136,0.484 -1.71,0.711c-1.566,0.618 -1.772,0.56 -2.833,-0.789c-3.295,-4.191 -6.579,-8.389 -9.886,-12.571c-1.635,-2.068 -3.282,-4.128 -4.972,-6.153c-1.879,-2.254 -2.75,-2.366 -5.068,-0.556c-2.796,2.182 -5.17,4.814 -7.584,7.396c-0.19,0.203 -0.336,0.449 -0.489,0.684c-0.995,1.519 -0.968,2.465 0.291,3.764c1.522,1.572 3.112,3.078 4.693,4.593c4.294,4.115 8.606,8.212 12.893,12.335c1.079,1.039 1.062,1.143 0.406,2.472c-0.67,1.357 -1.374,2.699 -2.011,4.071c-0.419,0.901 -1.084,1.36 -2.044,1.545c-1.543,0.297 -3.021,-0.035 -4.493,-0.382c-2.903,-0.684 -5.658,-1.822 -8.447,-2.853c-2.162,-0.8 -4.354,-1.474 -6.637,-1.847c-4.502,-0.735 -7.82,1.105 -9.51,5.318c-1.64,4.092 -1.756,8.303 -0.921,12.573c0.218,1.109 0.703,2.129 1.266,3.107c1.468,2.545 3.703,3.821 6.604,4.004c2.772,0.175 5.478,-0.291 8.183,-0.807c2.535,-0.482 5.072,-0.962 7.618,-1.373c1.838,-0.297 3.691,-0.318 5.512,0.181c2.091,0.573 3.582,2.298 3.883,4.41c0.071,0.506 -0.107,0.882 -0.404,1.226c-0.551,0.636 -1.101,1.275 -1.693,1.872c-4.742,4.784 -9.497,9.554 -14.237,14.339c-0.551,0.556 -1.095,1.135 -1.546,1.772c-0.686,0.969 -0.67,1.991 0.022,2.976c0.747,1.063 1.633,2.005 2.608,2.853c1.988,1.731 4.01,3.425 6.017,5.134c0.171,0.145 0.341,0.293 0.522,0.426c2.254,1.667 3.363,1.586 5.175,-0.532c2.59,-3.026 5.121,-6.103 7.685,-9.15c2.132,-2.532 4.263,-5.066 6.422,-7.574c1.182,-1.371 1.309,-1.379 3.015,-0.659c3.561,1.501 2.856,1.231 1.034,3.75c-4.539,6.274 -9.101,12.532 -13.664,18.789c-0.594,0.815 -1.216,1.616 -1.887,2.369c-1.838,2.063 -4.067,2.483 -6.536,1.217c-2.261,-1.162 -4.218,-2.773 -6.185,-4.353c-3.637,-2.921 -7.057,-6.08 -10.24,-9.492c-0.457,-0.491 -0.892,-1.014 -1.259,-1.574c-1.336,-2.038 -1.275,-3.825 0.191,-5.763c0.815,-1.078 1.808,-2.001 2.812,-2.895c3.353,-2.984 6.744,-5.924 10.098,-8.906c1.089,-0.969 2.122,-2.002 3.156,-3.03c0.312,-0.31 0.653,-0.696 0.35,-1.184c-0.277,-0.446 -0.751,-0.452 -1.208,-0.357c-1.317,0.275 -2.641,0.531 -3.945,0.858c-3.21,0.804 -6.394,1.725 -9.686,2.163c-1.622,0.217 -3.25,0.276 -4.862,-0.012c-5.03,-0.9 -8.089,-4.115 -9.931,-8.652c-1.325,-3.263 -1.856,-6.692 -1.786,-10.073" style="fill:#fff;fill-rule:nonzero;"/><path d="M251.405,180.955c0.046,-1.875 -0.053,-3.825 -0.725,-5.714c-1.26,-3.545 -3.452,-5.1 -7.211,-5.151c-3.818,-0.051 -7.417,1.124 -11.077,1.936c-2.31,0.513 -4.613,0.956 -6.995,0.824c-0.619,-0.035 -1.224,-0.103 -1.82,-0.294c-0.74,-0.238 -1.259,-0.663 -1.551,-1.413c-0.509,-1.305 -1.041,-2.605 -1.631,-3.876c-0.466,-1.001 -0.317,-1.789 0.46,-2.579c1.495,-1.519 2.925,-3.102 4.389,-4.652c3.93,-4.161 7.873,-8.309 11.79,-12.48c1.585,-1.689 1.678,-2.888 0.142,-4.556c-2.66,-2.893 -5.486,-5.63 -8.699,-7.916c-1.953,-1.391 -2.71,-1.292 -4.327,0.504c-2.781,3.087 -5.229,6.448 -7.82,9.691c-2.206,2.762 -4.386,5.545 -6.597,8.304c-1.202,1.499 -1.286,1.501 -3.106,0.774c-0.677,-0.27 -1.362,-0.526 -2.03,-0.819c-0.504,-0.222 -0.631,-0.613 -0.353,-1.099c0.167,-0.291 0.352,-0.573 0.552,-0.844c5.175,-7.06 10.355,-14.118 15.532,-21.177c0.6,-0.818 1.259,-1.583 2.029,-2.243c1.388,-1.19 2.956,-1.535 4.711,-0.96c1.076,0.351 2.072,0.86 3.001,1.501c4.974,3.43 9.309,7.584 13.349,12.038c3.048,3.359 2.966,5.93 -0.245,9.09c-4.2,4.131 -8.503,8.156 -12.757,12.231c-0.932,0.892 -1.934,1.724 -2.665,2.799c-0.824,1.211 -0.385,2.06 1.066,2.126c0.972,0.045 1.886,-0.263 2.802,-0.521c2.539,-0.714 5.062,-1.482 7.608,-2.17c1.949,-0.527 3.921,-0.971 5.961,-0.989c4.316,-0.037 7.546,1.846 9.754,5.513c1.747,2.902 2.516,6.132 2.801,9.446c0.417,4.863 -0.064,9.64 -1.931,14.212c-0.62,1.518 -1.408,2.941 -2.408,4.232c-2.946,3.802 -6.844,5.107 -11.495,4.174c-3.422,-0.685 -6.665,-1.981 -9.947,-3.134c-1.324,-0.464 -2.642,-0.946 -3.978,-1.37c-1.193,-0.378 -1.948,-0.19 -2.402,0.533c-0.559,0.888 -0.094,1.637 0.421,2.31c0.888,1.163 1.988,2.135 3.065,3.117c2.902,2.646 5.837,5.255 8.724,7.916c0.697,0.642 1.332,1.379 1.869,2.16c1.056,1.537 1.307,3.183 0.438,4.928c-0.507,1.017 -1.148,1.945 -1.915,2.757c-4.477,4.745 -9.306,9.097 -14.684,12.814c-0.785,0.543 -1.615,1.024 -2.589,1.159c-2.157,0.298 -3.847,-0.481 -5.114,-2.223c-1.194,-1.638 -2.105,-3.448 -3.102,-5.203c-3.077,-5.416 -6.123,-10.848 -9.182,-16.274c-1.254,-2.226 -1.233,-2.277 1.177,-3.08c0.159,-0.053 0.315,-0.12 0.475,-0.174c1.57,-0.534 1.708,-0.519 2.618,0.873c2.796,4.273 5.562,8.566 8.349,12.846c0.795,1.223 1.695,2.385 2.413,3.651c1.39,2.452 3.419,2.105 5.04,0.756c2.718,-2.263 5.426,-4.533 7.874,-7.094c0.425,-0.446 0.869,-0.887 1.222,-1.388c0.681,-0.966 0.74,-1.979 0.017,-2.968c-0.265,-0.361 -0.549,-0.71 -0.852,-1.04c-4.139,-4.502 -8.283,-8.999 -12.423,-13.498c-0.267,-0.289 -0.522,-0.588 -0.776,-0.887c-0.464,-0.547 -0.474,-1.106 -0.052,-1.687c1.03,-1.414 1.829,-2.958 2.541,-4.548c0.438,-0.974 1.214,-1.416 2.227,-1.566c2.386,-0.354 4.701,0.045 6.979,0.691c2.806,0.796 5.592,1.663 8.39,2.492c1.52,0.45 3.076,0.594 4.66,0.56c3.341,-0.072 5.479,-1.536 6.674,-4.68c1.052,-2.764 1.407,-5.649 1.339,-8.691" style="fill:#fff;fill-rule:nonzero;"/><path d="M177.294,180.68c-0.301,9.792 8.66,17.644 17.724,17.695c8.741,0.05 17.911,-7.024 17.985,-17.813c0.071,-10.411 -8.37,-18.201 -17.72,-18.037c-11.223,0.198 -17.917,8.55 -17.989,18.155m18.058,25.509c-12.527,0.466 -26.056,-9.771 -26.035,-25.896c0.018,-12.894 9.898,-25.633 25.799,-25.64c15.026,-0.007 25.762,11.767 25.85,25.415c0.098,15.208 -12.169,26.407 -25.614,26.121" style="fill:#fff;fill-rule:nonzero;"/><path d="M138.88,179.216c-0.089,-1.771 0.189,-3.48 0.615,-5.174c0.235,-0.933 0.605,-1.809 1.11,-2.622c1.279,-2.06 3.371,-3.016 5.752,-2.576c2.042,0.376 4.036,0.948 5.982,1.678c1.417,0.532 2.844,1.037 4.254,1.584c2.952,1.143 6.006,1.787 9.166,1.954c1.282,0.068 1.511,0.298 1.296,1.55c-0.558,3.237 -0.549,6.46 -0.024,9.7c0.182,1.122 -0.094,1.435 -1.13,1.247c-4.195,-0.766 -8.251,0.122 -12.323,0.91c-2.527,0.49 -5.028,1.167 -7.627,1.187c-3.672,0.028 -5.601,-1.439 -6.613,-4.961c-0.423,-1.474 -0.526,-2.975 -0.458,-4.477" style="fill:#fff;fill-rule:nonzero;"/><path d="M227.288,175.488c1.979,0.056 4.277,-0.473 6.575,-0.978c2.517,-0.553 5.011,-1.202 7.559,-1.619c4.293,-0.703 6.091,0.425 6.972,4.664c0.746,3.579 0.518,7.146 -0.694,10.606c-0.945,2.702 -2.522,3.702 -5.4,3.502c-2.14,-0.15 -4.171,-0.824 -6.209,-1.44c-1.556,-0.468 -3.093,-1.001 -4.654,-1.449c-2.111,-0.606 -4.265,-0.901 -6.473,-0.864c-2.067,0.035 -2.139,-0.129 -1.839,-2.078c0.391,-2.545 0.704,-5.085 0.37,-7.687c-0.331,-2.574 -0.154,-2.677 2.385,-2.657c0.336,0.002 0.673,0 1.408,0" style="fill:#fff;fill-rule:nonzero;"/><path d="M211.258,137.723c-0.013,0.081 -0.009,0.143 -0.032,0.189c-0.848,1.723 -2.01,3.227 -3.288,4.64c-0.322,0.355 -0.734,0.188 -1.026,-0.144c-0.556,-0.63 -1.096,-1.274 -1.644,-1.912c-1.944,-2.26 -4.065,-4.331 -6.518,-6.04c-0.367,-0.255 -0.747,-0.497 -1.133,-0.723c-1.447,-0.851 -2.827,-0.822 -4.241,0.168c-2.733,1.916 -4.996,4.319 -7.202,6.785c-0.709,0.793 -1.346,1.65 -2.051,2.447c-0.728,0.826 -1.105,0.85 -1.741,0.031c-0.928,-1.194 -1.791,-2.438 -2.672,-3.669c-0.525,-0.733 -0.504,-1.441 0.104,-2.14c3.533,-4.071 7.196,-7.998 11.786,-10.936c2.721,-1.742 5.402,-1.697 8.006,0.164c4.068,2.909 7.865,6.129 11.078,9.991c0.287,0.344 0.597,0.678 0.574,1.149" style="fill:#fff;fill-rule:nonzero;"/><path d="M199.903,152.299c-1.354,-0.088 -2.505,-0.333 -3.689,-0.361c-1.914,-0.045 -3.806,0.132 -5.692,0.385c-0.956,0.128 -1.63,-0.197 -2.165,-0.943c-0.751,-1.047 -1.53,-2.075 -2.253,-3.141c-0.552,-0.811 -0.576,-1.699 -0.062,-2.539c0.437,-0.715 0.881,-1.446 1.44,-2.062c1.808,-1.992 3.694,-3.911 5.684,-5.725c0.124,-0.113 0.257,-0.217 0.389,-0.319c1.824,-1.402 2.301,-1.431 4.135,-0.049c2.382,1.795 4.56,3.806 6.317,6.235c1.279,1.771 1.293,2.447 0.042,4.221c-0.807,1.145 -1.664,2.254 -2.474,3.396c-0.463,0.652 -1.03,1.016 -1.672,0.902" style="fill:#fff;fill-rule:nonzero;"/><path d="M195.281,223.348c-4.466,0.2 -8.631,-0.646 -12.741,-1.853c-0.376,-0.11 -0.753,-0.228 -1.113,-0.383c-1.034,-0.448 -1.134,-0.715 -0.527,-1.616c0.628,-0.929 1.342,-1.8 1.962,-2.734c0.559,-0.841 1.254,-0.984 2.181,-0.71c1.774,0.525 3.575,0.928 5.416,1.188c3.879,0.547 7.714,0.372 11.532,-0.455c1.693,-0.367 1.783,-0.31 2.67,1.221c0.422,0.729 0.869,1.443 1.26,2.188c0.651,1.244 0.573,1.454 -0.829,1.877c-2.37,0.715 -4.778,1.24 -7.268,1.275c-0.897,0.013 -1.795,0.002 -2.543,0.002" style="fill:#fff;fill-rule:nonzero;"/><path d="M162.693,150.214c-2.957,0.046 -5.922,-2.839 -5.913,-5.753c0.008,-2.899 2.62,-5.46 5.675,-5.563c2.94,-0.1 5.608,2.495 5.66,5.504c0.05,2.936 -2.592,5.768 -5.422,5.812" style="fill:#fff;fill-rule:nonzero;"/><path d="M233.276,145.344c0.275,3.079 -2.815,5.738 -5.408,5.661c-3.234,-0.096 -5.806,-2.402 -5.819,-5.482c-0.011,-3.149 2.538,-5.727 5.624,-5.688c3.138,0.04 5.591,2.451 5.603,5.509" style="fill:#fff;fill-rule:nonzero;"/><path d="M171.484,148.809c3.206,-0.021 5.774,2.43 5.803,5.537c0.027,2.889 -2.712,5.655 -5.595,5.651c-3.085,-0.003 -5.699,-2.641 -5.673,-5.722c0.027,-3.022 2.45,-5.446 5.465,-5.466" style="fill:#fff;fill-rule:nonzero;"/><path d="M176.685,205.44c-0.002,2.979 -2.553,5.43 -5.679,5.456c-2.993,0.025 -5.489,-2.509 -5.528,-5.609c-0.037,-3.028 2.535,-5.618 5.555,-5.592c3.032,0.025 5.654,2.69 5.652,5.745" style="fill:#fff;fill-rule:nonzero;"/><path d="M162.128,220.353c-3.319,-0.018 -5.794,-2.488 -5.733,-5.722c0.053,-2.885 2.825,-5.456 5.811,-5.391c3.01,0.065 5.39,2.517 5.388,5.553c-0.002,3.214 -2.324,5.577 -5.466,5.56" style="fill:#fff;fill-rule:nonzero;"/><path d="M218.711,160.782c-3.284,-0.058 -5.461,-2.291 -5.422,-5.562c0.037,-3.135 2.598,-5.567 5.796,-5.504c2.907,0.057 5.435,2.752 5.419,5.777c-0.015,2.952 -2.636,5.345 -5.793,5.289" style="fill:#fff;fill-rule:nonzero;"/><path d="M193.463,235.167c-1.36,0.036 -2.685,-0.126 -3.94,-0.687c-1.603,-0.715 -2.234,-1.734 -2.001,-3.46c0.187,-1.385 0.483,-2.755 0.738,-4.131c0.162,-0.876 0.679,-1.138 1.569,-1.088c2.395,0.133 4.777,0.541 7.198,0.231c1.25,-0.16 1.621,0.226 1.784,1.453c0.146,1.109 0.258,2.225 0.32,3.342c0.107,1.969 -0.959,3.445 -2.84,4.069c-0.928,0.307 -1.881,0.242 -2.828,0.271" style="fill:#fff;fill-rule:nonzero;"/><path d="M217.639,215.732c-0.013,-2.816 2.278,-5.182 5.067,-5.231c2.842,-0.05 5.503,2.535 5.46,5.304c-0.047,2.959 -2.477,5.337 -5.42,5.302c-2.831,-0.033 -5.094,-2.415 -5.107,-5.375" style="fill:#fff;fill-rule:nonzero;"/><path d="M180.711,233.444c-1.534,-0.205 -3.27,-0.621 -4.805,-1.612c-1.745,-1.126 -2.06,-2.388 -0.955,-4.107c0.875,-1.361 1.876,-2.641 2.82,-3.959c0.402,-0.562 0.901,-0.781 1.595,-0.556c1.755,0.567 3.514,1.12 5.279,1.652c0.851,0.256 1.175,0.76 0.966,1.636c-0.349,1.467 -0.618,2.956 -1.022,4.407c-0.509,1.831 -1.708,2.628 -3.878,2.539" style="fill:#fff;fill-rule:nonzero;"/><path d="M220.79,206.427c-0.062,2.864 -2.378,5.169 -5.134,5.113c-2.611,-0.053 -5.048,-2.529 -5.029,-5.11c0.019,-2.821 2.393,-5.13 5.187,-5.045c2.838,0.086 5.037,2.313 4.976,5.042" style="fill:#fff;fill-rule:nonzero;"/><path d="M195.03,214.912c-2.86,0.009 -5.399,-0.396 -7.902,-1.026c-1.547,-0.391 -1.643,-0.713 -0.731,-2.059c0.503,-0.742 1.073,-1.439 1.541,-2.201c0.609,-0.993 1.405,-1.302 2.555,-1.085c1.371,0.258 2.768,0.384 4.159,0.524c1.067,0.108 2.121,-0.098 3.174,-0.25c1.052,-0.151 1.848,0.146 2.342,1.172c0.461,0.956 1.055,1.849 1.521,2.803c0.484,0.989 0.359,1.262 -0.762,1.484c-2.031,0.403 -4.084,0.675 -5.897,0.638" style="fill:#fff;fill-rule:nonzero;"/><path d="M201.522,228.168c-0.057,-2.422 0.022,-2.51 1.827,-2.929c1.148,-0.266 2.288,-0.559 3.428,-0.858c0.793,-0.207 1.454,-0.077 1.878,0.683c0.793,1.419 1.646,2.811 2.338,4.28c0.848,1.804 0.403,2.952 -1.356,3.898c-1.524,0.821 -3.14,1.181 -4.873,0.887c-1.618,-0.275 -2.544,-1.107 -2.82,-2.689c-0.221,-1.267 -0.332,-2.554 -0.422,-3.272" style="fill:#fff;fill-rule:nonzero;"/><path d="M183.617,178.106c0.673,-0 1.349,-0.027 2.021,0.006c1.187,0.058 1.366,0.24 1.423,1.38c0.023,0.447 0.019,0.899 -0.008,1.346c-0.208,3.421 3.168,7.933 8.039,7.791c4.646,-0.135 8.111,-3.334 8.158,-7.838c0.024,-2.333 -0.572,-2.736 2.652,-2.68c0.841,0.016 1.684,-0.014 2.526,0.007c1.661,0.039 1.88,0.285 1.953,1.999c0.172,4.093 -1.285,7.572 -3.966,10.593c-4.726,5.324 -12.156,6.7 -18.559,3.104c-5.395,-3.03 -8.272,-7.771 -7.934,-14.16c0.064,-1.227 0.288,-1.439 1.507,-1.534c0.111,-0.01 0.223,-0.01 0.335,-0.01c0.618,-0 1.236,0 1.853,0l0,-0.005Z" style="fill:#fff;fill-rule:nonzero;"/><path d="M195.182,175.498l-11.271,0c-0.449,0 -0.899,0.015 -1.346,-0.008c-1.564,-0.079 -1.829,-0.474 -1.122,-1.867c2.351,-4.629 6.146,-7.435 11.239,-8.176c5.36,-0.78 10.124,0.646 13.878,4.76c1.067,1.169 1.895,2.507 2.481,3.975c0.337,0.841 0.131,1.147 -0.739,1.27c-0.44,0.063 -0.894,0.04 -1.343,0.04c-3.925,0.003 -7.851,0.002 -11.777,0.002l-0,0.004Z" style="fill:#fff;fill-rule:nonzero;"/><path d="M195.141,186.001c-3.571,-0.007 -5.987,-2.847 -5.397,-6.343c0.188,-1.119 0.511,-1.492 1.641,-1.512c2.521,-0.045 5.043,-0.043 7.564,0.003c1.107,0.02 1.438,0.383 1.661,1.512c0.548,2.771 -1.656,6.526 -5.469,6.34" style="fill:#fff;fill-rule:nonzero;"/><path d="M397.223,179.82c2.14,0.139 5.039,-0.192 7.945,-0.361c1.377,-0.08 1.563,-0.324 1.299,-1.654c-0.098,-0.494 -0.239,-0.979 -0.356,-1.469c-1.867,-7.847 -3.734,-15.693 -5.596,-23.539c-0.306,-1.289 -0.732,-1.727 -1.836,-1.827c-1.668,-0.15 -2.272,0.174 -2.778,1.505c-0.119,0.315 -0.217,0.637 -0.32,0.957c-1.929,6.029 -3.86,12.057 -5.788,18.086c-0.631,1.974 -1.259,3.948 -1.881,5.926c-0.573,1.824 -0.5,1.855 1.317,2.094c2.402,0.316 4.808,0.236 7.994,0.282m73.397,-2.712c-0,-2.581 0.032,-5.163 -0.005,-7.744c-0.119,-8.189 -0.247,-16.375 -0.978,-24.54c-0.096,-1.068 -0.523,-1.619 -1.516,-1.912c-2.259,-0.668 -4.507,-1.377 -6.752,-2.095c-1.675,-0.535 -1.823,-0.677 -1.832,-2.342c-0.015,-2.639 -0.448,-5.256 -0.386,-7.898c0.041,-1.796 0.16,-2.087 1.891,-1.9c3.411,0.37 6.845,0.122 10.25,0.508c0.667,0.076 1.345,0.084 2.018,0.084c8.868,0.003 17.74,0.131 26.604,-0.061c3.972,-0.086 7.957,-0.194 11.933,-0.499c3.733,-0.287 3.38,-0.236 3.3,3.1c-0.057,2.354 -0.254,4.703 -0.341,7.057c-0.04,1.062 -0.552,1.632 -1.545,1.908c-2.163,0.601 -4.321,1.218 -6.469,1.87c-1.662,0.504 -1.682,0.575 -1.789,2.361c-0.508,8.458 -0.658,16.925 -0.678,25.398c-0.01,4.095 -0.232,8.197 -0.157,12.279c0.135,7.35 0.085,14.7 0.265,22.047c0.028,1.176 0.186,2.349 0.251,3.524c0.047,0.841 0.482,1.202 1.294,1.195c1.403,-0.012 2.809,0.043 4.209,-0.031c5.766,-0.308 11.54,-0.55 17.186,-1.964c4.901,-1.227 4.77,-1.34 6.315,-5.498c0.666,-1.793 1.157,-3.639 1.568,-5.5c0.252,-1.141 0.815,-1.704 2.017,-1.856c2.447,-0.307 4.876,-0.758 7.313,-1.146c0.388,-0.062 0.776,-0.145 1.166,-0.156c1.079,-0.035 1.318,0.189 1.211,1.262c-0.239,2.401 -0.439,4.801 -0.594,7.209c-0.312,4.823 -0.356,9.638 0.024,14.457c0.128,1.62 0.183,3.244 0.373,4.864c0.155,1.318 -0.142,1.607 -1.495,1.564c-1.68,-0.053 -3.361,-0.169 -5.032,-0.346c-4.744,-0.501 -9.519,-0.501 -14.266,-0.925c-0.224,-0.02 -0.448,-0.028 -0.673,-0.036c-13.071,-0.441 -26.148,-0.523 -39.222,-0.269c-4.991,0.097 -9.992,0.036 -14.974,0.322c-6.285,0.361 -12.573,0.439 -18.848,0.156c-7.297,-0.328 -14.588,-0.223 -21.881,-0.187c-3.362,0.015 -6.721,0.347 -10.09,0.296c-0.45,-0.006 -0.899,0.011 -1.347,0.008c-1.711,-0.018 -1.846,-0.136 -2.161,-1.872c-0.22,-1.213 -0.447,-2.427 -0.66,-3.642c-1.335,-7.578 -3.131,-15.05 -5.176,-22.463c-0.415,-1.502 -0.573,-1.649 -2.08,-1.652c-7.746,-0.019 -15.492,-0.024 -23.239,-0.01c-1.82,0.003 -2.041,0.187 -2.57,2.007c-2.365,8.137 -4.58,16.314 -6.324,24.612c-0.138,0.659 -0.268,1.321 -0.448,1.97c-0.352,1.261 -0.612,1.464 -1.918,1.286c-4.91,-0.67 -9.846,-0.635 -14.785,-0.597c-2.639,0.022 -5.259,0.294 -7.881,0.558c-0.334,0.034 -0.671,0.067 -1.006,0.066c-0.601,-0.002 -0.942,-0.314 -0.973,-0.92c-0.02,-0.391 -0.036,-0.788 -0.005,-1.177c0.201,-2.458 0.396,-4.918 0.631,-7.373c0.175,-1.821 0.31,-1.964 2.013,-2.376c2.291,-0.553 4.57,-1.185 6.888,-1.588c1.95,-0.34 3.169,-1.339 4.124,-3.048c4.771,-8.553 8.563,-17.541 12.025,-26.68c4.076,-10.761 7.719,-21.673 11.326,-32.597c0.07,-0.212 0.15,-0.423 0.212,-0.639c0.343,-1.196 0.298,-1.315 -0.929,-1.626c-1.632,-0.414 -3.279,-0.764 -4.914,-1.164c-1.926,-0.473 -1.985,-0.478 -2.168,-2.4c-0.25,-2.622 -0.438,-5.252 -0.567,-7.882c-0.078,-1.607 0.098,-1.639 1.729,-1.588c3.141,0.097 6.267,0.399 9.41,0.496c6.002,0.184 12.005,0.39 18.006,0.211c4.488,-0.135 8.974,-0.204 13.461,-0.319c1.399,-0.035 2.793,-0.237 4.189,-0.361c1.762,-0.158 2.04,-0.007 2.526,1.681c1.103,3.828 2.179,7.665 3.246,11.503c3.46,12.434 7.16,24.797 10.977,37.126c2.373,7.665 4.733,15.335 7.221,22.962c1.421,4.358 0.984,3.234 4.924,4.606c3.375,1.176 6.615,1.314 9.945,-0.065c1.34,-0.554 2.784,-0.87 4.196,-1.236c0.965,-0.25 1.371,-0.823 1.427,-1.799c0.215,-3.75 0.385,-7.506 0.726,-11.246c0.527,-5.772 0.239,-11.552 0.284,-17.328" style="fill:#fff;fill-rule:nonzero;"/><path d="M327.137,175.59c-0,-4.49 0.114,-8.983 -0.026,-13.47c-0.213,-6.779 -0.495,-13.558 -1.207,-20.313c-0.313,-2.957 -0.656,-5.908 -1.049,-8.855c-0.045,-0.333 -0.045,-0.671 -0.069,-1.007c-0.059,-0.818 0.34,-1.087 1.123,-1.027c2.573,0.197 5.149,0.335 7.719,0.55c2.356,0.198 4.702,0.195 7.058,-0.003c2.626,-0.221 5.257,-0.383 7.888,-0.535c1.035,-0.061 1.25,0.116 1.164,1.116c-0.244,2.849 -0.575,5.69 -0.838,8.536c-0.116,1.244 -0.815,1.893 -1.953,2.228c-1.884,0.554 -3.761,1.136 -5.634,1.725c-1.452,0.456 -1.556,0.611 -1.636,2.135c-0.285,5.433 -0.561,10.864 -0.777,16.301c-0.301,7.577 -0.284,15.153 -0.117,22.721c0.129,5.835 0.052,11.67 0.268,17.502c0.21,5.659 0.529,11.314 0.817,16.97c0.077,1.489 -0.163,1.892 -1.675,1.772c-2.967,-0.238 -5.943,-0.228 -8.909,-0.422c-4.653,-0.305 -9.304,-0.316 -13.958,0.004c-0.67,0.047 -1.345,0.116 -2.016,0.099c-2.979,-0.072 -5.939,0.301 -8.911,0.349c-1.824,0.029 -1.972,-0.059 -2.585,-1.754c-2.559,-7.073 -5.302,-14.072 -8.32,-20.964c-2.499,-5.706 -5.051,-11.388 -7.756,-16.999c-2.974,-6.167 -6.026,-12.296 -9.049,-18.439c-0.247,-0.503 -0.5,-1.008 -0.806,-1.476c-0.434,-0.664 -1.118,-0.672 -1.809,-0.573c-0.718,0.101 -0.847,0.689 -0.912,1.246c-0.282,2.461 -0.258,4.944 -0.076,7.397c0.328,4.431 0.163,8.864 0.3,13.292c0.19,6.167 0.349,12.337 0.696,18.496c0.342,6.044 0.902,12.077 1.37,18.114c0.122,1.549 0.014,1.637 -1.508,1.486c-6.547,-0.646 -13.101,-0.748 -19.661,-0.207c-1.285,0.107 -2.575,0.114 -3.859,0.293c-1.122,0.156 -1.432,-0.146 -1.397,-1.301c0.035,-1.174 0.202,-2.344 0.314,-3.516c0.154,-1.619 0.271,-3.243 0.478,-4.855c0.212,-1.644 0.352,-1.699 1.904,-2.106c2.441,-0.64 4.875,-1.314 7.299,-2.019c1.654,-0.481 1.65,-0.546 1.82,-2.344c0.369,-3.91 0.521,-7.831 0.707,-11.752c0.529,-11.109 0.224,-22.219 0.178,-33.328c-0.02,-4.707 -0.376,-9.413 -0.593,-14.118c-0.063,-1.377 -0.221,-1.571 -1.599,-1.988c-2.041,-0.618 -4.082,-1.241 -6.139,-1.796c-1.121,-0.302 -1.688,-0.868 -1.757,-2.098c-0.158,-2.797 -0.461,-5.587 -0.668,-8.382c-0.102,-1.378 0.022,-1.47 1.337,-1.397c4.257,0.236 8.519,0.358 12.776,0.555c4.211,0.193 8.417,0.246 12.62,0.152c6.168,-0.137 12.332,-0.444 18.496,-0.709c1.778,-0.076 2.117,0.072 2.742,1.774c3.193,8.695 6.743,17.247 10.404,25.752c3.462,8.041 7.066,16.018 10.822,23.926c1.42,2.991 2.82,5.991 4.231,8.987c0.262,0.557 0.492,1.137 0.945,1.579c0.352,0.343 0.779,0.44 1.243,0.294c0.443,-0.14 0.563,-0.522 0.587,-0.93c0.029,-0.503 0.033,-1.009 0.033,-1.514c0.003,-5.051 0.002,-10.103 0.002,-15.154l-0.072,-0Z" style="fill:#fff;fill-rule:nonzero;"/><path d="M100.128,160.303c-0.418,10.883 -0.27,21.765 -0.196,32.646c0.032,4.82 0.164,9.646 0.368,14.463c0.159,3.779 0.269,3.787 3.725,4.714c1.408,0.378 2.787,0.865 4.173,1.315c1.059,0.343 1.688,1.069 1.852,2.177c0.074,0.499 0.166,0.999 0.188,1.501c0.084,1.905 0.139,3.807 0.336,5.709c0.23,2.215 -0.027,2.446 -2.226,2.452c-4.714,0.013 -9.428,0.004 -14.142,0.004l-36.197,-0c-0.448,-0 -0.898,0.004 -1.347,-0.001c-2.144,-0.025 -2.284,-0.153 -2.293,-2.301c-0.008,-2.189 -0.001,-4.377 0.02,-6.566c0.02,-2.083 0.265,-2.414 2.218,-2.97c2.05,-0.585 4.112,-1.131 6.164,-1.709c1.93,-0.544 2.207,-0.956 2.359,-2.925c0.671,-8.614 0.92,-17.241 1.115,-25.877c0.109,-4.824 0.242,-9.65 0.126,-14.467c-0.131,-5.439 -0.126,-10.882 -0.338,-16.316c-0.1,-2.577 -0.217,-5.154 -0.282,-7.732c-0.006,-0.224 -0.019,-0.449 -0.046,-0.672c-0.195,-1.592 -0.554,-1.892 -2.14,-1.942c-1.526,-0.047 -3.02,0.226 -4.523,0.388c-4.681,0.504 -9.353,1.088 -14.037,1.563c-1.541,0.156 -2.292,0.917 -2.586,2.375c-0.51,2.528 -1.147,5.033 -1.617,7.569c-0.305,1.645 -1.093,2.576 -2.8,2.851c-2.435,0.394 -4.842,0.959 -7.267,1.415c-1.51,0.285 -1.709,0.136 -1.711,-1.354c-0.013,-9.09 -0.013,-18.18 0.002,-27.27c0.002,-1.52 0.311,-1.738 1.809,-1.639c5.873,0.391 11.751,0.688 17.629,0.993c16.991,0.879 33.989,0.719 50.986,0.549c7.566,-0.076 15.131,-0.424 22.69,-0.871c3.917,-0.231 7.837,-0.409 11.75,-0.707c1.738,-0.133 1.98,0.106 1.982,1.83c0.014,8.978 0.007,17.955 0.007,26.933c-0,0.225 -0.014,0.449 -0.014,0.673c-0.003,0.826 -0.441,1.084 -1.204,0.935c-1.155,-0.226 -2.311,-0.453 -3.47,-0.668c-1.433,-0.265 -2.866,-0.538 -4.305,-0.772c-1.696,-0.276 -2.688,-1.161 -2.97,-2.929c-0.327,-2.048 -0.81,-4.069 -1.232,-6.1c-0.115,-0.55 -0.253,-1.094 -0.382,-1.64c-0.283,-1.207 -0.974,-1.908 -2.249,-2.179c-3.076,-0.654 -6.181,-1.111 -9.291,-1.542c-2.617,-0.361 -5.253,-0.428 -7.892,-0.39c-1.843,0.025 -1.903,0.087 -2.031,1.848" style="fill:#fff;fill-rule:nonzero;"/></g></svg>